<?xml version="1.0" encoding="UTF-8"?>
<!-- Generator: Adobe Illustrator 26.2.1, SVG Export Plug-In . SVG Version: 6.00 Build 0)  -->
<svg xmlns="http://www.w3.org/2000/svg" xmlns:xlink="http://www.w3.org/1999/xlink" version="1.1" id="Layer_1" x="0px" y="0px" viewBox="0 0 512 512" style="enable-background:new 0 0 512 512;" xml:space="preserve" width="512" height="512">
<g>
	<g>
		<path style="fill:#241726;" d="M371.655,78.825c-0.04,0-0.139-0.006-0.179-0.011c-0.32-0.038-0.605-0.227-0.764-0.508    c-0.023-0.041-2.221-3.945-4.712-8.674c-2.826,0.445-7.181,1.069-9.332,1.07c-0.791,0-1.595-0.052-1.973-0.681    c-0.183-0.304-0.191-0.8-0.026-1.115c0.454-0.865,4.384-5.196,6.954-7.966c-3.496-7.397-3.355-8.796-2.903-9.583    c0.228-0.397,0.62-0.646,1.077-0.685c1.711-0.003,5.98,1.764,8.785,3.002c6.871-6.682,7.181-6.956,8.653-6.081    c0.161,0.169,0.346,0.47,0.319,0.933c-0.081,1.421-0.327,5.072-0.695,9.134c8.865,4.635,8.88,5.979,8.887,6.631    c0.006,0.514-0.275,0.976-0.75,1.234c-1.277,0.695-6.089,1.733-9.287,2.372C374.281,77.966,372.924,78.825,371.655,78.825z     M368.111,69.289c1.555,2.937,2.959,5.49,3.734,6.888c0.404-0.921,1.042-3.034,1.758-7.869    C371.788,68.653,369.928,68.986,368.111,69.289z M362.568,62.901c-2.43,2.628-4.161,4.583-5.152,5.752    c1.609-0.085,4.275-0.407,7.594-0.918C364.108,65.997,363.291,64.38,362.568,62.901z M364.047,61.312    c0.876,1.81,1.906,3.853,3.071,6.088c2.234-0.367,4.55-0.78,6.78-1.211c0.286-2.18,0.561-4.648,0.818-7.355    c-1.831-0.933-3.772-1.868-5.681-2.736C367.393,57.771,365.672,59.575,364.047,61.312z M376.654,59.844    c-0.21,2.141-0.431,4.126-0.66,5.931c3.883-0.788,6.22-1.386,7.343-1.756C382.551,63.309,380.598,61.946,376.654,59.844z     M360.567,52.785c0.146,0.774,0.689,2.558,2.547,6.56c1.297-1.379,2.64-2.786,3.947-4.125    C363.844,53.822,361.648,53.039,360.567,52.785z M370.554,54.566c1.465,0.676,2.939,1.385,4.36,2.098    c0.245-2.799,0.418-5.196,0.517-6.675C374.602,50.681,373.114,52.012,370.554,54.566z"/>
	</g>
	<g>
		<path style="fill:#241726;" d="M75.199,464.765c-0.331,0-0.738-0.221-0.928-0.492c-0.558-0.8-2.599-6.281-3.877-9.837    c-8.177-0.297-9.354-1.064-9.845-1.828c-0.248-0.384-0.289-0.848-0.113-1.27c0.531-1.274,3.823-4.109,6.706-6.424    c-2.862-8.914-2.407-9.54-2.04-10.046c0.324-0.441,1.075-0.595,1.592-0.289c1.23,0.729,4.362,2.629,7.792,4.817    c4.986-3.269,9.959-7.132,10.726-3.609c0.031,1.452-1.26,6.203-2.163,9.336c7.675,5.461,8.667,7.421,7.748,8.778    c-0.181,0.268-0.48,0.433-0.803,0.444c-0.046,0.002-4.524,0.158-9.868,0.198c-3.397,10.218-4.14,10.219-4.924,10.221    C75.2,464.765,75.2,464.765,75.199,464.765z M72.571,454.498c1.217,3.368,2.156,5.805,2.739,7.221    c0.553-1.226,1.426-3.455,2.676-7.168H77.79C76.059,454.552,74.284,454.537,72.571,454.498z M71.839,452.455    c1.935,0.051,3.971,0.071,5.951,0.071l0.868-0.002c0.7-2.151,1.398-4.399,2.041-6.576c-1.803-1.256-3.869-2.634-6.156-4.109    c-1.67,1.197-3.392,2.491-5.04,3.788C70.234,447.854,71.043,450.211,71.839,452.455z M82.445,447.183    c-0.528,1.771-1.089,3.576-1.654,5.329c3.323-0.031,6.236-0.104,7.833-0.149C87.992,451.58,86.409,450.042,82.445,447.183z     M62.666,451.626c0.755,0.225,2.591,0.563,6.997,0.753c-0.629-1.786-1.26-3.626-1.849-5.403    C64.966,449.294,63.345,450.84,62.666,451.626z M76.329,440.583c1.806,1.171,3.467,2.28,4.965,3.313    c1.085-3.811,1.629-6.162,1.816-7.329C82.107,436.938,80.003,438.049,76.329,440.583z M67.037,437.148    c0.228,1.088,0.726,3.019,1.804,6.424c1.272-0.99,2.58-1.972,3.866-2.906C70.486,439.257,68.442,438,67.037,437.148z"/>
	</g>
	<g>
		<g>
			<path style="fill:#E17B8D;" d="M359.901,450.041c0,0-13.15,4.217-18.847-5.748c-5.697-9.965,2.637-17.71,1.361-19.595     c-1.276-1.884-11.29,2.068-9.616,17.91c1.674,15.841,25.252,16.041,27.63,13.704     C362.807,453.974,359.901,450.041,359.901,450.041z"/>
		</g>
		<g>
			<path style="fill:#241726;" d="M351.082,457.067c-0.05,0-0.102-0.004-0.153-0.012c-0.554-0.084-0.934-0.6-0.849-1.153     l0.736-4.822c0.084-0.553,0.594-0.932,1.153-0.849c0.554,0.084,0.934,0.6,0.849,1.153l-0.736,4.822     C352.005,456.708,351.574,457.067,351.082,457.067z"/>
		</g>
		<g>
			<path style="fill:#241726;" d="M338.188,451.935c-0.227,0-0.454-0.075-0.643-0.23c-0.431-0.356-0.494-0.994-0.138-1.426     l3.459-4.202c0.355-0.431,0.992-0.496,1.426-0.138c0.431,0.356,0.494,0.994,0.138,1.426l-3.459,4.202     C338.77,451.81,338.48,451.935,338.188,451.935z"/>
		</g>
		<g>
			<path style="fill:#241726;" d="M334.222,441.485c-0.501,0-0.936-0.371-1.003-0.88c-0.073-0.554,0.317-1.063,0.871-1.137     l5.045-0.668c0.551-0.075,1.063,0.317,1.137,0.871c0.073,0.554-0.317,1.063-0.871,1.137l-5.045,0.668     C334.311,441.482,334.266,441.485,334.222,441.485z"/>
		</g>
		<g>
			<path style="fill:#241726;" d="M339.822,432.682c-0.114,0-0.228-0.019-0.342-0.059l-4.058-1.455     c-0.526-0.189-0.8-0.769-0.611-1.296c0.188-0.527,0.766-0.8,1.296-0.611l4.058,1.455c0.526,0.189,0.8,0.769,0.611,1.296     C340.627,432.425,340.237,432.682,339.822,432.682z"/>
		</g>
		<g>
			<path style="fill:#1A1F36;" d="M401.085,430.881c0,0-2.621-18.433-11.369-19.057c-18.362-1.308,0.149,20.512,5.926,21.045     s-19.791-14.364-30.17-1.758c-7.462,9.064-5.94,24.352-6.055,26.451s52.593-4.819,59.044-11.288     c6.45-6.47,4.596-16.369,2.144-16.649c-2.452-0.279-3.669,6.041-10.204,3.434C403.867,430.452,405.183,427.621,401.085,430.881z"/>
		</g>
		<g>
			<path style="fill:#1A1F36;" d="M401.085,430.881c0,0-6.048-16.153,4.609-15.933C416.351,415.167,407.822,434.443,401.085,430.881     z"/>
		</g>
		<g>
			<path style="fill:#FBFCFF;" d="M374.997,432.463c-0.17,0-0.342-0.043-0.501-0.134c-0.487-0.277-0.656-0.895-0.378-1.381     c1.308-2.296,4.138-1.564,5.449-0.857c0.492,0.265,0.675,0.876,0.413,1.368c-0.262,0.493-0.877,0.68-1.369,0.417     c-0.021-0.011-2.073-1.08-2.734,0.074C375.691,432.28,375.349,432.463,374.997,432.463z"/>
		</g>
		<g>
			<path style="fill:#FBFCFF;" d="M372.583,440.296c-0.008,0-0.016,0-0.024,0c-0.56-0.014-1.002-0.478-0.989-1.037     c0.062-2.64,2.899-3.339,4.39-3.34h0.001c1.31-0.019,1.312,2.037,0.004,2.026c-0.024,0-2.338,0.033-2.369,1.362     C373.583,439.858,373.132,440.296,372.583,440.296z"/>
		</g>
		<g>
			<path style="fill:#FBFCFF;" d="M368.365,437.72c-0.444,0-0.853-0.295-0.976-0.745c-0.697-2.546,1.818-4.031,3.246-4.461     c0.534-0.155,1.096,0.141,1.259,0.676c0.162,0.534-0.139,1.099-0.673,1.264c-0.022,0.007-2.231,0.703-1.878,1.985     c0.147,0.54-0.17,1.097-0.709,1.245C368.544,437.708,368.454,437.72,368.365,437.72z"/>
		</g>
		<g>
			<path style="fill:#FBFCFF;" d="M407.617,440.525c-0.465,0-0.883-0.321-0.988-0.794c-0.661-2.988-1.559-3.495-1.914-3.573     c-0.829-0.195-2.049,0.971-2.474,1.527c-0.34,0.444-0.973,0.529-1.42,0.188c-0.444-0.34-0.528-0.976-0.188-1.42     c0.221-0.287,2.202-2.786,4.521-2.273c1.643,0.364,2.774,2.037,3.454,5.114c0.121,0.546-0.225,1.087-0.771,1.208     C407.763,440.517,407.689,440.525,407.617,440.525z"/>
		</g>
		<g>
			<path style="fill:#FBFCFF;" d="M416.905,447.855c-0.23,0-0.462-0.078-0.653-0.239c-2.162-1.826-1.018-5.471-0.88-5.881     c0.179-0.53,0.755-0.813,1.281-0.637c0.529,0.176,0.816,0.75,0.64,1.28c-0.232,0.702-0.683,2.888,0.267,3.691     c0.427,0.361,0.481,1,0.12,1.427C417.48,447.733,417.194,447.855,416.905,447.855z"/>
		</g>
		<g>
			<path style="fill:#FBFCFF;" d="M418.96,436.544c-0.09,0-0.181-0.012-0.271-0.037c-0.539-0.149-0.856-0.707-0.706-1.246     c0.291-1.051,1.498-2.053,1.736-2.242c0.439-0.346,1.072-0.278,1.422,0.161c0.348,0.436,0.277,1.073-0.159,1.422     c-0.433,0.347-0.973,0.934-1.047,1.199C419.81,436.25,419.403,436.544,418.96,436.544z"/>
		</g>
	</g>
	<g>
		<g>
			<path style="fill:#E17B8D;" d="M99.833,108.759c0,0,13.15,4.217,18.847-5.748c5.697-9.965-2.637-17.71-1.361-19.595     s11.29,2.068,9.616,17.91c-1.674,15.841-25.252,16.041-27.63,13.704C96.927,112.692,99.833,108.759,99.833,108.759z"/>
		</g>
		<g>
			<path style="fill:#241726;" d="M108.652,115.787c-0.493,0-0.924-0.359-1-0.861l-0.735-4.823     c-0.084-0.553,0.296-1.069,0.849-1.153c0.556-0.086,1.069,0.296,1.153,0.849l0.735,4.823c0.085,0.553-0.296,1.069-0.849,1.153     C108.754,115.783,108.703,115.787,108.652,115.787z"/>
		</g>
		<g>
			<path style="fill:#241726;" d="M121.547,110.654c-0.293,0-0.583-0.126-0.783-0.369l-3.459-4.202     c-0.355-0.432-0.293-1.07,0.138-1.426c0.432-0.355,1.071-0.294,1.426,0.138l3.459,4.202c0.355,0.432,0.293,1.07-0.138,1.426     C122.001,110.579,121.774,110.654,121.547,110.654z"/>
		</g>
		<g>
			<path style="fill:#241726;" d="M125.512,100.203c-0.045,0-0.089-0.003-0.134-0.009l-5.044-0.668     c-1.309-0.152-1.028-2.203,0.265-2.008l5.044,0.668c0.555,0.073,0.945,0.583,0.871,1.137     C126.447,99.832,126.012,100.203,125.512,100.203z"/>
		</g>
		<g>
			<path style="fill:#241726;" d="M119.913,91.4c-0.415,0-0.805-0.257-0.954-0.671c-0.189-0.527,0.085-1.107,0.611-1.296     l4.058-1.455c0.525-0.189,1.106,0.084,1.296,0.611c0.189,0.527-0.085,1.107-0.611,1.296l-4.058,1.455     C120.141,91.382,120.027,91.4,119.913,91.4z"/>
		</g>
		<g>
			<path style="fill:#1A1F36;" d="M58.649,89.6c0,0,2.621-18.433,11.369-19.057c18.362-1.308-0.149,20.512-5.926,21.045     c-5.777,0.534,19.791-14.364,30.17-1.758c7.462,9.064,5.94,24.352,6.055,26.451c0.115,2.099-52.593-4.819-59.044-11.288     c-6.45-6.47-4.596-16.369-2.144-16.649c2.452-0.279,3.669,6.041,10.204,3.434S54.552,86.34,58.649,89.6z"/>
		</g>
		<g>
			<path style="fill:#1A1F36;" d="M58.649,89.6c0,0,6.048-16.153-4.609-15.933C43.383,73.886,51.912,93.161,58.649,89.6z"/>
		</g>
		<g>
			<path style="fill:#FBFCFF;" d="M84.738,91.183c-0.352,0-0.694-0.183-0.881-0.511c-0.655-1.149-2.709-0.088-2.729-0.075     c-0.494,0.265-1.107,0.08-1.373-0.411c-0.265-0.493-0.08-1.107,0.411-1.373c1.315-0.705,4.143-1.436,5.451,0.857     c0.277,0.486,0.108,1.104-0.379,1.382C85.08,91.14,84.908,91.183,84.738,91.183z"/>
		</g>
		<g>
			<path style="fill:#FBFCFF;" d="M87.151,99.014c-0.549,0-1-0.438-1.013-0.989c-0.031-1.329-2.346-1.362-2.37-1.362     c-1.309,0.011-1.306-2.045,0.004-2.026h0.001c1.491,0.001,4.329,0.7,4.391,3.34c0.013,0.559-0.429,1.023-0.989,1.037     C87.167,99.014,87.159,99.014,87.151,99.014z"/>
		</g>
		<g>
			<path style="fill:#FBFCFF;" d="M91.368,96.439c-0.089,0-0.179-0.012-0.269-0.037c-0.539-0.147-0.857-0.705-0.708-1.244     c0.352-1.283-1.857-1.979-1.878-1.986c-0.533-0.165-0.835-0.73-0.673-1.264c0.163-0.534,0.727-0.832,1.259-0.676     c1.428,0.43,3.944,1.916,3.244,4.462C92.221,96.144,91.812,96.439,91.368,96.439z"/>
		</g>
		<g>
			<path style="fill:#FBFCFF;" d="M52.118,99.244c-0.072,0-0.146-0.008-0.22-0.024c-0.546-0.121-0.891-0.662-0.771-1.208     c0.681-3.077,1.811-4.749,3.454-5.114c2.298-0.512,4.299,1.987,4.521,2.274c0.339,0.443,0.255,1.077-0.187,1.417     c-0.443,0.34-1.079,0.257-1.419-0.183c-0.449-0.582-1.661-1.719-2.478-1.53c-0.355,0.08-1.251,0.588-1.912,3.573     C53.001,98.922,52.583,99.244,52.118,99.244z"/>
		</g>
		<g>
			<path style="fill:#FBFCFF;" d="M42.829,106.574c-0.289,0-0.575-0.122-0.775-0.359c-0.361-0.427-0.308-1.066,0.12-1.427     c0.95-0.803,0.499-2.988,0.266-3.692c-0.176-0.53,0.11-1.103,0.64-1.28c0.531-0.177,1.103,0.107,1.281,0.637     c0.137,0.41,1.283,4.054-0.879,5.882C43.292,106.496,43.06,106.574,42.829,106.574z"/>
		</g>
		<g>
			<path style="fill:#FBFCFF;" d="M40.775,95.262c-0.444,0-0.851-0.294-0.975-0.743c-0.074-0.268-0.613-0.854-1.046-1.198     c-0.438-0.348-0.51-0.985-0.162-1.422c0.347-0.437,0.985-0.511,1.422-0.162c0.239,0.19,1.447,1.192,1.738,2.242     c0.149,0.539-0.167,1.097-0.706,1.246C40.956,95.25,40.865,95.262,40.775,95.262z"/>
		</g>
	</g>
	<g>
		<g>
			<path style="fill:#241726;" d="M30.192,304.823c-0.104,0-0.209-0.009-0.314-0.027c-3.625-0.625-4.858-12.123-5.22-17.038     c-0.042-0.558,0.378-1.044,0.936-1.084c0.537-0.039,1.044,0.378,1.084,0.936c0.57,7.728,2.259,14.968,3.544,15.19     c0.95-0.727,1.446-8.294,0.945-16.498c-0.035-0.559,0.391-1.04,0.949-1.073c0.585-0.012,1.04,0.391,1.073,0.949     c0.226,3.69,0.768,15.9-1.744,18.149C31.082,304.653,30.646,304.823,30.192,304.823z"/>
		</g>
		<g>
			<path style="fill:#241726;" d="M65.703,285.792c-3.583,0.001-12.279-7.571-14.933-9.96c-0.415-0.374-0.449-1.015-0.075-1.43     c0.376-0.414,1.015-0.447,1.43-0.075c6.109,5.499,12.338,9.806,13.608,9.438c0.519-1.051-4.096-6.88-9.791-12.137     c-0.411-0.379-0.436-1.02-0.056-1.431c0.379-0.411,1.021-0.436,1.431-0.056c3.62,3.341,11.853,11.464,10.086,14.69     c-0.275,0.502-0.752,0.834-1.343,0.935C65.948,285.783,65.829,285.792,65.703,285.792z"/>
		</g>
		<g>
			<path style="fill:#241726;" d="M21.114,286.286c-0.119,0-0.237-0.021-0.351-0.063c-0.269-0.099-0.484-0.308-0.59-0.575     c-0.407-1.019-9.899-25.095-4.413-35.907c1.293-2.548,3.312-4.19,6.001-4.884c14.787-4.415,30.37,22.814,30.699,23.981     c0.265,0.477,0.063,1.128-0.425,1.371L21.584,286.17C21.437,286.247,21.276,286.286,21.114,286.286z M25.001,246.474     c-0.924,0-1.844,0.117-2.735,0.346c-2.13,0.548-3.667,1.803-4.699,3.837c-4.464,8.796,2.325,28.43,4.087,33.189l28.521-14.948     C47.741,264.63,36.689,246.474,25.001,246.474z"/>
		</g>
		<g>
			<path style="fill:#E17B8D;" d="M16.303,275.301l30.618-15.618l21.176-0.041c0,0-20.608,44.278-64.129,30.512L16.303,275.301z"/>
		</g>
		<g>
			<path style="fill:#241726;" d="M33.226,255.152c-0.377,0-0.739-0.211-0.913-0.573c-2.451-5.084-8.406-3.055-8.66-2.968     c-1.234,0.456-1.918-1.494-0.673-1.911c2.728-0.959,8.573-1.36,11.157,3.998c0.243,0.504,0.032,1.11-0.472,1.352     C33.522,255.119,33.373,255.152,33.226,255.152z"/>
		</g>
		<g>
			<polygon style="fill:#E3B800;" points="14.692,268.447 43.413,254.168 46.921,259.683 16.303,275.301    "/>
		</g>
		<g>
			<path style="fill:#241726;" d="M21.11,287.722c-1.881,0-3.625-1.094-4.443-2.788c-1.201-2.363-0.111-5.482,2.299-6.583     c2.379-1.152,5.44-0.067,6.583,2.298c1.181,2.449,0.149,5.403-2.299,6.583C22.575,287.557,21.855,287.722,21.11,287.722z      M21.105,279.885c-0.437,0-0.861,0.098-1.259,0.29c-0.699,0.337-1.225,0.927-1.481,1.659c-0.255,0.733-0.211,1.521,0.126,2.22     c0.672,1.393,2.476,2.034,3.879,1.354c1.443-0.696,2.051-2.436,1.355-3.879C23.243,280.531,22.214,279.885,21.105,279.885z"/>
		</g>
		<g>
			<path style="fill:#241726;" d="M37.822,283.078c-1.881,0-3.625-1.094-4.443-2.788c-1.181-2.449-0.149-5.403,2.299-6.584     c2.384-1.148,5.442-0.064,6.583,2.299c1.181,2.448,0.149,5.401-2.299,6.583C39.287,282.913,38.567,283.078,37.822,283.078z      M37.816,275.241c-0.437,0-0.861,0.097-1.258,0.289c-1.442,0.696-2.051,2.437-1.355,3.88c0.673,1.392,2.473,2.033,3.879,1.354     c1.442-0.696,2.051-2.436,1.355-3.879C39.954,275.886,38.926,275.241,37.816,275.241z"/>
		</g>
		<g>
			<path style="fill:#241726;" d="M51.761,273.973c-1.881,0-3.625-1.095-4.443-2.789c-0.573-1.186-0.648-2.524-0.215-3.768     c0.434-1.243,1.327-2.243,2.513-2.815c2.379-1.15,5.44-0.066,6.583,2.298c1.181,2.449,0.149,5.402-2.299,6.583     C53.226,273.807,52.506,273.973,51.761,273.973z M51.756,266.134c-0.437,0-0.861,0.098-1.259,0.29     c-0.699,0.337-1.226,0.926-1.481,1.659c-0.256,0.733-0.211,1.521,0.126,2.22c0.672,1.393,2.47,2.035,3.879,1.354     c1.443-0.696,2.051-2.436,1.355-3.879C53.893,266.78,52.865,266.134,51.756,266.134z"/>
		</g>
	</g>
	<g>
		<g>
			<path style="fill:#241726;" d="M403.406,109.911c-0.436,0-0.844-0.146-1.179-0.428c-2.813-2.369,1.926-12.918,4.093-17.343     c0.247-0.501,0.858-0.71,1.355-0.464c0.503,0.246,0.71,0.854,0.465,1.356c-3.41,6.959-5.606,14.062-4.608,14.902     c1.187-0.148,5.435-6.431,9.143-13.766c0.253-0.499,0.863-0.699,1.361-0.447c0.5,0.252,0.699,0.862,0.447,1.361     c-1.667,3.298-7.363,14.113-10.666,14.787C403.678,109.897,403.541,109.911,403.406,109.911z"/>
		</g>
		<g>
			<path style="fill:#241726;" d="M443.767,111.448c-0.23,0-0.466-0.044-0.698-0.132c-3.154-1.19-7.063-12.771-8.186-16.293     c-0.169-0.533,0.125-1.103,0.658-1.273c0.529-0.169,1.103,0.126,1.273,0.658c2.498,7.831,5.696,14.708,6.984,15.017     c0.979-0.646-0.063-8.007-2.326-15.419c-0.164-0.535,0.138-1.101,0.673-1.264c0.536-0.17,1.102,0.137,1.264,0.673     c1.439,4.713,4.446,15.88,1.292,17.774C444.412,111.36,444.095,111.448,443.767,111.448z"/>
		</g>
		<g>
			<path style="fill:#241726;" d="M438.861,90.81c-0.016,0-0.032,0-0.046-0.001l-34.345-1.592c-0.584-0.015-1.055-0.588-0.956-1.163     c0.173-1.538,6.199-39.003,21.962-34.41c15.572,4.428,14.453,34.901,14.397,36.197c-0.012,0.269-0.13,0.522-0.328,0.704     C439.358,90.716,439.113,90.81,438.861,90.81z M405.695,87.246l32.175,1.492c0.055-5.297-0.39-29.574-12.948-33.145     C413.222,52.731,407.653,76.939,405.695,87.246z"/>
		</g>
		<g>
			<path style="fill:#E17B8D;" d="M405.397,77.168l34.315,1.972l18.301,10.653c0,0-40.139,27.822-70.761-6.029L405.397,77.168z"/>
		</g>
		<g>
			<path style="fill:#241726;" d="M430.687,68.453c-0.027,0-0.054-0.001-0.081-0.003c-0.558-0.045-0.974-0.533-0.93-1.09     c0.449-5.626-5.716-6.882-5.979-6.933c-0.549-0.106-0.909-0.637-0.802-1.186c0.106-0.549,0.643-0.907,1.186-0.802     c2.841,0.548,8.087,3.152,7.615,9.082C431.654,68.051,431.211,68.453,430.687,68.453z"/>
		</g>
		<g>
			<polygon style="fill:#E3B800;" points="407.466,70.439 439.466,72.609 439.711,79.14 405.397,77.168    "/>
		</g>
		<g>
			<path style="fill:#241726;" d="M405.768,90.99c-0.132,0-0.264-0.006-0.397-0.016c-2.71-0.217-4.739-2.598-4.524-5.307     c0.214-2.677,2.571-4.743,5.307-4.523c2.646,0.157,4.789,2.669,4.523,5.307C410.475,88.996,408.318,90.99,405.768,90.99z      M405.759,83.154c-1.502,0-2.772,1.175-2.891,2.674c-0.128,1.597,1.067,2.999,2.664,3.127l0.236,0.01     c1.502,0,2.771-1.175,2.89-2.674c0.157-1.554-1.105-3.035-2.664-3.127L405.759,83.154z"/>
		</g>
		<g>
			<path style="fill:#241726;" d="M422.539,95.416c-0.131,0-0.263-0.006-0.396-0.016c-1.313-0.105-2.507-0.715-3.361-1.717     c-0.854-1.003-1.267-2.277-1.162-3.59c0.214-2.676,2.58-4.741,5.307-4.524c2.646,0.157,4.789,2.669,4.523,5.307     C427.246,93.422,425.09,95.416,422.539,95.416z M422.531,87.58c-1.502,0-2.772,1.175-2.891,2.674     c-0.062,0.774,0.181,1.524,0.685,2.116c0.503,0.591,1.207,0.95,1.979,1.011l0.235,0.01c1.502,0,2.772-1.175,2.891-2.674     c0.157-1.554-1.105-3.035-2.664-3.127L422.531,87.58z"/>
		</g>
		<g>
			<path style="fill:#241726;" d="M439.168,94.591c-0.131,0-0.263-0.006-0.396-0.016c-2.646-0.157-4.789-2.669-4.523-5.307     c0.215-2.677,2.604-4.732,5.307-4.523c2.71,0.217,4.739,2.598,4.523,5.307C443.875,92.597,441.719,94.591,439.168,94.591z      M439.159,86.755c-1.502,0-2.771,1.175-2.89,2.674c-0.157,1.554,1.105,3.035,2.664,3.127l0.235,0.01     c1.502,0,2.772-1.175,2.891-2.674c0.128-1.597-1.067-2.999-2.664-3.127L439.159,86.755z"/>
		</g>
	</g>
	<g>
		<path style="fill:#241726;" d="M423.139,148.942c-0.75,0-1.459,0-3.432-7.861c-6.661-1.281-7.224-2.038-7.441-2.328    c-0.188-0.252-0.269-0.716-0.184-1.019c0.122-0.427,0.401-1.417,8.012-4.484c2.961-7.479,3.73-7.806,5.227-6.639    c0.49,0.657,0.933,2.362,1.604,5.093c0.21,0.855,0.464,1.886,0.61,2.34c0.4,0.178,1.281,0.495,2.011,0.757    c3.915,1.403,4.924,1.88,5.107,2.815c0.068,0.35-0.11,0.861-0.375,1.099c-0.795,0.713-4.578,2.118-6.562,2.824    c-3.222,7.333-3.911,7.368-4.52,7.401C423.18,148.942,423.157,148.942,423.139,148.942z M414.843,137.881    c1.331,0.384,3.758,0.935,5.876,1.329c0.391,0.073,0.702,0.368,0.797,0.754c0.541,2.194,1.249,4.694,1.759,6.119    c0.738-1.327,1.856-3.679,2.762-5.756c0.113-0.258,0.327-0.458,0.592-0.551c1.809-0.637,3.853-1.418,5.125-1.975    c-0.891-0.376-2.104-0.811-2.89-1.093c-2.235-0.8-2.655-0.974-2.943-1.36c-0.251-0.337-0.407-0.9-0.962-3.159    c-0.209-0.85-0.529-2.153-0.815-3.129c-0.664,1.266-1.592,3.42-2.313,5.326c-0.101,0.265-0.309,0.477-0.573,0.582    C418.908,135.904,416.241,137.099,414.843,137.881z"/>
	</g>
	<g>
		<path style="fill:#241726;" d="M44.308,416.352c-0.75,0-1.459,0-3.432-7.861c-6.661-1.281-7.224-2.038-7.441-2.328    c-0.188-0.252-0.269-0.716-0.184-1.019c0.122-0.427,0.401-1.417,8.012-4.484c2.961-7.479,3.73-7.806,5.227-6.639    c0.49,0.657,0.933,2.362,1.604,5.093c0.21,0.855,0.464,1.886,0.61,2.34c0.4,0.178,1.281,0.495,2.011,0.757    c3.915,1.403,4.924,1.88,5.107,2.815c0.068,0.35-0.11,0.861-0.375,1.099c-0.795,0.713-4.578,2.118-6.562,2.824    c-3.222,7.333-3.911,7.368-4.52,7.401C44.349,416.352,44.326,416.352,44.308,416.352z M36.012,405.291    c1.331,0.384,3.758,0.935,5.876,1.329c0.391,0.073,0.702,0.368,0.797,0.754c0.541,2.194,1.249,4.694,1.759,6.119    c0.738-1.327,1.856-3.679,2.762-5.756c0.113-0.258,0.327-0.458,0.593-0.551c1.809-0.637,3.853-1.418,5.125-1.975    c-0.891-0.376-2.104-0.811-2.89-1.093c-2.235-0.8-2.655-0.974-2.943-1.36c-0.251-0.337-0.407-0.9-0.962-3.159    c-0.209-0.85-0.529-2.153-0.815-3.129c-0.664,1.266-1.592,3.42-2.313,5.326c-0.101,0.265-0.309,0.477-0.573,0.582    C40.078,403.314,37.41,404.509,36.012,405.291z"/>
	</g>
	<g>
		<g>
			<path style="fill:#241726;" d="M32.4,200.17h-0.006c-0.56-0.004-1.011-0.459-1.007-1.019l0.101-17.047     c0.004-0.56,0.461-1.01,1.019-1.007c0.56,0.004,1.011,0.459,1.007,1.019l-0.101,17.047C33.409,199.721,32.955,200.17,32.4,200.17     z"/>
		</g>
		<g>
			<path style="fill:#241726;" d="M25.527,196.449c-0.319,0-0.633-0.15-0.831-0.433c-0.32-0.459-0.208-1.09,0.251-1.411     l14.078-9.815c0.453-0.317,1.088-0.21,1.411,0.251c0.32,0.459,0.208,1.09-0.251,1.411l-14.078,9.815     C25.93,196.39,25.729,196.449,25.527,196.449z"/>
		</g>
		<g>
			<path style="fill:#241726;" d="M37.887,197.165c-0.269,0-0.536-0.107-0.736-0.317l-10.644-11.247     c-0.384-0.406-0.366-1.049,0.04-1.432c0.408-0.386,1.047-0.364,1.432,0.04l10.644,11.247c0.384,0.406,0.366,1.049-0.04,1.432     C38.388,197.074,38.137,197.165,37.887,197.165z"/>
		</g>
		<g>
			<path style="fill:#241726;" d="M23.602,191.465c-0.556,0-1.007-0.447-1.013-1.003c-0.006-0.56,0.443-1.017,1.003-1.023     l16.397-0.156c0.562-0.003,1.017,0.445,1.023,1.003c0.006,0.56-0.443,1.017-1.003,1.023l-16.397,0.156H23.602z"/>
		</g>
	</g>
	<g>
		<g>
			<path style="fill:#241726;" d="M374.607,401.24h-0.006c-0.56-0.004-1.011-0.459-1.007-1.019l0.101-17.047     c0.004-0.56,0.461-1.01,1.019-1.007c0.56,0.004,1.011,0.459,1.007,1.019l-0.101,17.047     C375.616,400.791,375.163,401.24,374.607,401.24z"/>
		</g>
		<g>
			<path style="fill:#241726;" d="M367.734,397.519c-0.319,0-0.633-0.15-0.831-0.433c-0.32-0.459-0.208-1.09,0.251-1.411     l14.078-9.815c0.453-0.317,1.088-0.21,1.411,0.251c0.32,0.459,0.208,1.09-0.251,1.411l-14.078,9.815     C368.138,397.459,367.936,397.519,367.734,397.519z"/>
		</g>
		<g>
			<path style="fill:#241726;" d="M380.095,398.235c-0.269,0-0.536-0.107-0.736-0.317l-10.644-11.247     c-0.384-0.406-0.366-1.049,0.04-1.432c0.408-0.386,1.047-0.364,1.432,0.04l10.644,11.247c0.384,0.406,0.366,1.049-0.04,1.432     C380.596,398.144,380.344,398.235,380.095,398.235z"/>
		</g>
		<g>
			<path style="fill:#241726;" d="M365.809,392.535c-0.556,0-1.007-0.447-1.013-1.003c-0.006-0.56,0.443-1.017,1.003-1.023     l16.397-0.156c0.562-0.003,1.017,0.445,1.023,1.003c0.006,0.56-0.443,1.017-1.003,1.023l-16.397,0.156H365.809z"/>
		</g>
	</g>
	<g>
		<g>
			<path style="fill:#FFFFFF;" d="M316.659,106.648c0,0-1.999-15.174,12.607-10.264c14.606,4.91,9.847,18.803,4.278,14.049     c-5.568-4.754,4.879-20.879,16.056-13.699c11.177,7.18,8.677,21.112,0.749,22.14s4.799-16.222,14.786-5.568     c9.987,10.653-11.818,30.076-20.735,22.935c-8.917-7.141-1.939-18.667,0.2-11.642c2.139,7.024-3.63,13.913-19.445,13.64     s-8.617-24.605-3.089-17.522c5.528,7.083-3.65,15.077-14.806,6.733C296.104,119.105,308.831,101.855,316.659,106.648z"/>
		</g>
		<g>
			<path style="fill:#241726;" d="M326.054,139.259l-0.917-0.008c-5.183-0.089-8.832-2.745-10.118-7.322     c-2.727-0.344-5.603-1.603-8.364-3.669c-4.372-3.27-5.853-8.233-4.063-13.617c2.178-6.128,7.569-10.917,12.96-9.581     c-0.019-2.112,0.307-5.707,2.448-8.148c2.394-2.728,6.333-3.256,11.588-1.491c2.027,0.682,3.802,1.566,5.292,2.636     c4.221-4.47,10.199-5.52,15.267-2.179c4.831,3.104,7.763,7.876,8.003,12.929c2.835,0.08,5.432,1.358,7.724,3.803     c3.109,3.317,3.683,7.773,1.613,12.549c-3.146,7.262-11.736,13.631-18.383,13.631c-2.082,0.001-3.878-0.593-5.338-1.762     c-0.697-0.558-1.327-1.162-1.883-1.803C338.392,137.868,332.952,139.259,326.054,139.259z M317.168,132.008     c0.902,2.557,3.046,5.132,8.005,5.217l0.881,0.008c7.953,0,12.296-1.866,14.628-3.637c-2.227-3.603-2.056-7.54-0.817-9.98     c1.52-2.847,4.341-3.401,5.706,0.686c1.07,3.519,0.276,6.958-2.176,9.574c0.48,0.557,1.029,1.084,1.639,1.573     c1.092,0.873,2.461,1.318,4.071,1.317c5.834,0,13.71-5.915,16.524-12.41c1.223-2.822,2.001-6.909-1.233-10.359     c-1.904-2.031-4.021-3.094-6.295-3.163c-0.477,4.852-3.513,8.512-7.622,9.044c-2.667,0.354-3.571-1.051-3.623-2.348     c-0.116-2.858,4.004-7.661,9.274-8.573c-0.192-4.416-2.788-8.616-7.077-11.371c-4.218-2.709-9.052-1.908-12.606,1.767     c3.45,3.283,4.092,7.323,3.13,10.019c-0.672,1.88-2.11,3.049-3.755,3.05h-0.001c-0.986,0-2.001-0.421-2.935-1.219     c-3.072-2.624-2.079-7.748,0.696-11.581c-1.302-0.914-2.858-1.679-4.639-2.277c-4.418-1.485-7.578-1.194-9.421,0.905     c-2.533,2.89-1.867,8.212-1.86,8.266c0.051,0.388-0.125,0.77-0.452,0.982c-0.329,0.213-0.748,0.219-1.081,0.014     c-4.663-2.419-9.644,2.379-11.616,7.771c-0.708,2.131-1.8,7.501,3.353,11.356c2.252,1.685,4.558,2.768,6.742,3.177     c-0.449-3.93,0.754-7.76,2.339-9.728c1.876-2.098,3.783-2.47,5.916,0.005c1.965,2.516,2.411,5.354,1.224,7.786     C322.919,130.277,320.3,131.824,317.168,132.008z M342.717,123.423c-0.186,0-0.635,0.302-1.046,1.11     c-0.907,1.785-1.055,4.813,0.527,7.643c1.743-2.044,2.254-4.59,1.433-7.284C343.307,123.823,342.898,123.423,342.717,123.423z      M319.931,120.437c-0.427,0-0.926,0.327-1.406,0.922c-1.35,1.676-2.34,5.258-1.848,8.64c2.567-0.041,4.701-1.186,5.591-3.009     c0.834-1.708,0.469-3.769-1-5.651C320.947,120.927,320.455,120.437,319.931,120.437z M356.039,111.037     c-4.248,0.944-7.222,4.844-7.159,6.412c-0.118,0.42,0.752,0.533,1.338,0.421C353.259,117.475,355.539,114.735,356.039,111.037z      M335.147,100.911c-2.395,3.336-2.854,7.121-0.945,8.75c1.441,1.234,2.843,0.779,3.467-0.971     C338.397,106.65,337.856,103.547,335.147,100.911z"/>
		</g>
	</g>
	<g>
		<g>
			<path style="fill:#FFFFFF;" d="M14.81,345.696c0,0-1.999-15.174,12.607-10.264s9.847,18.803,4.278,14.049     c-5.568-4.754,4.879-20.879,16.056-13.699s8.677,21.112,0.749,22.14c-7.928,1.028,4.799-16.222,14.786-5.568     s-11.818,30.076-20.735,22.935s-1.939-18.667,0.2-11.642c2.139,7.024-3.63,13.913-19.445,13.64s-8.617-24.605-3.089-17.522     c5.528,7.083-3.65,15.077-14.806,6.733S6.982,340.903,14.81,345.696z"/>
		</g>
		<g>
			<path style="fill:#241726;" d="M24.205,378.307l-0.917-0.008c-5.183-0.089-8.832-2.745-10.118-7.322     c-2.727-0.344-5.603-1.603-8.364-3.669c-4.372-3.27-5.853-8.233-4.063-13.617c2.178-6.128,7.57-10.917,12.96-9.581     c-0.019-2.112,0.307-5.707,2.448-8.148c2.394-2.728,6.331-3.256,11.588-1.491c2.027,0.682,3.802,1.566,5.292,2.636     c4.221-4.47,10.199-5.52,15.267-2.179c4.831,3.104,7.763,7.876,8.003,12.929c2.835,0.08,5.432,1.358,7.723,3.803     c3.109,3.317,3.683,7.773,1.613,12.549c-3.146,7.262-11.736,13.631-18.383,13.631c-2.082,0.001-3.878-0.593-5.338-1.762     c-0.697-0.558-1.327-1.162-1.883-1.803C36.543,376.916,31.103,378.307,24.205,378.307z M15.318,371.056     c0.902,2.557,3.046,5.132,8.005,5.217l0.881,0.008c7.953,0,12.296-1.866,14.628-3.637c-2.227-3.603-2.056-7.54-0.817-9.98     c1.52-2.847,4.341-3.401,5.706,0.686c1.07,3.518,0.276,6.958-2.176,9.574c0.48,0.557,1.029,1.084,1.639,1.573     c1.092,0.873,2.461,1.318,4.071,1.317c5.834,0,13.71-5.915,16.524-12.41c1.223-2.822,2.001-6.909-1.233-10.359     c-1.904-2.031-4.021-3.094-6.295-3.163c-0.477,4.852-3.513,8.512-7.622,9.044c-2.668,0.357-3.571-1.052-3.623-2.348     c-0.116-2.858,4.004-7.661,9.274-8.573c-0.192-4.416-2.788-8.616-7.077-11.371c-4.218-2.709-9.052-1.908-12.606,1.767     c3.45,3.283,4.092,7.323,3.13,10.019c-0.672,1.88-2.11,3.049-3.755,3.05h-0.001c-0.986,0-2.001-0.421-2.935-1.219     c-3.072-2.624-2.079-7.748,0.696-11.581c-1.302-0.914-2.858-1.679-4.639-2.277c-4.418-1.487-7.578-1.195-9.421,0.905     c-2.533,2.89-1.867,8.212-1.86,8.266c0.051,0.388-0.125,0.77-0.452,0.982c-0.328,0.214-0.747,0.218-1.081,0.014     c-4.663-2.419-9.644,2.379-11.616,7.771c-0.708,2.131-1.8,7.501,3.353,11.356c2.252,1.685,4.558,2.768,6.742,3.177     c-0.449-3.93,0.754-7.76,2.339-9.728c1.876-2.098,3.783-2.47,5.916,0.005c1.965,2.516,2.411,5.354,1.224,7.786     C21.07,369.325,18.451,370.872,15.318,371.056z M40.868,362.471c-0.186,0-0.635,0.302-1.046,1.11     c-0.907,1.785-1.055,4.813,0.527,7.643c1.743-2.044,2.254-4.59,1.433-7.284C41.457,362.871,41.049,362.471,40.868,362.471z      M18.082,359.485c-0.427,0-0.926,0.327-1.406,0.922c-1.35,1.676-2.34,5.258-1.848,8.64c2.567-0.041,4.701-1.186,5.591-3.009     c0.834-1.708,0.469-3.769-1-5.651C19.098,359.976,18.605,359.485,18.082,359.485z M54.19,350.085     c-4.248,0.944-7.222,4.844-7.159,6.412c-0.118,0.42,0.752,0.533,1.338,0.421C51.41,356.523,53.69,353.783,54.19,350.085z      M33.298,339.96c-2.395,3.337-2.854,7.121-0.945,8.75c1.441,1.233,2.843,0.78,3.467-0.971     C36.548,345.698,36.007,342.596,33.298,339.96z"/>
		</g>
	</g>
	<g>
		<path style="fill:#241726;" d="M51.932,166.983h-0.03c-3.862-0.016-6.99-3.171-6.974-7.035c0.016-3.846,3.157-6.974,7.003-6.974    c3.798-0.064,7.091,3.251,7.005,7.033C58.919,163.854,55.776,166.983,51.932,166.983z M51.954,155    c-2.756,0-4.987,2.224-4.999,4.956c-0.012,2.746,2.212,4.989,4.956,5.001l0.022,1.013v-1.013c2.732,0,4.966-2.224,4.98-4.958    c0.006-1.329-0.506-2.582-1.444-3.525C54.531,155.529,53.283,155.006,51.954,155z"/>
	</g>
	<g>
		<path style="fill:#241726;" d="M370.526,347.834h-0.03c-3.862-0.016-6.99-3.171-6.974-7.035c0.016-3.846,3.157-6.974,7.003-6.974    c3.798-0.064,7.091,3.251,7.005,7.033C377.513,344.705,374.37,347.834,370.526,347.834z M370.548,335.852    c-2.756,0-4.987,2.224-4.999,4.956c-0.012,2.746,2.212,4.989,4.956,5.001l0.022,1.013v-1.013c2.732,0,4.966-2.224,4.98-4.958    c0.006-1.329-0.506-2.582-1.444-3.525C373.125,336.38,371.877,335.858,370.548,335.852z"/>
	</g>
	<g>
		<path style="fill:#241726;" d="M126.888,460.729h-0.03c-3.862-0.016-6.99-3.171-6.974-7.035c0.016-3.846,3.157-6.974,7.003-6.974    c3.798-0.064,7.091,3.251,7.005,7.033C133.875,457.599,130.732,460.729,126.888,460.729z M126.909,448.746    c-2.756,0-4.987,2.224-4.999,4.956c-0.012,2.746,2.212,4.989,4.956,5.001l0.022,1.013v-1.013c2.732,0,4.966-2.224,4.98-4.958    c0.006-1.329-0.506-2.582-1.444-3.525C129.487,449.275,128.239,448.752,126.909,448.746z"/>
	</g>
	<g>
		<path style="fill:#241726;" d="M229.968,225.419c-0.275,0-0.55-0.112-0.75-0.331c-5.496-6.046-3.749-23.179-3.672-23.905    c0.057-0.557,0.539-0.96,1.114-0.9c0.556,0.058,0.96,0.558,0.9,1.114c-0.018,0.169-1.73,16.953,3.157,22.329    c0.376,0.414,0.345,1.054-0.068,1.431C230.455,225.332,230.211,225.419,229.968,225.419z"/>
	</g>
	<g>
		<g>
			<g>
				<path style="fill:#B1739A;" d="M82.195,152.348c0,0,80.089-1.384,83.786,1.384c3.696,2.768,3.696,250.473-2.464,251.857      c-6.161,1.384-80.089,8.303-82.554,0C78.498,397.286,74.802,149.58,82.195,152.348z"/>
			</g>
			<g>
				<path style="fill:#241726;" d="M116.391,366.929c-14.735,0-16.396-1.661-16.942-2.207c-4.208-4.208-4.152-160.771,0.061-170.941      c0.344-0.821,0.838-1.221,1.507-1.175c1.944-0.177,26.983-2.44,40.109-2.44c6.272,0,7.789,0.503,8.445,0.995      c4.05,3.038,1.549,146.724-2.94,168.949c-0.656,3.246-1.324,4.614-2.384,4.878C140.185,366.004,126.907,366.929,116.391,366.929      z M101.343,194.611c-1.72,3.853-2.887,38.124-2.853,84.327c0.034,43.962,1.148,81.854,2.484,84.47      c0.177,0.15,2.191,1.495,15.416,1.495c11.359,0,23.816-0.992,27.366-1.879c1.834-1.857,4.355-28.917,5.44-84.99      c0.901-46.57,0.217-81.895-0.967-85.313C137.508,190.897,104.336,194.541,101.343,194.611z"/>
			</g>
			<g>
				<path style="fill:#241726;" d="M80.315,176.442c-0.55,0-1.002-0.44-1.013-0.992c-0.011-0.56,0.433-1.022,0.992-1.034      l81.882-1.654c0.562,0.028,1.023,0.433,1.034,0.992c0.011,0.56-0.433,1.022-0.992,1.034l-81.882,1.654      C80.329,176.442,80.322,176.442,80.315,176.442z"/>
			</g>
			<g>
				<path style="fill:#241726;" d="M163.024,164.863c-0.006,0-0.013,0-0.02,0l-83.536-1.654c-0.56-0.011-1.004-0.474-0.993-1.033      c0.01-0.56,0.476-1.004,1.033-0.993l83.536,1.654c0.56,0.011,1.004,0.474,0.993,1.033      C164.026,164.422,163.574,164.863,163.024,164.863z"/>
			</g>
			<g>
				<path style="fill:#241726;" d="M81.969,381.56c-0.55,0-1.001-0.439-1.013-0.991c-0.012-0.56,0.432-1.023,0.991-1.035      l78.573-1.654c0.627,0.009,1.023,0.433,1.035,0.991c0.012,0.56-0.432,1.023-0.991,1.035l-78.573,1.654      C81.983,381.56,81.976,381.56,81.969,381.56z"/>
			</g>
			<g>
				<path style="fill:#241726;" d="M81.968,394.795c-0.544,0-0.994-0.433-1.012-0.981c-0.017-0.56,0.422-1.027,0.981-1.045      l80.228-2.482c0.548-0.006,1.026,0.421,1.045,0.981c0.017,0.56-0.422,1.027-0.981,1.045l-80.228,2.482      C81.99,394.795,81.979,394.795,81.968,394.795z"/>
			</g>
			<g>
				<path style="fill:#241726;" d="M120.843,350.131c-0.272,0-0.543-0.109-0.742-0.323c-0.296-0.319-7.233-7.861-6.504-13.353      c0.371-4.358,7.953-6.188,9.161-9.245c0.7-1.21,1.115-2.928-1.12-6.503c-0.443-0.708-0.895-1.407-1.342-2.098      c-3.706-5.727-7.539-11.65-1.871-18.129c2.348-2.684,4.675-3.817,6.543-4.728c2.769-1.35,4.032-1.966,3.149-6.83      c-0.678-3.722-4.397-7.994-7.679-11.762c-3.56-4.087-6.634-7.617-6.199-10.536c0.165-1.113,0.815-2.03,1.931-2.727      c1.089-0.681,2.155-1.318,3.178-1.927c9.55-5.601,11.765-8.052,3.778-15.856c-4.106-4.474-8.76-9.545-6.498-14.068      c1.78-3.558,5.438-5.328,8.667-6.889c3.101-1.5,5.779-2.795,6.124-5.208c0.616-4.313-5.529-10.967-7.95-13.167      c-0.413-0.377-0.444-1.017-0.068-1.431c0.377-0.412,1.02-0.443,1.431-0.068c0.388,0.353,9.485,8.704,8.593,14.953      c-0.498,3.48-3.777,5.067-7.249,6.745c-3.08,1.49-6.266,3.03-7.736,5.971c-1.638,3.275,2.514,7.8,6.178,11.792      c9.105,8.659,6.106,13.179-4.233,18.966c-1.011,0.602-2.065,1.232-3.142,1.904c-0.797,0.499-0.954,0.985-1.002,1.309      c-0.297,1.994,2.764,5.509,5.723,8.907c3.454,3.966,7.368,8.459,8.144,12.731c1.103,6.067-0.897,7.377-4.253,9.012      c-9.632,4.713-10.571,10.824-3.859,19.937c0.452,0.699,0.91,1.407,1.358,2.124c2.171,3.473,2.538,6.203,1.155,8.592      c-1.26,2.176-3.806,3.875-7.266,6.037c-0.963,0.602-1.5,1.407-1.639,2.459c-0.502,3.782,4.147,9.733,5.98,11.708      c0.381,0.411,0.357,1.052-0.052,1.431C121.337,350.041,121.09,350.131,120.843,350.131z"/>
			</g>
		</g>
		<g>
			<g>
				<path style="fill:#E2B700;" d="M252.231,150.967c0,0,80.089-1.399,83.786,1.399c3.696,2.797,3.696,253.164-2.464,254.563      c-6.161,1.399-80.089,8.392-82.554,0C248.534,398.537,244.838,148.17,252.231,150.967z"/>
			</g>
			<g>
				<path style="fill:#241726;" d="M254.004,171.48c-0.55,0-1.001-0.44-1.013-0.992c-0.011-0.559,0.432-1.022,0.992-1.034      l80.228-1.655c0.611,0.057,1.022,0.433,1.034,0.992c0.011,0.559-0.432,1.022-0.992,1.034l-80.228,1.655      C254.018,171.48,254.011,171.48,254.004,171.48z"/>
			</g>
			<g>
				<path style="fill:#241726;" d="M335.886,389.832c-0.006,0-0.013,0-0.02,0l-85.19-1.655c-0.559-0.011-1.004-0.473-0.993-1.033      c0.011-0.559,0.39-1.053,1.033-0.993l85.19,1.655c0.559,0.011,1.004,0.473,0.993,1.033      C336.888,389.392,336.437,389.832,335.886,389.832z"/>
			</g>
			<g>
				<path style="fill:#241726;" d="M280.433,370.648c-13.612,0-13.938-1.307-14.177-2.261c-0.833-3.325-3.085-158.696-3.339-176.401      c-0.008-0.535,0.403-0.984,0.937-1.025c0.279-0.021,28.074-2.113,44.143-2.113c10.948,0,12.04,0.888,12.33,2.051      c0.474,1.895,1.34,47.826,1.685,89.356c0.727,87.513-0.973,87.939-2.215,88.248      C317.308,369.126,294.786,370.648,280.433,370.648z M268.197,367.709c8.396,2.419,47.951-0.594,50.7-1.093      c2.447,0.996,0.45-171.856-0.51-175.007c-11.162-2.187-48.294,1.126-53.431,1.302      C265.801,251.698,267.531,361.413,268.197,367.709z"/>
			</g>
			<g>
				<path style="fill:#241726;" d="M281.712,368.534c-0.552,0-1.004-0.442-1.013-0.996l-2.895-174.723      c-0.009-0.559,0.437-1.02,0.996-1.03c0.588,0.003,1.021,0.437,1.03,0.996l2.895,174.723c0.009,0.56-0.437,1.02-0.996,1.03      C281.722,368.534,281.717,368.534,281.712,368.534z"/>
			</g>
			<g>
				<path style="fill:#241726;" d="M304.663,367.294c-0.555,0-1.007-0.446-1.013-1.002l-1.861-175.964      c-0.006-0.56,0.443-1.018,1.002-1.024c0.559-0.006,1.018,0.442,1.024,1.002l1.861,175.964c0.006,0.56-0.443,1.018-1.002,1.024      C304.67,367.294,304.666,367.294,304.663,367.294z"/>
			</g>
		</g>
		<g>
			<g>
				<path style="fill:#E17B8D;" d="M336.883,179.037c0,0,67.164-38.16,69.495-34.36c5.511,8.984,110.406,214.078,105.452,218.527      c-4.954,4.449-67.16,44.102-72.716,37.958C433.559,395.018,329.151,180.414,336.883,179.037z"/>
			</g>
			<g>
				<path style="fill:#241726;" d="M343.689,203.769c-0.368,0-0.722-0.201-0.902-0.55c-0.255-0.498-0.059-1.108,0.438-1.364      l72.661-37.375c0.495-0.256,1.107-0.059,1.364,0.438c0.255,0.498,0.059,1.108-0.438,1.364l-72.661,37.375      C344.004,203.733,343.845,203.769,343.689,203.769z"/>
			</g>
			<g>
				<path style="fill:#241726;" d="M432.179,385.03c-0.359,0-0.707-0.191-0.891-0.529c-0.267-0.492-0.085-1.107,0.407-1.374      l74.572-40.542c0.491-0.264,1.106-0.086,1.375,0.407c0.267,0.492,0.085,1.107-0.406,1.374l-74.574,40.542      C432.509,384.991,432.342,385.03,432.179,385.03z"/>
			</g>
			<g>
				<path style="fill:#241726;" d="M431.499,351.788c-0.115,0-0.229-0.02-0.339-0.058c-0.254-0.091-0.461-0.278-0.576-0.52      l-65.38-137.942c-0.224-0.471-0.053-1.035,0.394-1.303c3.85-2.25,36.396-21.909,42.142-21.734      c1.284,0.102,3.673,0.292,37.027,69.821c16.365,34.114,32.33,68.623,32.49,68.967c0.233,0.504,0.018,1.102-0.484,1.34      l-44.838,21.331C431.796,351.756,431.648,351.788,431.499,351.788z M367.428,213.23l64.552,136.195l43.017-20.465      c-24.749-53.49-62.676-132.995-67.548-136.705C403.315,192.517,381.653,204.712,367.428,213.23z"/>
			</g>
			<g>
				<path style="fill:#241726;" d="M454.508,328.804c-0.251,0.001-0.504-0.093-0.699-0.281c-0.405-0.385-0.418-1.026-0.034-1.43      c0.038-0.041,3.803-4.079,4.377-11.306c0.301-3.788-3.073-5.274-8.255-7.111c-2.872-1.017-5.583-1.978-7.236-3.716      c-2.387-2.512-0.85-6.006,0.637-9.384c1.512-3.438,3.077-6.992,1.359-10.063c-1.808-3.234-5.089-4.122-8.562-5.062      c-3.194-0.865-6.497-1.759-8.527-4.621c-2.476-3.489-0.995-7.645,0.436-11.665c1.046-2.937,2.127-5.973,1.594-8.606      c-0.593-2.927-3.736-3.957-7.377-5.149c-3.386-1.11-7.223-2.367-9.497-5.52c-2.476-3.436-1.658-7.568-0.866-11.563      c0.766-3.863,1.489-7.511-0.498-10.589c-3.996-6.191-13.934-4.643-14.034-4.626c-0.554,0.096-1.071-0.283-1.163-0.837      c-0.09-0.552,0.284-1.072,0.837-1.163c0.46-0.075,11.353-1.767,16.062,5.529c2.431,3.766,1.594,7.994,0.783,12.081      c-2.348,8.873,0.701,12.429,9.006,14.763c3.886,1.273,7.905,2.59,8.732,6.673c0.644,3.184-0.533,6.49-1.672,9.687      c-1.316,3.695-2.558,7.183-0.692,9.815c1.609,2.268,4.424,3.03,7.404,3.837c3.551,0.961,7.576,2.051,9.802,6.028      c2.21,3.952,0.359,8.157-1.273,11.867c-1.544,3.509-2.384,5.742-1.024,7.174c1.319,1.386,3.808,2.269,6.444,3.203      c4.707,1.669,10.044,3.56,9.598,9.181c-0.635,7.986-4.759,12.365-4.934,12.547C455.039,328.7,454.774,328.804,454.508,328.804z"/>
			</g>
			<g>
				<path style="fill:#241726;" d="M439.163,335.802c-0.251,0.001-0.503-0.093-0.699-0.281c-0.405-0.385-0.418-1.026-0.034-1.43      c0.038-0.041,3.803-4.079,4.377-11.306c0.301-3.788-3.073-5.275-8.255-7.111c-2.872-1.017-5.583-1.978-7.236-3.716      c-2.387-2.512-0.85-6.006,0.637-9.384c1.512-3.438,3.077-6.992,1.359-10.063c-1.808-3.234-5.089-4.122-8.562-5.062      c-3.194-0.865-6.497-1.759-8.527-4.621c-2.476-3.489-0.995-7.645,0.436-11.665c1.046-2.937,2.127-5.973,1.594-8.606      c-0.593-2.926-3.736-3.957-7.376-5.149c-3.386-1.11-7.224-2.367-9.498-5.521c-2.477-3.435-1.658-7.567-0.866-11.563      c0.766-3.863,1.489-7.511-0.498-10.588c-3.996-6.19-13.935-4.643-14.033-4.626c-0.546,0.095-1.072-0.284-1.164-0.836      c-0.09-0.553,0.284-1.073,0.836-1.164c0.466-0.072,11.357-1.766,16.063,5.529c2.431,3.766,1.594,7.993,0.783,12.08      c-0.741,3.735-1.44,7.264,0.522,9.985c1.887,2.618,5.242,3.717,8.485,4.78c3.885,1.274,7.904,2.59,8.731,6.673      c0.644,3.184-0.533,6.49-1.672,9.687c-1.316,3.695-2.558,7.183-0.692,9.815c1.609,2.268,4.424,3.03,7.404,3.837      c3.551,0.961,7.576,2.051,9.802,6.028c2.21,3.952,0.359,8.157-1.273,11.867c-1.544,3.509-2.384,5.742-1.024,7.173      c1.319,1.386,3.808,2.268,6.444,3.203c4.707,1.668,10.044,3.559,9.598,9.181c-0.635,7.986-4.759,12.365-4.934,12.547      C439.694,335.698,439.429,335.802,439.163,335.802z"/>
			</g>
			<g>
				<path style="fill:#241726;" d="M340.614,190.25c-0.37,0-0.726-0.203-0.905-0.556c-0.252-0.499-0.052-1.108,0.447-1.361      l70.881-35.857c0.499-0.256,1.106-0.054,1.361,0.447c0.252,0.499,0.052,1.108-0.447,1.361l-70.881,35.857      C340.924,190.215,340.767,190.25,340.614,190.25z"/>
			</g>
			<g>
				<path style="fill:#241726;" d="M423.202,372.701c-0.362,0-0.712-0.195-0.895-0.536c-0.263-0.494-0.076-1.108,0.417-1.371      l74.507-39.717c0.489-0.259,1.106-0.076,1.371,0.417c0.263,0.494,0.075,1.108-0.417,1.371l-74.507,39.717      C423.526,372.663,423.363,372.701,423.202,372.701z"/>
			</g>
		</g>
		<g>
			<g>
				<g>
					<path style="fill:#52AFA6;" d="M165.981,115.036c0,0,80.089-1.592,83.786,1.592c3.696,3.184,3.696,288.148-2.464,289.74       c-6.161,1.592-80.089,9.552-82.554,0C162.284,396.816,158.588,111.852,165.981,115.036z"/>
				</g>
				<g>
					<path style="fill:#241726;" d="M163.024,137.569c-0.551,0-1.002-0.44-1.013-0.993c-0.011-0.559,0.433-1.022,0.993-1.033       l84.363-1.654c0.558-0.011,1.022,0.433,1.033,0.993c0.011,0.559-0.433,1.022-0.993,1.033l-84.363,1.654       C163.037,137.569,163.03,137.569,163.024,137.569z"/>
				</g>
				<g>
					<path style="fill:#241726;" d="M163.851,155.765c-0.555,0-1.007-0.447-1.013-1.003c-0.006-0.559,0.443-1.017,1.003-1.023       l83.536-0.827c0.558-0.006,1.017,0.444,1.023,1.003c0.006,0.559-0.443,1.017-1.003,1.023l-83.536,0.827       C163.858,155.765,163.854,155.765,163.851,155.765z"/>
				</g>
				<g>
					<path style="fill:#241726;" d="M163.85,395.622c-0.541,0-0.99-0.428-1.011-0.974c-0.022-0.559,0.414-1.03,0.973-1.051       l86.018-3.309c0.53-0.028,1.03,0.413,1.051,0.973c0.022,0.559-0.414,1.03-0.973,1.051l-86.018,3.309       C163.877,395.622,163.864,395.622,163.85,395.622z"/>
				</g>
				<g>
					<path style="fill:#241726;" d="M163.023,375.771c-0.545,0-0.995-0.434-1.012-0.983c-0.016-0.56,0.424-1.026,0.983-1.043       l85.19-2.481c0.543,0.041,1.026,0.423,1.043,0.983c0.016,0.56-0.424,1.026-0.983,1.043l-85.19,2.481       C163.044,375.771,163.034,375.771,163.023,375.771z"/>
				</g>
				<g>
					<path style="fill:#241726;" d="M194.188,356.689c-16.483,0-16.851-1.416-17.094-2.352       c-0.865-3.329-3.978-163.898-4.331-182.195c-0.01-0.546,0.413-1.002,0.959-1.031c0.322-0.018,32.52-1.752,50.936-1.752       c12.18,0,12.964,0.755,13.433,1.206c1.946,1.872,2.242,57.714,2.245,90.835c0.003,26.936-0.211,89.8-2.245,91.758       C235.814,355.347,208.372,356.689,194.188,356.689z M179.029,353.619c7.753,2.823,58.561-0.655,57.558-1.878       c2.324-8.221,2.325-171.457,0.002-179.754c-12.752-1.804-56.23,0.964-61.781,1.094       C175.978,233.766,178.315,346.961,179.029,353.619z"/>
				</g>
				<g>
					<path style="fill:#D55A41;" d="M194.453,114.225c0,0,5.796-14.888,25.743-7.444s1.9,97.597,32.296,105.868l-2.85-22.331       c0,0,8.549,9.925,14.248,10.752c5.699,0.827-10.449-23.159-10.449-47.971c0-19.309,2.716-53.761-28.496-60.378       c-45.311-9.606-50.343,22.331-50.343,22.331L194.453,114.225z"/>
				</g>
				<g>
					<path style="fill:#241726;" d="M225.089,329.454c-0.131,0-0.262-0.026-0.387-0.076l-38.079-15.714       c-0.882-0.331-0.791-1.704,0.127-1.916l37.286-9.925c0.294-0.081,0.616-0.018,0.865,0.167c0.248,0.184,0.399,0.472,0.409,0.78       l0.784,25.357c0.032,0.099,0.049,0.205,0.049,0.315c0.001,0.567-0.431,1.054-1.034,1.013       C225.103,329.454,225.096,329.454,225.089,329.454z M190.168,312.934l33.861,13.973l-0.706-22.8L190.168,312.934z"/>
				</g>
				<g>
					<path style="fill:#241726;" d="M225.089,216.969c-0.131,0-0.262-0.026-0.387-0.076l-38.079-15.714       c-0.882-0.331-0.791-1.704,0.127-1.916l37.286-9.925c0.294-0.08,0.616-0.018,0.865,0.167c0.248,0.184,0.399,0.472,0.409,0.78       l0.784,25.357c0.032,0.099,0.049,0.205,0.049,0.315c0.001,0.568-0.431,1.024-1.034,1.013       C225.103,216.969,225.096,216.969,225.089,216.969z M190.168,200.45l33.861,13.973l-0.706-22.8L190.168,200.45z"/>
				</g>
				<g>
					<path style="fill:#241726;" d="M225.089,270.73c-0.131,0-0.262-0.026-0.387-0.076l-38.079-15.714       c-0.882-0.331-0.791-1.704,0.127-1.916l37.286-9.925c0.294-0.079,0.616-0.019,0.865,0.167c0.248,0.184,0.399,0.472,0.409,0.78       l0.784,25.357c0.032,0.099,0.049,0.205,0.049,0.315c0.001,0.568-0.431,1.014-1.034,1.013       C225.103,270.73,225.096,270.73,225.089,270.73z M190.168,254.211l33.861,13.973l-0.706-22.8L190.168,254.211z"/>
				</g>
				<g>
					<path style="fill:#241726;" d="M187.01,301.333c-0.217,0-0.43-0.069-0.607-0.202c-0.262-0.197-0.413-0.507-0.406-0.836       l0.793-33.084c0.009-0.352,0.2-0.676,0.505-0.852c0.308-0.178,0.68-0.182,0.991-0.014l38.079,20.678       c0.356,0.194,0.563,0.582,0.524,0.985c-0.038,0.405-0.314,0.747-0.7,0.87l-38.873,12.406       C187.217,301.317,187.113,301.333,187.01,301.333z M188.776,268.917l-0.72,30.006l35.256-11.252L188.776,268.917z"/>
				</g>
				<g>
					<path style="fill:#241726;" d="M187.01,245.091c-0.217,0-0.43-0.069-0.607-0.202c-0.262-0.197-0.413-0.507-0.406-0.836       l0.793-33.084c0.009-0.352,0.2-0.676,0.505-0.852c0.308-0.178,0.68-0.182,0.991-0.014l38.079,20.678       c0.356,0.194,0.563,0.582,0.524,0.985c-0.038,0.405-0.314,0.747-0.7,0.87l-38.873,12.406       C187.217,245.075,187.113,245.091,187.01,245.091z M188.776,212.674l-0.72,30.006l35.256-11.252L188.776,212.674z"/>
				</g>
			</g>
			<g>
				<path style="fill:#241726;" d="M184.527,111.102c-0.23,0-0.463-0.079-0.654-0.239c-0.426-0.362-0.48-1.001-0.119-1.428      c0.386-0.454,9.626-11.094,25.64-10.282c0.559,0.03,0.987,0.506,0.959,1.065c-0.03,0.558-0.496,0.987-1.065,0.959      c-15.027-0.797-23.899,9.463-23.987,9.566C185.101,110.98,184.815,111.102,184.527,111.102z"/>
			</g>
			<g>
				<path style="fill:#241726;" d="M245.734,132.607c-0.022,0-0.043-0.001-0.064-0.002c-0.558-0.035-0.982-0.515-0.948-1.074      c0.783-12.539-11.082-22.209-11.201-22.305c-1.037-0.807,0.253-2.416,1.266-1.582c0.523,0.419,12.807,10.411,11.957,24.013      C246.711,132.194,246.264,132.607,245.734,132.607z"/>
			</g>
		</g>
	</g>
	<g>
		<path style="fill:#241726;" d="M195.059,91.325c-0.768,0-1.655-0.411-2.71-1.257c-0.437-0.349-0.507-0.987-0.157-1.423    c0.349-0.437,0.987-0.508,1.423-0.157c0.75,0.6,1.169,0.757,1.346,0.798c0.001-0.046,0.015-0.122,0.022-0.229    c0.039-0.557,0.503-0.971,1.08-0.942c0.558,0.039,0.979,0.521,0.942,1.08C196.898,90.765,195.929,91.325,195.059,91.325z     M249.164,87.816c-0.017,0-0.21-0.004-0.227-0.005c-0.559-0.028-0.99-0.503-0.962-1.061c0.028-0.56,0.511-1.006,1.061-0.962    c0.829-0.008,1.463-0.183,1.659-1.525c0.079-0.553,0.594-0.943,1.148-0.856c0.553,0.08,0.937,0.594,0.856,1.148    C252.397,86.626,251.108,87.815,249.164,87.816z M190.317,87.276c-0.354,0-0.698-0.186-0.884-0.517    c-0.677-1.206-1.142-2.607-1.385-4.166c-0.086-0.553,0.293-1.07,0.846-1.156c0.552-0.083,1.07,0.293,1.156,0.846    c0.205,1.319,0.592,2.492,1.149,3.486c0.274,0.488,0.1,1.105-0.388,1.379C190.655,87.234,190.485,87.276,190.317,87.276z     M139.065,87.135c-0.07,0-0.142-0.008-0.214-0.023c-0.547-0.118-0.895-0.656-0.777-1.203c0.014-0.066,0.361-1.665,1.206-4.027    c0.188-0.527,0.77-0.801,1.295-0.612c0.526,0.188,0.801,0.768,0.612,1.295c-0.795,2.225-1.13,3.755-1.133,3.77    C139.953,86.81,139.532,87.135,139.065,87.135z M245.198,86.486c-0.186,0-0.375-0.051-0.543-0.158    c-1.344-0.857-2.36-2.007-3.018-3.419c-0.236-0.507-0.017-1.11,0.49-1.346c0.507-0.234,1.109-0.017,1.346,0.49    c0.493,1.057,1.256,1.92,2.27,2.566c0.472,0.301,0.61,0.927,0.311,1.399C245.86,86.321,245.532,86.486,245.198,86.486z     M195.069,86.221c-0.399,0-0.777-0.236-0.937-0.628c-0.452-1.1-1.048-2.269-1.77-3.475c-0.288-0.48-0.132-1.102,0.348-1.389    c0.479-0.288,1.102-0.132,1.389,0.348c0.775,1.292,1.416,2.552,1.906,3.746c0.213,0.517-0.035,1.109-0.552,1.322    C195.328,86.196,195.197,86.221,195.069,86.221z M251.305,81.413c-0.451,0-0.863-0.304-0.98-0.761    c-0.29-1.129-0.72-2.369-1.279-3.686c-0.219-0.515,0.023-1.11,0.537-1.328c0.515-0.217,1.109,0.022,1.328,0.537    c0.597,1.41,1.06,2.746,1.376,3.973c0.139,0.542-0.187,1.094-0.729,1.234C251.474,81.403,251.389,81.413,251.305,81.413z     M303.139,79.557c-0.537,0-0.984-0.422-1.011-0.964c-0.063-1.311-0.187-2.64-0.369-3.95c-0.077-0.554,0.31-1.065,0.864-1.143    c0.553-0.088,1.065,0.31,1.143,0.864c0.191,1.37,0.32,2.76,0.387,4.132c0.027,0.559-0.405,1.034-0.963,1.06    C303.173,79.557,303.156,79.557,303.139,79.557z M241.769,79.554c-0.002,0-0.004,0-0.006,0c-0.56-0.004-1.011-0.46-1.007-1.019    c0.008-1.329,0.223-2.762,0.636-4.258c0.149-0.539,0.716-0.853,1.246-0.706c0.539,0.149,0.856,0.707,0.706,1.246    c-0.366,1.325-0.556,2.58-0.563,3.73C242.778,79.105,242.326,79.554,241.769,79.554z M141.781,79.484    c-0.144,0-0.291-0.031-0.43-0.096c-0.505-0.238-0.723-0.842-0.486-1.348c0.603-1.282,1.263-2.517,1.963-3.672    c0.29-0.479,0.915-0.628,1.392-0.341c0.478,0.29,0.631,0.913,0.341,1.392c-0.663,1.093-1.289,2.265-1.862,3.484    C142.526,79.269,142.162,79.484,141.781,79.484z M188.926,79.41c-0.026,0-0.052-0.001-0.078-0.003    c-0.558-0.043-0.975-0.529-0.933-1.087c0.047-0.617,0.122-1.247,0.222-1.888c-0.177-0.199-0.357-0.396-0.539-0.591    c-0.382-0.409-0.359-1.05,0.05-1.431c0.261-0.243,0.621-0.32,0.942-0.24c0.001-0.003,0.001-0.005,0.002-0.008    c0.133-0.543,0.682-0.878,1.224-0.745c0.543,0.133,0.877,0.68,0.745,1.224c-0.097,0.399-0.184,0.794-0.26,1.187    c0.506,0.593,0.994,1.197,1.458,1.807c0.338,0.445,0.252,1.081-0.193,1.419c-0.445,0.339-1.082,0.252-1.419-0.193    c-0.073-0.097-0.148-0.194-0.223-0.29C189.839,79.053,189.417,79.41,188.926,79.41z M248.212,73.935    c-0.36,0-0.708-0.192-0.892-0.531c-0.606-1.121-1.283-2.262-2.011-3.394c-0.211,0.395-0.409,0.789-0.594,1.182    c-0.544,1.198-2.412,0.313-1.832-0.867c0.576-1.216,1.263-2.444,2.043-3.651c0.304-0.471,0.931-0.605,1.4-0.302    c0.471,0.303,0.605,0.93,0.302,1.4c-0.139,0.217-0.276,0.434-0.41,0.652c0.307,0.023,0.598,0.183,0.777,0.461    c0.763,1.183,1.472,2.379,2.108,3.555c0.266,0.492,0.083,1.106-0.41,1.373C248.54,73.896,248.374,73.935,248.212,73.935z     M185.432,73.339c-0.238,0-0.477-0.083-0.67-0.253c-0.99-0.871-2.029-1.698-3.089-2.457c-0.455-0.326-0.56-0.959-0.234-1.414    c0.325-0.453,0.96-0.561,1.414-0.234c1.115,0.798,2.209,1.669,3.249,2.586c0.419,0.369,0.46,1.009,0.09,1.429    C185.992,73.223,185.712,73.339,185.432,73.339z M146.002,72.576c-0.221,0-0.443-0.072-0.629-0.22    c-0.438-0.348-0.511-0.985-0.163-1.423c0.894-1.126,1.853-2.165,2.85-3.089c0.409-0.382,1.051-0.356,1.431,0.054    c0.38,0.41,0.356,1.05-0.054,1.431c-0.922,0.855-1.81,1.818-2.64,2.864C146.596,72.445,146.3,72.576,146.002,72.576z     M190.782,71.546c-0.12,0-0.241-0.021-0.359-0.066c-0.523-0.198-0.786-0.783-0.588-1.306c0.483-1.272,1.051-2.552,1.691-3.804    c0.252-0.5,0.861-0.698,1.362-0.442c0.499,0.254,0.696,0.865,0.442,1.362c-0.605,1.188-1.144,2.4-1.601,3.603    C191.575,71.297,191.19,71.546,190.782,71.546z M302.017,71.527c-0.459,0-0.874-0.314-0.984-0.779    c-0.312-1.313-0.685-2.587-1.11-3.785c-0.187-0.526,0.089-1.106,0.616-1.293c0.525-0.186,1.106,0.088,1.293,0.616    c0.449,1.266,0.844,2.61,1.171,3.994c0.13,0.544-0.208,1.09-0.752,1.219C302.174,71.518,302.095,71.527,302.017,71.527z     M178.852,68.633c-0.17,0-0.343-0.043-0.502-0.134c-1.138-0.649-2.323-1.243-3.522-1.766c-0.512-0.224-0.748-0.82-0.524-1.333    c0.223-0.512,0.817-0.75,1.333-0.524c1.266,0.552,2.517,1.179,3.718,1.865c0.486,0.277,0.655,0.896,0.377,1.382    C179.545,68.45,179.204,68.633,178.852,68.633z M151.946,67.124c-0.335,0-0.663-0.166-0.856-0.47    c-0.301-0.472-0.161-1.098,0.312-1.398c1.208-0.768,2.484-1.41,3.792-1.907c0.527-0.201,1.108,0.063,1.307,0.587    c0.199,0.522-0.063,1.108-0.587,1.307C154.522,65.646,153.314,66.688,151.946,67.124z M243.83,67.118    c-0.309,0-0.613-0.14-0.812-0.407c-0.794-1.063-1.633-2.109-2.493-3.108c-0.365-0.424-0.318-1.063,0.107-1.428    c0.42-0.365,1.062-0.318,1.428,0.107c0.89,1.034,1.759,2.117,2.58,3.217c0.335,0.448,0.243,1.083-0.205,1.417    C244.253,67.053,244.041,67.118,243.83,67.118z M171.438,65.407c-0.099,0-0.201-0.015-0.301-0.046    c-0.631-0.196-1.275-0.377-1.931-0.54c-0.64-0.16-1.266-0.295-1.879-0.408c-1.297-0.214-0.923-2.256,0.364-1.992    c0.655,0.119,1.323,0.263,2.006,0.433c0.693,0.173,1.373,0.364,2.042,0.572c0.534,0.166,0.833,0.734,0.667,1.268    C172.271,65.129,171.87,65.407,171.438,65.407z M248.159,64.961c-0.225,0-0.45-0.074-0.638-0.227    c-0.434-0.353-0.5-0.991-0.147-1.425c0.863-1.06,1.798-2.099,2.781-3.086c0.914-0.945,2.377,0.51,1.436,1.428    c-0.935,0.94-1.825,1.928-2.644,2.936C248.745,64.833,248.453,64.961,248.159,64.961z M194.447,64.335    c-0.188,0-0.379-0.052-0.548-0.162c-0.47-0.303-0.605-0.93-0.302-1.4c0.751-1.164,1.568-2.299,2.427-3.372    c0.348-0.435,0.986-0.508,1.423-0.157c0.437,0.349,0.507,0.987,0.157,1.423c-0.816,1.02-1.593,2.098-2.307,3.204    C195.106,64.171,194.78,64.335,194.447,64.335z M159.454,64.266c-0.489,0-0.919-0.354-0.999-0.852    c-0.089-0.552,0.287-1.072,0.839-1.161c1.166-0.188,2.379-0.283,3.603-0.282l0.613,0.007c1.307,0.022,1.279,2.051-0.049,2.026    l-0.565-0.007c-1.087,0.051-2.219,0.086-3.279,0.256C159.562,64.262,159.508,64.266,159.454,64.266z M299.289,63.913    c-0.37,0-0.726-0.203-0.905-0.555c-0.599-1.185-1.276-2.308-2.01-3.336c-0.325-0.455-0.22-1.088,0.235-1.413    c0.456-0.326,1.089-0.22,1.413,0.235c0.794,1.112,1.524,2.323,2.17,3.598c0.252,0.5,0.052,1.109-0.446,1.362    C299.599,63.879,299.443,63.913,299.289,63.913z M238.543,60.978c-0.26,0-0.52-0.1-0.718-0.299    c-0.949-0.954-1.928-1.865-2.911-2.708c-0.424-0.364-0.473-1.004-0.109-1.428c0.364-0.425,1.007-0.471,1.428-0.109    C237.091,57.429,241.505,60.101,238.543,60.978z M253.867,59.221c-0.292,0-0.582-0.126-0.781-0.368    c-0.357-0.431-0.296-1.069,0.136-1.425c1.064-0.88,2.183-1.716,3.325-2.485c0.463-0.313,1.094-0.191,1.406,0.274    c0.313,0.464,0.19,1.093-0.274,1.406c-1.087,0.732-2.152,1.528-3.166,2.366C254.322,59.145,254.094,59.221,253.867,59.221z     M199.518,58.024c-0.259,0-0.518-0.099-0.716-0.297c-0.396-0.395-0.396-1.037,0-1.432c1.002-1.003,2.052-1.936,3.12-2.772    c0.438-0.347,1.076-0.268,1.421,0.173c0.345,0.44,0.268,1.077-0.173,1.421c-1.003,0.786-1.991,1.664-2.936,2.609    C200.036,57.925,199.777,58.024,199.518,58.024z M294.58,57.363c-0.257,0-0.514-0.097-0.712-0.293    c-0.915-0.904-1.918-1.728-2.978-2.446c-0.463-0.314-0.585-0.944-0.271-1.407c0.316-0.464,0.946-0.584,1.407-0.271    c1.164,0.788,2.263,1.691,3.267,2.684c0.398,0.393,0.402,1.035,0.008,1.432C295.102,57.262,294.841,57.363,294.58,57.363z     M232.384,55.716c-0.203,0-0.409-0.061-0.587-0.188c-1.099-0.782-2.218-1.496-3.325-2.121c-0.487-0.276-0.659-0.893-0.384-1.381    c0.276-0.489,0.892-0.655,1.381-0.384c1.167,0.66,2.346,1.412,3.503,2.236c0.456,0.324,0.562,0.957,0.237,1.413    C233.012,55.567,232.701,55.716,232.384,55.716z M260.583,54.711c-0.362,0-0.712-0.195-0.895-0.536    c-0.263-0.494-0.076-1.108,0.417-1.371c1.229-0.654,2.497-1.244,3.769-1.755c0.52-0.211,1.109,0.044,1.317,0.563    c0.209,0.519-0.044,1.109-0.563,1.317c-1.205,0.484-2.406,1.044-3.569,1.664C260.906,54.672,260.743,54.711,260.583,54.711z     M205.898,53.061c-0.35,0-0.69-0.181-0.878-0.506c-0.28-0.484-0.114-1.104,0.371-1.384c1.245-0.719,2.525-1.328,3.804-1.809    c0.525-0.197,1.109,0.067,1.305,0.591c0.198,0.524-0.067,1.108-0.591,1.305c-1.176,0.443-2.355,1.004-3.506,1.669    C206.244,53.017,206.07,53.061,205.898,53.061z M287.92,52.844c-0.137,0-0.275-0.028-0.408-0.086    c-1.153-0.508-2.386-0.934-3.664-1.265c-0.541-0.139-0.867-0.692-0.726-1.234c0.139-0.542,0.692-0.87,1.234-0.726    c1.383,0.358,2.719,0.819,3.973,1.372c0.512,0.226,0.744,0.824,0.518,1.335C288.68,52.619,288.309,52.844,287.92,52.844z     M225.331,51.764c-0.128,0-0.258-0.024-0.384-0.075c-1.031-0.422-2.071-0.777-3.09-1.054c-0.204-0.055-0.406-0.107-0.606-0.155    c-0.545-0.13-0.88-0.676-0.751-1.22c0.131-0.545,0.685-0.873,1.22-0.751c0.223,0.052,0.446,0.11,0.671,0.171    c1.098,0.3,2.217,0.681,3.325,1.134c0.517,0.212,0.766,0.803,0.554,1.322C226.109,51.527,225.73,51.764,225.331,51.764z     M268.088,51.715c-0.445,0-0.854-0.297-0.976-0.748c-0.146-0.54,0.172-1.096,0.712-1.242c1.352-0.367,2.727-0.651,4.087-0.844    c0.55-0.085,1.066,0.306,1.145,0.861c0.078,0.554-0.307,1.067-0.861,1.145c-1.278,0.181-2.57,0.447-3.842,0.792    C268.265,51.704,268.176,51.715,268.088,51.715z M280.13,50.793c-0.038,0-0.076-0.002-0.115-0.006    c-0.408-0.046-0.823-0.087-1.246-0.12c-0.77-0.059-1.534-0.087-2.292-0.087l-0.374,0.003c-0.558,0.009-1.02-0.437-1.029-0.997    c-0.009-0.56,0.438-1.02,0.997-1.029l0.406-0.003c0.809,0,1.625,0.03,2.448,0.093c0.447,0.035,0.886,0.077,1.318,0.126    c0.556,0.063,0.956,0.565,0.892,1.121C281.077,50.411,280.638,50.793,280.13,50.793z M213.446,50.254    c-0.484,0-0.911-0.347-0.997-0.84c-0.096-0.551,0.274-1.075,0.825-1.171c1.403-0.243,2.821-0.349,4.239-0.301    c0.559,0.018,0.997,0.487,0.978,1.046c-0.018,0.56-0.47,1.034-1.046,0.978l-0.589-0.009c-1.075,0.001-2.164,0.096-3.237,0.282    C213.561,50.249,213.503,50.254,213.446,50.254z"/>
	</g>
	<g>
		<path style="fill:#241726;" d="M182.501,459.255c-1.297,0-2.614-0.048-3.932-0.144c-1.318-0.078-1.151-2.127,0.146-2.02    c1.27,0.092,2.54,0.139,3.775,0.139c0.56,0,1.113,0.453,1.113,1.013c0,0.559-0.352,1.012-0.912,1.012v-1.013l-0.186,1.014    C182.505,459.255,182.502,459.255,182.501,459.255z M230.238,459.137l-0.388-0.001c-0.56-0.004-1.009-0.461-1.005-1.021    c0.004-0.56,0.462-1.009,1.021-1.005l0.372,0.001c1.223,0,2.43-0.044,3.592-0.131c0.567-0.039,1.045,0.377,1.085,0.935    c0.042,0.558-0.377,1.044-0.935,1.085C232.769,459.091,231.51,459.137,230.238,459.137z M288.603,459.126    c-0.523,0-0.966-0.403-1.009-0.933c-0.044-0.558,0.373-1.046,0.93-1.09c1.284-0.101,2.547-0.337,3.756-0.701    c0.536-0.158,1.101,0.144,1.262,0.679c0.161,0.535-0.142,1.101-0.679,1.262c-1.346,0.405-2.752,0.668-4.179,0.78    C288.657,459.125,288.63,459.126,288.603,459.126z M186.732,459.068c-0.518,0-0.96-0.396-1.008-0.921    c-0.05-0.558,0.36-1.051,0.917-1.101c1.333-0.121,2.649-0.305,3.912-0.546c0.545-0.099,1.079,0.255,1.185,0.805    c0.105,0.549-0.255,1.08-0.805,1.185c-1.327,0.253-2.709,0.447-4.108,0.574C186.793,459.067,186.762,459.068,186.732,459.068z     M284.562,459.052c-0.038,0-0.075-0.002-0.113-0.006c-0.574-0.064-1.158-0.149-1.754-0.257c-0.792-0.144-1.578-0.312-2.353-0.5    c-1.282-0.29-0.794-2.298,0.477-1.968c0.738,0.178,1.484,0.337,2.238,0.474c0.548,0.1,1.087,0.179,1.615,0.237    c0.556,0.062,0.957,0.563,0.895,1.119C285.51,458.669,285.072,459.052,284.562,459.052z M225.813,458.959    c-0.027,0-0.053-0.001-0.08-0.003c-0.563-0.045-1.132-0.097-1.71-0.157c-0.821-0.086-1.616-0.188-2.388-0.306    c-0.553-0.083-0.933-0.599-0.849-1.153c0.082-0.553,0.588-0.941,1.153-0.849c0.742,0.112,1.506,0.21,2.295,0.294    c0.559,0.058,1.112,0.109,1.657,0.151c0.558,0.044,0.974,0.531,0.931,1.089C226.781,458.556,226.336,458.959,225.813,458.959z     M174.616,458.685c-0.047,0-0.096-0.003-0.144-0.01c-1.393-0.199-2.76-0.454-4.063-0.759c-0.545-0.128-0.883-0.672-0.756-1.217    c0.127-0.544,0.671-0.879,1.217-0.756c1.245,0.291,2.553,0.535,3.888,0.725c0.553,0.079,0.939,0.593,0.86,1.146    C175.546,458.32,175.113,458.685,174.616,458.685z M237.922,458.518c-0.485,0-0.914-0.349-0.998-0.844    c-0.093-0.551,0.278-1.074,0.83-1.168c1.319-0.224,2.612-0.513,3.844-0.861c0.531-0.156,1.098,0.159,1.249,0.699    c0.152,0.538-0.161,1.098-0.699,1.249c-1.301,0.368-2.665,0.674-4.056,0.91C238.034,458.513,237.978,458.518,237.922,458.518z     M217.818,457.719c-0.081,0-0.163-0.01-0.244-0.03c-1.392-0.345-2.731-0.758-3.98-1.227c-0.523-0.197-0.788-0.781-0.593-1.305    c0.197-0.524,0.781-0.788,1.305-0.593c1.176,0.442,2.439,0.831,3.755,1.157c0.543,0.135,0.874,0.684,0.74,1.227    C218.685,457.411,218.272,457.719,217.818,457.719z M194.671,457.53c-0.431,0-0.832-0.278-0.966-0.711    c-0.167-0.534,0.131-1.102,0.665-1.268c1.271-0.398,2.504-0.867,3.663-1.396c0.508-0.23,1.11-0.008,1.342,0.501    c0.231,0.509,0.008,1.11-0.502,1.342c-1.235,0.564-2.548,1.063-3.9,1.485C194.873,457.515,194.771,457.53,194.671,457.53z     M276.694,457.174c-0.11,0-0.222-0.018-0.331-0.055c-1.283-0.444-2.578-0.958-3.848-1.528c-0.51-0.228-0.739-0.828-0.509-1.338    c0.228-0.509,0.83-0.737,1.338-0.509c1.217,0.545,2.455,1.037,3.682,1.461c0.528,0.183,0.809,0.76,0.626,1.289    C277.507,456.911,277.114,457.174,276.694,457.174z M166.752,456.825c-0.11,0-0.222-0.018-0.331-0.055    c-1.337-0.463-2.632-0.998-3.85-1.59c-0.503-0.245-0.712-0.851-0.468-1.354c0.243-0.503,0.852-0.713,1.354-0.468    c1.144,0.557,2.365,1.06,3.626,1.497c0.528,0.183,0.809,0.76,0.626,1.289C167.565,456.562,167.172,456.825,166.752,456.825z     M296.291,456.81c-0.356,0-0.701-0.188-0.886-0.521c-0.272-0.489-0.096-1.105,0.394-1.377c1.09-0.606,2.155-1.342,3.166-2.19    c0.43-0.36,1.069-0.301,1.427,0.126c0.359,0.429,0.303,1.068-0.126,1.427c-1.11,0.93-2.282,1.74-3.485,2.408    C296.626,456.77,296.457,456.81,296.291,456.81z M245.693,456.3c-0.395,0-0.771-0.232-0.934-0.62    c-0.217-0.516,0.026-1.11,0.541-1.327c1.221-0.513,2.396-1.103,3.491-1.754c0.479-0.285,1.102-0.128,1.389,0.354    c0.285,0.482,0.127,1.103-0.354,1.389c-1.176,0.697-2.434,1.329-3.74,1.878C245.957,456.274,245.824,456.3,245.693,456.3z     M210.269,454.847c-0.165,0-0.332-0.041-0.488-0.126c-1.271-0.7-2.453-1.491-3.511-2.349c-0.278-0.226-0.406-0.569-0.369-0.9    c-1.026,0.911-2.151,1.761-3.346,2.527c-1.097,0.726-2.21-1.012-1.094-1.705c1.109-0.711,2.153-1.5,3.103-2.343    c0.416-0.371,1.058-0.335,1.43,0.085c0.198,0.224,0.28,0.51,0.249,0.785c0.362-0.317,0.913-0.34,1.303-0.022    c0.965,0.782,2.046,1.506,3.212,2.148c0.49,0.27,0.669,0.885,0.399,1.376C210.974,454.658,210.626,454.847,210.269,454.847z     M269.305,453.865c-0.166,0-0.334-0.041-0.49-0.127c-1.191-0.66-2.379-1.383-3.532-2.149c-0.466-0.31-0.593-0.939-0.283-1.405    c0.309-0.467,0.94-0.593,1.405-0.283c1.108,0.737,2.249,1.431,3.392,2.064c0.49,0.271,0.667,0.888,0.396,1.377    C270.008,453.677,269.661,453.865,269.305,453.865z M159.505,453.272c-0.194,0-0.39-0.055-0.563-0.171    c-1.171-0.784-2.283-1.655-3.304-2.585c-0.413-0.377-0.443-1.018-0.066-1.431c0.375-0.412,1.017-0.442,1.431-0.066    c0.947,0.864,1.978,1.67,3.066,2.399c0.465,0.312,0.59,0.941,0.278,1.406C160.152,453.115,159.831,453.272,159.505,453.272z     M252.625,452.165c-0.293,0-0.584-0.127-0.784-0.37c-0.354-0.432-0.292-1.071,0.14-1.426c1.012-0.83,1.95-1.737,2.787-2.696    c0.851-1,2.405,0.356,1.525,1.333c-0.91,1.043-1.929,2.028-3.027,2.93C253.078,452.09,252.85,452.165,252.625,452.165z     M302.494,451.666c-0.236,0-0.473-0.082-0.665-0.248c-0.421-0.367-0.467-1.007-0.1-1.429c0.825-0.95,1.623-2.001,2.372-3.125    c0.309-0.467,0.937-0.592,1.405-0.281c0.465,0.31,0.592,0.939,0.281,1.405c-0.796,1.195-1.647,2.316-2.528,3.331    C303.059,451.549,302.777,451.666,302.494,451.666z M204.049,449.746c-0.296,0-0.589-0.129-0.788-0.376    c-0.903-1.117-1.674-2.329-2.292-3.606c-0.243-0.504-0.033-1.109,0.471-1.353c0.503-0.239,1.11-0.032,1.353,0.471    c0.55,1.137,1.237,2.218,2.043,3.214c0.352,0.435,0.285,1.073-0.15,1.424C204.497,449.673,204.273,449.746,204.049,449.746z     M262.566,449.376c-0.22,0-0.441-0.071-0.627-0.218c-1.088-0.861-2.144-1.769-3.137-2.7c-0.166-0.156-0.267-0.354-0.304-0.563    c-0.319,0.225-0.751,0.254-1.106,0.043c-0.48-0.288-0.636-0.91-0.349-1.39c0.674-1.125,1.228-2.294,1.645-3.474    c0.185-0.527,0.765-0.804,1.293-0.616c0.527,0.186,0.803,0.765,0.616,1.293c-0.356,1.008-0.801,2.007-1.327,2.981    c0.316-0.07,0.664,0.009,0.919,0.248c0.951,0.893,1.962,1.764,3.006,2.588c0.439,0.347,0.513,0.984,0.167,1.423    C263.162,449.245,262.866,449.376,262.566,449.376z M208.03,448.795c-0.222,0-0.446-0.073-0.632-0.223    c-0.437-0.35-0.507-0.987-0.157-1.423c0.816-1.018,1.534-2.1,2.135-3.218c0.265-0.494,0.88-0.677,1.372-0.413    c0.493,0.265,0.678,0.879,0.412,1.372c-0.659,1.226-1.446,2.412-2.338,3.524C208.621,448.665,208.327,448.795,208.03,448.795z     M153.552,447.832c-0.297,0-0.591-0.13-0.79-0.379c-0.867-1.078-1.666-2.242-2.374-3.461c-0.282-0.484-0.118-1.104,0.366-1.385    c0.483-0.283,1.102-0.118,1.385,0.366c0.658,1.132,1.399,2.212,2.202,3.212c0.35,0.435,0.281,1.073-0.155,1.423    C153.998,447.759,153.774,447.832,153.552,447.832z M307.009,444.95c-0.159,0-0.32-0.038-0.471-0.117    c-0.495-0.26-0.685-0.872-0.424-1.368c0.6-1.142,1.169-2.35,1.691-3.592c0.216-0.516,0.812-0.761,1.325-0.542    c0.516,0.216,0.759,0.81,0.542,1.325c-0.543,1.296-1.138,2.558-1.766,3.752C307.725,444.753,307.373,444.95,307.009,444.95z     M256.675,443.822c-0.281,0-0.562-0.117-0.762-0.345c-0.964-1.1-1.827-2.21-2.565-3.299c-0.314-0.463-0.193-1.093,0.271-1.407    c0.463-0.314,1.093-0.193,1.407,0.271c0.69,1.019,1.502,2.062,2.411,3.099c0.369,0.42,0.326,1.06-0.094,1.429    C257.15,443.739,256.912,443.822,256.675,443.822z M200.55,442.52c-0.464,0-0.881-0.319-0.987-0.791    c-0.089-1.33-1.419-4.997,0.546-5.25c0.56,0,1.013,0.448,1.013,1.008c0,1.289,0.14,2.564,0.417,3.798    c0.123,0.546-0.221,1.087-0.767,1.21C200.698,442.513,200.623,442.52,200.55,442.52z M211.824,441.691    c-0.097,0-0.195-0.014-0.293-0.044c-0.536-0.161-0.839-0.727-0.677-1.262c0.378-1.251,0.613-2.513,0.699-3.752    c0.04-0.558,0.529-0.962,1.081-0.941c0.558,0.04,0.979,0.523,0.941,1.081c-0.098,1.39-0.36,2.802-0.782,4.197    C212.661,441.41,212.26,441.691,211.824,441.691z M149.482,440.86c-0.4,0-0.778-0.238-0.938-0.631    c-0.513-1.261-0.959-2.595-1.324-3.964c-0.144-0.541,0.177-1.096,0.717-1.239c0.542-0.146,1.095,0.176,1.239,0.717    c0.343,1.288,0.762,2.54,1.242,3.722c0.212,0.518-0.038,1.109-0.556,1.32C149.74,440.836,149.61,440.86,149.482,440.86z     M260.543,438.485c-0.033,0-0.066-0.002-0.101-0.005c-0.556-0.054-0.963-0.551-0.908-1.108c0.126-1.213,0.063-2.564-0.237-3.659    c-0.145-0.54,0.175-1.096,0.715-1.241c0.539-0.149,1.096,0.174,1.241,0.715c0.365,1.334,0.446,2.924,0.297,4.385    C261.499,438.094,261.058,438.485,260.543,438.485z M310.158,437.474c-0.105,0-0.212-0.016-0.318-0.05    c-0.531-0.175-0.82-0.748-0.645-1.28c0.747-2.264,1.069-3.795,1.073-3.81c0.113-0.548,0.642-0.905,1.198-0.784    c0.547,0.114,0.899,0.65,0.785,1.197c-0.014,0.066-0.346,1.649-1.132,4.033C310.98,437.204,310.584,437.474,310.158,437.474z     M252.234,437.079c-0.398,0-0.776-0.236-0.937-0.627c-0.547-1.329-0.825-2.544-0.826-3.61c0-0.304,0.022-0.595,0.065-0.871    c0.087-0.553,0.597-0.924,1.158-0.844c0.553,0.087,0.93,0.605,0.844,1.158c-0.028,0.177-0.042,0.362-0.042,0.556    c0.001,0.8,0.228,1.757,0.674,2.84c0.213,0.517-0.034,1.11-0.551,1.323C252.493,437.054,252.363,437.079,252.234,437.079z     M200.554,434.481c-0.074,0-0.148-0.008-0.224-0.025c-0.546-0.123-0.888-0.665-0.766-1.211c0.33-1.468,0.82-2.83,1.455-4.049    c0.256-0.497,0.869-0.692,1.366-0.43c0.497,0.258,0.688,0.87,0.43,1.366c-0.554,1.063-0.983,2.26-1.275,3.558    C201.435,434.162,201.017,434.481,200.554,434.481z M212.328,433.684c-0.474,0-0.897-0.334-0.993-0.817    c-0.249-1.266-0.677-2.439-1.269-3.487c-0.276-0.487-0.105-1.104,0.382-1.38c0.49-0.275,1.106-0.104,1.381,0.382    c0.7,1.236,1.203,2.613,1.495,4.093c0.108,0.549-0.249,1.081-0.798,1.19C212.458,433.678,212.393,433.684,212.328,433.684z     M147.384,433.046c-0.495,0-0.927-0.362-1.001-0.866c-0.201-1.365-0.329-2.76-0.384-4.146c-0.022-0.559,0.413-1.03,0.972-1.051    c0.569-0.019,1.031,0.413,1.051,0.972c0.051,1.314,0.174,2.636,0.364,3.93c0.081,0.554-0.302,1.068-0.855,1.149    C147.482,433.043,147.433,433.046,147.384,433.046z M258.121,431.132c-0.198,0-0.398-0.057-0.574-0.179    c-0.775-0.532-1.736-0.71-2.865-0.524l-0.227,0.043c-0.551,0.111-1.087-0.226-1.207-0.772c-0.121-0.547,0.226-1.087,0.772-1.207    c0.11-0.025,0.223-0.046,0.338-0.064c1.649-0.276,3.127,0.024,4.338,0.857c0.461,0.317,0.577,0.948,0.259,1.409    C258.76,430.979,258.443,431.132,258.121,431.132z M204.43,427.539c-0.31,0-0.614-0.14-0.813-0.408    c-0.334-0.449-0.241-1.083,0.207-1.417c1.564-1.165,3.293-1.4,4.835-0.665c0.505,0.24,0.72,0.845,0.479,1.349    c-0.239,0.506-0.842,0.721-1.349,0.479c-0.867-0.41-1.799-0.251-2.754,0.461C204.853,427.474,204.641,427.539,204.43,427.539z     M147.087,424.958c-0.029,0-0.057-0.001-0.087-0.004c-0.557-0.047-0.97-0.537-0.923-1.095c0.032-0.377,0.059-0.595,0.064-0.629    c0.066-0.532,0.532-0.907,1.068-0.886c0.534,0.034,0.95,0.474,0.95,1.009c-0.012,0.161-0.036,0.35-0.064,0.679    C148.05,424.559,147.607,424.958,147.087,424.958z"/>
	</g>
</g>















</svg>
