<?xml version="1.0" encoding="UTF-8"?>
<!-- Generator: Adobe Illustrator 26.2.1, SVG Export Plug-In . SVG Version: 6.00 Build 0)  -->
<svg xmlns="http://www.w3.org/2000/svg" xmlns:xlink="http://www.w3.org/1999/xlink" version="1.1" id="Layer_1" x="0px" y="0px" viewBox="0 0 512 512" style="enable-background:new 0 0 512 512;" xml:space="preserve" width="512" height="512">
<g>
	<g>
		<path style="fill:#241726;" d="M187.071,81.903h-0.033c-4.337-0.018-7.849-3.561-7.832-7.9c0.018-4.319,3.546-7.832,7.865-7.832    c4.265-0.072,7.963,3.651,7.867,7.898C194.918,78.388,191.388,81.903,187.071,81.903z M187.095,68.446    c-3.095,0-5.601,2.497-5.614,5.565c-0.013,3.084,2.484,5.603,5.565,5.617l0.024,1.138v-1.138c3.068,0,5.577-2.497,5.592-5.568    c0.007-1.493-0.569-2.899-1.622-3.959C189.99,69.039,188.588,68.453,187.095,68.446z"/>
	</g>
	<g>
		<path style="fill:#241726;" d="M363.969,190.679h-0.033c-4.337-0.018-7.849-3.561-7.832-7.9c0.018-4.319,3.546-7.832,7.865-7.832    c4.265-0.072,7.963,3.651,7.867,7.898C371.816,187.164,368.286,190.679,363.969,190.679z M363.993,177.222    c-3.095,0-5.601,2.497-5.614,5.565c-0.013,3.084,2.484,5.603,5.565,5.617l0.024,1.138v-1.138c3.068,0,5.577-2.497,5.592-5.568    c0.007-1.493-0.569-2.899-1.622-3.959C366.888,177.815,365.486,177.228,363.993,177.222z"/>
	</g>
	<g>
		<path style="fill:#241726;" d="M47.738,475.059h-0.033c-4.337-0.018-7.849-3.561-7.832-7.9c0.018-4.319,3.546-7.832,7.865-7.832    c4.265-0.072,7.963,3.651,7.867,7.898C55.585,471.545,52.054,475.059,47.738,475.059z M47.762,461.602    c-3.095,0-5.601,2.497-5.614,5.565c-0.013,3.084,2.484,5.603,5.565,5.617l0.024,1.138v-1.138c3.068,0,5.577-2.497,5.592-5.568    c0.007-1.493-0.569-2.899-1.622-3.959C50.657,462.196,49.255,461.609,47.762,461.602z"/>
	</g>
	<g>
		<path style="fill:#241726;" d="M493.646,274.855h-0.033c-4.337-0.018-7.849-3.561-7.832-7.9c0.018-4.319,3.546-7.832,7.865-7.832    c4.265-0.072,7.963,3.651,7.867,7.898C501.494,271.341,497.963,274.855,493.646,274.855z M493.671,261.398    c-3.095,0-5.601,2.497-5.614,5.565c-0.013,3.084,2.484,5.603,5.565,5.617l0.024,1.138v-1.138c3.068,0,5.577-2.497,5.592-5.568    c0.007-1.493-0.569-2.899-1.622-3.959C496.566,261.992,495.164,261.405,493.671,261.398z"/>
	</g>
	<g>
		<path style="fill:#241726;" d="M49.073,207.423c-0.429,0-0.938-0.321-1.131-0.703c-0.498-0.974-1.924-7.386-2.797-11.54    c-9.051-1.59-10.242-2.626-10.671-3.55c-0.216-0.467-0.191-0.988,0.071-1.431c0.786-1.335,4.886-3.981,8.447-6.112    c-1.786-10.222-1.209-10.911-0.782-11.417c0.519-0.522,1.194-0.67,1.877-0.148c0.036,0.029,3.548,2.83,7.925,6.559    c3.87-1.982,8.611-4.174,10.653-4.174c0.635,0,1.129,0.191,1.464,0.567c0.293,0.331,0.424,0.774,0.369,1.246    c-0.189,1.62-2.355,6.705-3.844,10.052c7.696,7.257,8.498,9.59,7.267,10.959c-0.244,0.27-0.611,0.397-0.962,0.371    c-0.053-0.006-5.057-0.521-11.009-1.302C50.708,207.421,49.877,207.422,49.073,207.423L49.073,207.423z M47.555,195.585    c0.835,3.934,1.504,6.788,1.935,8.454c0.802-1.277,2.117-3.623,4.079-7.559C51.392,196.179,49.38,195.88,47.555,195.585z     M57.004,194.642c3.701,0.479,6.954,0.845,8.738,1.041c-0.582-0.968-2.106-2.923-6.076-6.714    C58.806,190.858,57.904,192.779,57.004,194.642z M47.056,193.198c2.228,0.37,4.768,0.749,7.574,1.13    c1.111-2.285,2.233-4.679,3.284-7.003c-1.813-1.674-3.897-3.526-6.214-5.519c-2.042,1.074-4.157,2.248-6.19,3.436    C45.978,187.833,46.518,190.581,47.056,193.198z M36.98,190.862c0.806,0.367,2.795,1.025,7.667,1.917    c-0.424-2.084-0.842-4.229-1.224-6.295C39.897,188.624,37.855,190.094,36.98,190.862z M53.881,180.684    c1.828,1.581,3.506,3.07,5.012,4.45c1.786-4.056,2.753-6.582,3.144-7.857C60.69,177.57,58.069,178.578,53.881,180.684z     M44.072,175.433c0.087,1.245,0.344,3.469,1.018,7.423c1.569-0.905,3.173-1.797,4.748-2.638    C47.442,178.187,45.365,176.483,44.072,175.433z"/>
	</g>
	<g>
		<path style="fill:#241726;" d="M444.684,49.371c-0.342,0-0.667-0.153-0.882-0.42c-0.033-0.041-3.206-3.947-6.858-8.709    c-4.306,1.454-9.451,3.06-11.18,3.06c-0.607,0-1.053-0.193-1.329-0.573c-0.213-0.294-0.287-0.799-0.173-1.145    c0.34-1.042,3.868-6.581,6.19-10.134c-5.27-7.525-5.379-9.1-5.028-10.058c0.178-0.482,0.564-0.832,1.062-0.961    c2.625-0.374,7.26,0.983,10.293,1.66c6.367-9,7.764-10.129,8.958-7.398c0.004,0.046,0.504,4.502,0.96,10.242    c10.691,3.453,10.96,4.937,11.093,5.658c0.102,0.569-0.12,1.133-0.598,1.51c-1.28,1.011-6.412,3.07-9.831,4.383    c0.304,10.573-0.78,12.788-2.617,12.885C444.724,49.371,444.704,49.371,444.684,49.371z M439.214,39.463    c2.277,2.957,4.315,5.517,5.437,6.917c0.273-1.095,0.58-3.556,0.458-9.044C443.164,38.062,441.167,38.782,439.214,39.463z     M431.869,33.442c-2.195,3.37-3.741,5.862-4.615,7.343c1.555-0.351,4.219-1.114,8.231-2.454    C434.16,36.577,432.949,34.94,431.869,33.442z M433.204,31.401c1.313,1.838,2.839,3.904,4.552,6.158    c2.404-0.829,4.89-1.725,7.276-2.623c-0.096-2.466-0.26-5.25-0.487-8.297c-2.204-0.687-4.528-1.353-6.805-1.953    C436.239,26.85,434.675,29.171,433.204,31.401z M446.881,27.389c0.173,2.411,0.304,4.65,0.393,6.691    c4.148-1.607,6.623-2.712,7.796-3.334C454.066,30.108,451.647,28.97,446.881,27.389z M427.739,22.627    c0.311,0.831,1.253,2.704,4.061,6.775c1.173-1.773,2.395-3.584,3.588-5.313C431.925,23.239,429.174,22.712,427.739,22.627z     M439.132,22.702c1.748,0.471,3.515,0.976,5.223,1.497c-0.258-3.134-0.518-5.806-0.689-7.463    C442.845,17.678,441.454,19.432,439.132,22.702z"/>
	</g>
	<g>
		<path style="fill:#241726;" d="M431.034,486.179c-0.342,0-0.667-0.153-0.882-0.42c-0.033-0.041-3.206-3.947-6.858-8.709    c-4.306,1.454-9.451,3.06-11.18,3.06c-0.607,0-1.053-0.193-1.329-0.573c-0.213-0.294-0.287-0.799-0.173-1.145    c0.34-1.042,3.868-6.581,6.19-10.134c-5.27-7.525-5.379-9.1-5.028-10.058c0.178-0.482,0.564-0.832,1.062-0.961    c2.625-0.374,7.26,0.983,10.293,1.66c6.367-9,7.764-10.129,8.958-7.398c0.004,0.046,0.504,4.502,0.96,10.242    c10.691,3.453,10.96,4.937,11.093,5.658c0.102,0.569-0.12,1.133-0.598,1.51c-1.28,1.011-6.412,3.07-9.831,4.383    c0.304,10.573-0.78,12.788-2.617,12.885C431.074,486.179,431.054,486.179,431.034,486.179z M425.564,476.271    c2.277,2.957,4.315,5.517,5.437,6.917c0.273-1.095,0.58-3.556,0.458-9.044C429.514,474.871,427.517,475.59,425.564,476.271z     M418.219,470.25c-2.195,3.37-3.741,5.862-4.615,7.343c1.555-0.351,4.219-1.114,8.231-2.454    C420.51,473.385,419.299,471.749,418.219,470.25z M419.554,468.21c1.313,1.838,2.839,3.904,4.552,6.158    c2.404-0.829,4.89-1.725,7.276-2.623c-0.096-2.466-0.26-5.25-0.487-8.297c-2.204-0.687-4.528-1.353-6.805-1.953    C422.589,463.659,421.025,465.979,419.554,468.21z M433.231,464.197c0.173,2.411,0.304,4.65,0.393,6.691    c4.148-1.607,6.623-2.712,7.796-3.334C440.416,466.917,437.997,465.778,433.231,464.197z M414.089,459.435    c0.311,0.831,1.253,2.704,4.061,6.775c1.173-1.773,2.395-3.584,3.588-5.313C418.275,460.047,415.524,459.521,414.089,459.435z     M425.482,459.511c1.749,0.471,3.515,0.976,5.223,1.497c-0.258-3.134-0.518-5.806-0.689-7.463    C429.194,454.486,427.803,456.24,425.482,459.511z"/>
	</g>
	<g>
		<g>
			<path style="fill:#241726;" d="M171.121,123.278h-0.007c-0.629-0.004-1.135-0.515-1.131-1.144l0.113-19.145     c0.004-0.629,0.518-1.135,1.144-1.131c0.629,0.004,1.135,0.515,1.131,1.144l-0.113,19.145     C172.254,122.774,171.745,123.278,171.121,123.278z"/>
		</g>
		<g>
			<path style="fill:#241726;" d="M163.403,119.099c-0.358,0-0.711-0.169-0.933-0.487c-0.36-0.515-0.233-1.224,0.282-1.584     l15.81-11.022c0.509-0.355,1.222-0.235,1.584,0.282c0.36,0.515,0.233,1.224-0.282,1.584l-15.81,11.022     C163.856,119.033,163.629,119.099,163.403,119.099z"/>
		</g>
		<g>
			<path style="fill:#241726;" d="M177.284,119.904c-0.302,0-0.602-0.12-0.826-0.355l-11.953-12.63     c-0.431-0.455-0.411-1.178,0.044-1.609c0.458-0.433,1.175-0.409,1.609,0.044l11.953,12.631c0.431,0.455,0.411,1.178-0.044,1.609     C177.846,119.801,177.564,119.904,177.284,119.904z"/>
		</g>
		<g>
			<path style="fill:#241726;" d="M161.241,113.503c-0.624,0-1.131-0.502-1.138-1.126c-0.007-0.629,0.498-1.142,1.126-1.149     l18.414-0.176c0.631-0.004,1.142,0.5,1.149,1.126c0.007,0.629-0.498,1.142-1.126,1.149l-18.414,0.176H161.241z"/>
		</g>
	</g>
	<g>
		<g>
			<path style="fill:#241726;" d="M475.257,227.824h-0.007c-0.629-0.004-1.135-0.515-1.131-1.144l0.113-19.145     c0.004-0.629,0.518-1.135,1.144-1.131c0.629,0.004,1.135,0.515,1.131,1.144l-0.113,19.145     C476.39,227.319,475.882,227.824,475.257,227.824z"/>
		</g>
		<g>
			<path style="fill:#241726;" d="M467.539,223.645c-0.358,0-0.711-0.169-0.933-0.487c-0.36-0.515-0.233-1.224,0.282-1.584     l15.81-11.022c0.509-0.355,1.222-0.236,1.584,0.282c0.36,0.515,0.233,1.224-0.282,1.584l-15.81,11.022     C467.992,223.578,467.766,223.645,467.539,223.645z"/>
		</g>
		<g>
			<path style="fill:#241726;" d="M481.42,224.449c-0.302,0-0.602-0.12-0.826-0.355l-11.953-12.631     c-0.431-0.455-0.411-1.178,0.044-1.609c0.458-0.433,1.175-0.409,1.609,0.044l11.953,12.631c0.431,0.455,0.411,1.178-0.044,1.609     C481.982,224.347,481.7,224.449,481.42,224.449z"/>
		</g>
		<g>
			<path style="fill:#241726;" d="M465.377,218.048c-0.624,0-1.131-0.502-1.138-1.126c-0.007-0.629,0.498-1.142,1.126-1.149     l18.414-0.176c0.631-0.004,1.142,0.5,1.149,1.126c0.007,0.629-0.498,1.142-1.126,1.149l-18.414,0.176H465.377z"/>
		</g>
	</g>
	<g>
		<path style="fill:#241726;" d="M352.82,156.673c-0.84,0-1.635,0-3.852-8.827c-7.481-1.441-8.136-2.319-8.356-2.615    c-0.213-0.283-0.304-0.804-0.207-1.144c0.136-0.479,0.449-1.59,8.996-5.036c3.328-8.4,4.187-8.764,5.872-7.457    c0.549,0.739,1.046,2.654,1.8,5.721c0.238,0.96,0.522,2.118,0.687,2.629c0.449,0.2,1.44,0.555,2.262,0.85    c4.395,1.575,5.528,2.111,5.734,3.16c0.076,0.393-0.124,0.968-0.422,1.235c-0.893,0.8-5.141,2.377-7.369,3.17    c-3.619,8.235-4.392,8.275-5.077,8.311C352.867,156.673,352.84,156.673,352.82,156.673z M343.505,144.253    c1.495,0.431,4.221,1.05,6.601,1.493c0.438,0.082,0.789,0.413,0.895,0.846c0.609,2.463,1.402,5.269,1.975,6.871    c0.829-1.492,2.084-4.131,3.102-6.464c0.127-0.29,0.367-0.514,0.664-0.619c2.033-0.714,4.328-1.593,5.757-2.218    c-1-0.421-2.362-0.91-3.244-1.225c-2.513-0.901-2.986-1.095-3.308-1.53c-0.282-0.379-0.458-1.011-1.082-3.548    c-0.236-0.954-0.595-2.418-0.915-3.514c-0.744,1.422-1.786,3.84-2.597,5.981c-0.113,0.298-0.347,0.535-0.642,0.653    C348.07,142.032,345.075,143.375,343.505,144.253z"/>
	</g>
	<g>
		<path style="fill:#241726;" d="M22.939,245.4c-0.84,0-1.635,0-3.852-8.827c-7.481-1.441-8.136-2.319-8.356-2.615    c-0.213-0.283-0.304-0.804-0.207-1.144c0.136-0.479,0.449-1.59,8.996-5.036c3.328-8.4,4.187-8.764,5.872-7.457    c0.549,0.739,1.046,2.654,1.8,5.721c0.238,0.96,0.522,2.118,0.687,2.629c0.449,0.2,1.44,0.555,2.262,0.85    c4.395,1.575,5.528,2.111,5.734,3.16c0.076,0.393-0.124,0.968-0.422,1.235c-0.893,0.8-5.141,2.377-7.369,3.17    c-3.619,8.235-4.392,8.275-5.077,8.311C22.985,245.4,22.959,245.4,22.939,245.4z M13.623,232.979    c1.495,0.431,4.221,1.05,6.601,1.493c0.438,0.082,0.789,0.413,0.895,0.846c0.609,2.463,1.402,5.269,1.975,6.871    c0.829-1.492,2.084-4.131,3.102-6.464c0.127-0.29,0.367-0.514,0.664-0.619c2.033-0.714,4.328-1.593,5.756-2.218    c-1-0.421-2.362-0.91-3.244-1.225c-2.513-0.901-2.986-1.095-3.308-1.53c-0.282-0.379-0.458-1.011-1.082-3.548    c-0.236-0.954-0.595-2.418-0.915-3.514c-0.744,1.422-1.786,3.84-2.597,5.981c-0.113,0.298-0.347,0.535-0.642,0.653    C18.189,230.759,15.194,232.102,13.623,232.979z"/>
	</g>
	<g>
		<path style="fill:#241726;" d="M471.123,472.904c-0.84,0-1.635,0-3.852-8.827c-7.481-1.441-8.136-2.319-8.356-2.615    c-0.213-0.283-0.304-0.804-0.207-1.144c0.136-0.479,0.449-1.59,8.996-5.036c3.328-8.4,4.187-8.764,5.872-7.457    c0.549,0.739,1.046,2.654,1.8,5.721c0.238,0.96,0.522,2.118,0.687,2.629c0.449,0.2,1.44,0.555,2.262,0.85    c4.395,1.575,5.528,2.111,5.734,3.16c0.076,0.393-0.124,0.968-0.422,1.235c-0.893,0.8-5.141,2.377-7.369,3.17    c-3.619,8.235-4.392,8.275-5.077,8.311C471.169,472.904,471.143,472.904,471.123,472.904z M461.807,460.484    c1.495,0.431,4.221,1.05,6.601,1.493c0.438,0.082,0.789,0.413,0.895,0.846c0.609,2.463,1.402,5.269,1.975,6.871    c0.829-1.492,2.084-4.131,3.102-6.464c0.127-0.29,0.367-0.514,0.664-0.619c2.033-0.714,4.328-1.593,5.756-2.218    c-1-0.421-2.362-0.91-3.244-1.225c-2.513-0.901-2.986-1.095-3.308-1.53c-0.282-0.379-0.458-1.011-1.082-3.548    c-0.236-0.954-0.595-2.418-0.915-3.514c-0.744,1.422-1.786,3.84-2.597,5.981c-0.113,0.298-0.347,0.535-0.642,0.653    C466.373,458.263,463.378,459.606,461.807,460.484z"/>
	</g>
	<g>
		<g>
			<path style="fill:#FFFFFF;" d="M234.738,88.619c0,0-2.245-17.041,14.158-11.527c16.403,5.514,11.058,21.116,4.805,15.777     c-6.253-5.339,5.48-23.447,18.031-15.384c12.552,8.063,9.744,23.709,0.841,24.864s5.39-18.217,16.605-6.254     c11.216,11.964-13.272,33.776-23.286,25.756c-10.014-8.019-2.177-20.963,0.225-13.075c2.402,7.888-4.076,15.624-21.837,15.318     s-9.677-27.632-3.468-19.678s-4.099,16.932-16.628,7.561C211.655,102.608,225.948,83.237,234.738,88.619z"/>
		</g>
		<g>
			<path style="fill:#241726;" d="M245.289,125.242l-1.029-0.009c-5.821-0.1-9.92-3.084-11.364-8.223     c-3.062-0.388-6.292-1.802-9.393-4.121c-4.91-3.671-6.572-9.245-4.561-15.291c2.446-6.883,8.499-12.259,14.555-10.76     c-0.022-2.372,0.344-6.409,2.75-9.151c2.686-3.064,7.11-3.656,13.013-1.674c2.275,0.765,4.27,1.758,5.943,2.96     c9.865-11.127,25.76-0.051,26.132,12.072c3.184,0.091,6.101,1.526,8.676,4.272c3.49,3.725,4.135,8.729,1.811,14.091     c-3.533,8.155-13.179,15.309-20.644,15.309c-2.337,0.001-4.355-0.665-5.994-1.978c-0.784-0.627-1.491-1.305-2.115-2.026     C259.146,123.68,253.036,125.242,245.289,125.242z M235.309,117.099c1.013,2.872,3.421,5.764,8.991,5.86l0.989,0.009     c8.931,0,13.81-2.095,16.427-4.086c-2.499-4.046-2.308-8.467-0.918-11.207c1.707-3.195,4.876-3.818,6.407,0.772     c1.202,3.95,0.311,7.813-2.444,10.751c0.54,0.627,1.155,1.218,1.842,1.767c1.226,0.981,2.764,1.48,4.572,1.479     c6.552,0,15.397-6.643,18.556-13.938c1.373-3.168,2.248-7.758-1.384-11.632c-2.137-2.282-4.515-3.476-7.07-3.553     c-0.535,5.448-3.944,9.558-8.558,10.157c-0.313,0.04-0.602,0.059-0.869,0.059l0,0c-2.279,0-3.148-1.393-3.202-2.696     c-0.129-3.209,4.497-8.605,10.415-9.629c-0.216-4.959-3.133-9.676-7.949-12.768c-4.732-3.044-10.164-2.142-14.155,1.983     c3.875,3.688,4.595,8.225,3.515,11.253c-0.755,2.112-2.371,3.424-4.217,3.425h-0.002c-1.106,0-2.246-0.473-3.295-1.369     c-3.453-2.947-2.335-8.702,0.782-13.007c-1.462-1.026-3.21-1.885-5.21-2.557c-4.959-1.666-8.507-1.342-10.58,1.018     c-2.846,3.245-2.097,9.222-2.088,9.282c0.056,0.435-0.142,0.864-0.509,1.103c-0.371,0.24-0.842,0.244-1.213,0.016     c-5.237-2.716-10.832,2.671-13.046,8.727c-0.795,2.393-2.02,8.424,3.768,12.752c2.528,1.892,5.117,3.108,7.569,3.569     c-0.504-4.413,0.846-8.714,2.626-10.924c2.11-2.356,4.249-2.774,6.647,0.006c2.204,2.826,2.706,6.013,1.373,8.742     C241.767,115.156,238.828,116.893,235.309,117.099z M264.002,107.459c-0.209,0-0.713,0.339-1.175,1.246     c-1.018,2.004-1.184,5.405,0.593,8.583c1.955-2.295,2.531-5.154,1.609-8.179C264.665,107.906,264.205,107.459,264.002,107.459z      M238.413,104.105c-0.48,0-1.04,0.368-1.577,1.035c-1.517,1.882-2.628,5.905-2.075,9.703c2.882-0.047,5.279-1.333,6.279-3.38     c0.935-1.918,0.527-4.231-1.124-6.345C239.555,104.656,239.001,104.105,238.413,104.105z M278.964,93.548     c-4.77,1.06-8.112,5.439-8.04,7.199c0.009,0.217,0.022,0.513,0.929,0.513l0,0c0.176,0,0.369-0.013,0.575-0.04     C275.842,100.778,278.401,97.702,278.964,93.548z M255.5,82.176c-2.688,3.747-3.204,7.998-1.06,9.828     c1.62,1.385,3.195,0.873,3.892-1.091C259.152,88.622,258.544,85.138,255.5,82.176z"/>
		</g>
	</g>
	<g>
		<g>
			<path style="fill:#FFFFFF;" d="M82.31,475.377c0,0-2.245-17.041,14.158-11.527c16.403,5.514,11.058,21.116,4.805,15.777     s5.48-23.447,18.031-15.384c12.552,8.063,9.744,23.709,0.841,24.864s5.39-18.217,16.605-6.254s-13.272,33.776-23.286,25.756     s-2.177-20.963,0.225-13.075c2.402,7.888-4.076,15.624-21.837,15.318s-9.677-27.632-3.468-19.678     c6.208,7.954-4.099,16.932-16.628,7.561C59.227,489.366,73.52,469.994,82.31,475.377z"/>
		</g>
		<g>
			<path style="fill:#241726;" d="M92.861,512l-1.029-0.009c-5.821-0.1-9.92-3.084-11.364-8.223     c-3.062-0.388-6.292-1.802-9.393-4.121c-4.91-3.671-6.572-9.245-4.561-15.291c2.446-6.883,8.499-12.259,14.555-10.76     c-0.022-2.372,0.344-6.409,2.75-9.151c2.686-3.064,7.112-3.656,13.013-1.674c2.275,0.765,4.27,1.758,5.943,2.96     c9.865-11.127,25.76-0.051,26.132,12.072c3.184,0.091,6.101,1.526,8.676,4.272c3.49,3.725,4.135,8.729,1.811,14.091     c-3.533,8.155-13.179,15.309-20.644,15.309c-2.337,0.001-4.355-0.665-5.994-1.978c-0.784-0.627-1.491-1.305-2.115-2.026     C106.718,510.438,100.608,512,92.861,512z M82.881,503.856c1.013,2.872,3.421,5.764,8.991,5.86l0.989,0.009     c8.931,0,13.81-2.095,16.427-4.086c-2.499-4.046-2.308-8.467-0.918-11.207c1.707-3.195,4.876-3.818,6.407,0.772     c1.202,3.95,0.311,7.813-2.444,10.751c0.54,0.627,1.155,1.217,1.842,1.767c1.226,0.981,2.764,1.48,4.572,1.479     c6.552,0,15.397-6.643,18.556-13.938c1.373-3.168,2.248-7.758-1.384-11.632c-2.137-2.282-4.515-3.476-7.07-3.553     c-0.535,5.448-3.944,9.558-8.558,10.157c-0.313,0.04-0.602,0.059-0.869,0.059l0,0c-2.279,0-3.148-1.393-3.201-2.696     c-0.129-3.209,4.497-8.605,10.415-9.629c-0.216-4.959-3.133-9.676-7.949-12.768c-4.732-3.043-10.164-2.143-14.155,1.983     c3.875,3.688,4.595,8.225,3.515,11.253c-0.755,2.112-2.371,3.424-4.217,3.425h-0.002c-1.106,0-2.246-0.473-3.295-1.369     c-3.453-2.947-2.335-8.702,0.782-13.007c-1.462-1.026-3.21-1.885-5.21-2.557c-4.959-1.667-8.507-1.342-10.58,1.018     c-2.846,3.245-2.097,9.222-2.088,9.282c0.056,0.435-0.142,0.864-0.509,1.103c-0.369,0.24-0.84,0.244-1.213,0.016     c-5.237-2.716-10.832,2.671-13.046,8.727c-0.795,2.393-2.02,8.424,3.768,12.752c2.528,1.892,5.117,3.108,7.569,3.569     c-0.504-4.413,0.846-8.714,2.626-10.924c2.11-2.356,4.249-2.774,6.647,0.006c2.204,2.826,2.706,6.013,1.373,8.742     C89.339,501.913,86.4,503.651,82.881,503.856z M111.574,494.216c-0.209,0-0.713,0.339-1.175,1.246     c-1.018,2.004-1.184,5.405,0.593,8.583c1.955-2.295,2.531-5.154,1.609-8.179C112.237,494.664,111.777,494.216,111.574,494.216z      M85.985,490.863c-0.48,0-1.04,0.368-1.577,1.035c-1.517,1.882-2.628,5.905-2.075,9.703c2.882-0.047,5.279-1.333,6.279-3.38     c0.935-1.918,0.527-4.231-1.124-6.345C87.127,491.414,86.573,490.863,85.985,490.863z M126.536,480.306     c-4.77,1.06-8.112,5.439-8.04,7.199c0.009,0.217,0.022,0.513,0.929,0.513l0,0c0.176,0,0.369-0.013,0.575-0.04     C123.414,487.535,125.973,484.46,126.536,480.306z M103.072,468.934c-2.688,3.747-3.204,7.998-1.06,9.828     c1.62,1.386,3.195,0.873,3.892-1.091C106.724,475.379,106.116,471.896,103.072,468.934z"/>
		</g>
	</g>
	<g>
		<g>
			<path style="fill:#241726;" d="M310.274,55.434c-0.06,0-0.12-0.002-0.178-0.008c-0.671-0.054-1.238-0.38-1.593-0.915     c-2.291-3.438,6.134-13.321,9.864-17.412c0.424-0.462,1.144-0.497,1.606-0.074c0.464,0.423,0.498,1.143,0.073,1.607     c-5.861,6.432-10.462,13.399-9.651,14.619c1.413,0.201,7.883-5.224,14.186-11.968c0.429-0.458,1.149-0.484,1.609-0.054     c0.458,0.429,0.482,1.149,0.053,1.607C323.454,45.821,314.165,55.432,310.274,55.434z"/>
		</g>
		<g>
			<path style="fill:#241726;" d="M353.238,69.766c-0.449,0-0.889-0.151-1.277-0.442c-3.026-2.275-3.601-15.989-3.706-20.138     c-0.016-0.629,0.48-1.15,1.109-1.166c0.625-0.015,1.151,0.48,1.166,1.109c0.231,9.228,1.52,17.647,2.81,18.385     c1.258-0.389,2.448-8.653,2.337-17.355c-0.009-0.629,0.495-1.144,1.124-1.152c0.691-0.019,1.142,0.495,1.151,1.123     c0.071,5.533-0.198,18.518-4.192,19.568C353.587,69.743,353.411,69.766,353.238,69.766z"/>
		</g>
		<g>
			<path style="fill:#241726;" d="M354.187,45.937c-0.124,0-0.249-0.02-0.369-0.061L317.29,33.366     c-0.304-0.104-0.551-0.333-0.678-0.63c-0.127-0.295-0.122-0.632,0.013-0.924c0.667-1.476,18.773-40.074,34.49-30.198     c15.399,9.666,4.615,42.171,4.148,43.549c-0.098,0.287-0.304,0.523-0.575,0.657C354.531,45.898,354.36,45.937,354.187,45.937z      M319.241,31.629l34.21,11.716c1.724-5.693,8.876-32.007-3.544-39.804C336.607-3.678,322.471,25.782,319.241,31.629z"/>
		</g>
		<g>
			<path style="fill:#E17B8D;" d="M322.077,20.667l36.376,12.911l16.383,17.237c0,0-52.02,17.381-74.396-28.739L322.077,20.667z"/>
		</g>
		<g>
			<path style="fill:#241726;" d="M352.4,19.265c-0.136,0-0.271-0.023-0.404-0.074c-0.587-0.223-0.882-0.88-0.66-1.467     c2.253-5.924-4.001-9.216-4.268-9.353c-0.558-0.287-0.78-0.973-0.491-1.532c0.287-0.56,0.973-0.779,1.531-0.492     c2.89,1.484,7.729,5.941,5.357,12.186C353.291,18.986,352.858,19.265,352.4,19.265z"/>
		</g>
		<g>
			<polygon style="fill:#E2B700;" points="326.422,14.062 360.242,26.459 358.453,33.577 322.077,20.667    "/>
		</g>
		<g>
			<path style="fill:#241726;" d="M319.677,35.906c-0.671,0-1.333-0.121-1.966-0.362c-1.382-0.525-2.477-1.557-3.084-2.907     c-0.604-1.35-0.649-2.854-0.124-4.236c1.049-2.763,4.35-4.272,7.143-3.208c2.853,1.083,4.292,4.288,3.21,7.142     C324.042,34.472,321.961,35.906,319.677,35.906z M319.679,27.105c-1.346,0-2.571,0.845-3.048,2.103     c-0.311,0.815-0.284,1.702,0.071,2.496c0.358,0.795,1.002,1.403,1.817,1.713c1.644,0.63,3.59-0.262,4.208-1.891     c0.64-1.682-0.209-3.569-1.891-4.208C320.463,27.177,320.074,27.105,319.679,27.105z"/>
		</g>
		<g>
			<path style="fill:#241726;" d="M336.368,45.949c-0.673,0-1.335-0.121-1.968-0.362c-1.382-0.525-2.477-1.557-3.084-2.907     c-0.604-1.35-0.649-2.854-0.124-4.237c1.053-2.765,4.366-4.266,7.145-3.207c1.382,0.525,2.477,1.557,3.084,2.906     c0.604,1.35,0.649,2.854,0.124,4.237C340.734,44.514,338.652,45.949,336.368,45.949z M336.368,37.148     c-1.344,0-2.571,0.845-3.048,2.104c-0.311,0.814-0.284,1.701,0.071,2.496c0.358,0.795,1.002,1.403,1.817,1.713     c1.644,0.627,3.59-0.262,4.208-1.89c0.311-0.815,0.284-1.702-0.071-2.496c-0.358-0.795-1.002-1.403-1.817-1.713     C337.155,37.22,336.764,37.148,336.368,37.148z"/>
		</g>
		<g>
			<path style="fill:#241726;" d="M354.555,50.286c-0.671,0-1.333-0.122-1.966-0.363c-2.853-1.083-4.292-4.287-3.21-7.142     c1.051-2.766,4.355-4.275,7.145-3.209c1.382,0.525,2.477,1.557,3.084,2.907c0.604,1.35,0.649,2.854,0.124,4.237     C358.921,48.851,356.842,50.286,354.555,50.286z M354.558,41.484c-1.346,0-2.573,0.845-3.05,2.104     c-0.64,1.682,0.209,3.569,1.891,4.208c1.651,0.632,3.588-0.263,4.206-1.888c0.311-0.815,0.284-1.702-0.071-2.497     c-0.358-0.795-1.002-1.403-1.817-1.713C355.342,41.556,354.953,41.484,354.558,41.484z"/>
		</g>
	</g>
	<g>
		<g>
			<path style="fill:#241726;" d="M37.998,56.863c-2.473,0-3.306-0.209-3.713-0.931c0,0,0,0,0-0.001l0,0V55.93     c-0.047-0.08-0.08-0.163-0.104-0.25c-0.036-0.106-0.058-0.217-0.064-0.328c-0.002-0.03-0.002-0.063,0-0.098     c0-0.076,0.009-0.15,0.024-0.222c0.007-0.034,0.016-0.069,0.027-0.102c1.171-4.8,21.391-32.025,28.871-40.023     c2.95-3.153,4.141-3.798,5.023-3.798c0.387,0,0.738,0.131,1.013,0.381c2.793,2.528,2.184,12.665,2.035,14.671     c-0.024,0.317-0.18,0.609-0.429,0.806c-9.824,7.798-24.379,19.586-30.969,25.415c7.429-3.649,22.446-11.815,32.473-17.402     c0.362-0.2,0.813-0.19,1.166,0.037c17.418,11.147,16.43,13.514,16.103,14.291C88.06,52.649,44.732,56.863,37.998,56.863z      M72.697,37.301c-6.818,3.795-23.704,13.119-32.299,17.231c12.473-0.513,42.162-4.415,46.725-6.184     C85.858,46.442,79.042,41.4,72.697,37.301z M67.82,13.509c-2.999,1.976-21.382,24.989-28.578,36.304     c6.692-5.938,18.847-15.75,29.633-24.315C69.144,21.282,68.975,15.329,67.82,13.509z"/>
		</g>
		<g>
			<path style="fill:#241726;" d="M78.253,40.879c-0.469,0-0.909-0.293-1.073-0.762c-0.209-0.592,0.104-1.241,0.698-1.449     c3.137-1.1,6.179-2.613,6.894-3.403c-1.257-1.194-8.547-4.976-14.928-7.922c-0.569-0.263-0.818-0.94-0.555-1.51     c0.267-0.572,0.938-0.819,1.511-0.557c7.043,3.254,15.581,7.518,16.247,9.361c0.116,0.317,0.193,0.821-0.089,1.42     c-0.971,2.047-6.621,4.158-8.329,4.756C78.504,40.859,78.377,40.879,78.253,40.879z"/>
		</g>
	</g>
	<g>
		<g>
			<path style="fill:#241726;" d="M340.172,499.317L340.172,499.317c-0.398,0-0.72-0.091-0.982-0.278     c-0.687-0.491-2.775-1.982,6.163-20.632c0.182-0.378,0.555-0.624,0.973-0.644c11.44-0.53,28.454-1.491,36.736-2.313     c-8.689-1.485-27.236-3.838-39.676-5.292c-0.315-0.037-0.602-0.203-0.789-0.46c-1.184-1.627-7.041-9.924-5.996-13.545     c1.153-5.684,51.059,16.42,52.522,18.525c0.038,0.03,0.073,0.062,0.107,0.097c0.053,0.056,0.1,0.117,0.142,0.183     c0.018,0.027,0.033,0.052,0.047,0.077c0,0.001,0,0.001,0,0.001c0.038,0.07,0.067,0.141,0.087,0.213     c0.002,0.007,0.004,0.013,0.007,0.02c0.002,0.009,0.004,0.018,0.009,0.028c0.033,0.1,0.053,0.207,0.06,0.317v0.003     c0,0.036-0.002,0.077-0.009,0.122c-0.009,0.138-0.038,0.271-0.091,0.39c0,0.002,0,0.003-0.002,0.004     c-0.031,0.07-0.064,0.143-0.131,0.221c-0.093,0.186-0.202,0.352-0.291,0.445C385.417,480.588,344.76,499.317,340.172,499.317z      M340.161,497.042l0.011,1.138v-1.136C340.165,497.042,340.161,497.042,340.161,497.042z M347.113,480.004     c-3.23,6.818-6.367,14.684-6.447,16.981c5.048-0.966,32.819-13.617,43.07-19.352C378.377,478.262,367.87,479.037,347.113,480.004     z M344.149,467.957c13.308,1.559,28.334,3.438,37.258,4.942c-11.98-5.573-37.649-15.563-42.675-15.646     C338.746,459.434,341.714,464.537,344.149,467.957z"/>
		</g>
		<g>
			<path style="fill:#241726;" d="M337.188,487.002c-1.189,0-2.233-0.146-2.853-0.545c-0.555-0.359-0.755-0.829-0.824-1.16     c-0.402-1.918,4.61-10.039,8.887-16.514c0.344-0.525,1.051-0.669,1.575-0.323c0.524,0.347,0.669,1.052,0.322,1.576     c-3.812,5.776-7.952,12.705-8.489,14.605c1.069,0.282,4.412-0.036,7.623-0.747c0.638-0.132,1.222,0.253,1.357,0.865     c0.136,0.613-0.251,1.221-0.864,1.356C342.729,486.379,339.65,487.002,337.188,487.002z"/>
		</g>
	</g>
	<g>
		<g>
			<path style="fill:#B388AA;" d="M455.199,151.24c-20.814,17.002-51.47,13.913-68.472-6.901     c-38.945-51.446,32.751-109.991,75.373-61.571C479.103,103.582,476.013,134.238,455.199,151.24z"/>
		</g>
		<g>
			<g>
				<path style="fill:#FFFFFF;" d="M473.654,109.181c0,0,38.764,15.364,20.815,29.255c-13.693,10.598-127.325-12.407-141.972-31.281      s30.18-21.57,30.18-21.57l-2.527,8.232c0,0-19.2,1.035-13.703,9.652c5.497,8.616,105.177,26.874,112.358,26.175      c17.142-1.667-5.79-9.919-5.79-9.919L473.654,109.181z"/>
			</g>
			<g>
				<path style="fill:#241726;" d="M479.176,142.252c-35.074,0-115.023-18.221-127.578-34.4c-3.128-4.03-3.957-7.747-2.462-11.046      c4.763-10.512,32.302-12.286,33.47-12.356c0.404-0.017,0.733,0.14,0.962,0.432c0.231,0.293,0.304,0.68,0.193,1.036l-2.526,8.233      c-0.138,0.457-0.549,0.776-1.024,0.802c-3.155,0.172-11.7,1.324-13.357,4.551c-0.475,0.929-0.295,2.025,0.551,3.353      c4.659,7.307,98.431,25.668,110.902,25.67l0,0c0.156,0,0.282-0.004,0.387-0.014c4.888-0.475,5.334-1.402,5.339-1.412      c-0.022-1.15-5.454-4.165-11.402-6.304c-0.475-0.171-0.782-0.635-0.751-1.14l0.638-10.544c0.022-0.364,0.218-0.695,0.524-0.891      c0.307-0.198,0.691-0.232,1.031-0.098c1.002,0.398,24.586,9.868,26.19,21.201c0.513,3.628-1.202,6.996-5.099,10.012      C492.666,141.271,487.278,142.253,479.176,142.252z M381.101,86.841c-8.547,0.733-26.634,3.714-29.891,10.904      c-1.135,2.505-0.42,5.354,2.186,8.711c11.971,15.427,91.948,33.519,125.781,33.52c9.437,0.003,13.165-1.328,14.597-2.441      c3.246-2.513,4.632-5.094,4.237-7.893c-1.209-8.55-18.185-16.555-23.319-18.79l-0.489,8.095      c4.332,1.615,12.499,5.121,12.084,8.448c-0.233,1.864-2.506,2.906-7.369,3.379c-0.164,0.017-0.367,0.026-0.609,0.026l0,0      c-9.065-0.002-106.996-17.59-112.821-26.721c-1.3-2.041-1.522-3.93-0.655-5.617c2.259-4.399,11.502-5.489,14.461-5.728      L381.101,86.841z"/>
			</g>
		</g>
		<g>
			<g>
				<path style="fill:#FFFFFF;" d="M453.572,83.182c0,0,4.324,3.406,3.839,6.116"/>
			</g>
			<g>
				<path style="fill:#241726;" d="M457.412,90.435c-0.067,0-0.136-0.006-0.202-0.018c-0.62-0.111-1.031-0.702-0.92-1.321      c0.275-1.54-2.186-4.047-3.424-5.02c-0.493-0.389-0.578-1.104-0.189-1.597c0.391-0.494,1.106-0.574,1.597-0.191      c0.498,0.392,4.846,3.924,4.255,7.211C458.43,90.048,457.952,90.435,457.412,90.435z"/>
			</g>
		</g>
		<g>
			<g>
				<path style="fill:#FFFFFF;" d="M452.344,95.364c0,0,4.324,3.406,3.839,6.116"/>
			</g>
			<g>
				<path style="fill:#241726;" d="M456.186,102.616c-0.067,0-0.136-0.006-0.202-0.018c-0.618-0.111-1.031-0.702-0.92-1.32      c0.275-1.54-2.188-4.048-3.424-5.022c-1.173-0.898,0.265-2.715,1.409-1.786c0.498,0.392,4.841,3.924,4.255,7.208      C457.206,102.23,456.726,102.616,456.186,102.616z"/>
			</g>
		</g>
		<g>
			<g>
				<path style="fill:#FFFFFF;" d="M463.346,100.773c0,0,3.665,4.108,2.715,6.691"/>
			</g>
			<g>
				<path style="fill:#241726;" d="M466.059,108.602c-0.131,0-0.262-0.022-0.393-0.07c-0.589-0.217-0.891-0.871-0.673-1.461      c0.538-1.461-1.449-4.365-2.495-5.541c-0.418-0.469-0.375-1.189,0.093-1.605c0.464-0.42,1.184-0.375,1.604,0.091      c0.422,0.473,4.086,4.707,2.93,7.842C466.957,108.317,466.521,108.602,466.059,108.602z"/>
			</g>
		</g>
		<g>
			<g>
				<path style="fill:#FFFFFF;" d="M441.155,86.386c0,0,4.324,3.406,3.839,6.116"/>
			</g>
			<g>
				<path style="fill:#241726;" d="M444.997,93.639c-0.067,0-0.136-0.006-0.202-0.018c-0.618-0.111-1.031-0.701-0.92-1.32      c0.275-1.54-2.188-4.049-3.424-5.023c-0.493-0.389-0.578-1.104-0.189-1.597c0.391-0.493,1.106-0.575,1.597-0.189      c0.498,0.392,4.841,3.924,4.255,7.209C446.017,93.253,445.537,93.639,444.997,93.639z"/>
			</g>
		</g>
		<g>
			<g>
				<path style="fill:#FFFFFF;" d="M439.586,75.37c0,0,4.98,2.346,5.117,5.095"/>
			</g>
			<g>
				<path style="fill:#241726;" d="M444.704,81.602c-0.602,0-1.106-0.472-1.135-1.081c-0.078-1.555-3.046-3.449-4.47-4.124      c-0.567-0.269-0.809-0.946-0.542-1.514c0.271-0.57,0.958-0.81,1.513-0.543c0.573,0.27,5.603,2.733,5.77,6.068      c0.033,0.628-0.451,1.161-1.078,1.193C444.742,81.602,444.722,81.602,444.704,81.602z"/>
			</g>
		</g>
	</g>
	<g>
		<g>
			<g>
				<path style="fill:#FFFFFF;" d="M70.724,111.521c0,0-7.424,6.603-6.537,9.261c0.887,2.658,16.599,19.216,18.218,18.268      c1.619-0.948,10.203-9.568,10.203-9.568L70.724,111.521z"/>
			</g>
			<g>
				<path style="fill:#241726;" d="M82.239,140.227L82.239,140.227c-3.153,0-18.251-16.446-19.131-19.085      c-1.042-3.127,4.988-8.805,6.861-10.471c0.418-0.371,1.044-0.384,1.477-0.03l21.886,17.962c0.247,0.204,0.398,0.502,0.413,0.823      c0.018,0.32-0.102,0.632-0.329,0.86c-1.451,1.456-8.774,8.774-10.435,9.747C82.805,140.135,82.441,140.227,82.239,140.227z       M70.764,113.025c-3.259,3.047-5.814,6.449-5.497,7.397c0.831,2.495,14.077,16.156,16.843,17.455      c1.409-1.062,5.734-5.251,8.807-8.311L70.764,113.025z"/>
			</g>
		</g>
		<g>
			<path style="fill:#D95B42;" d="M86.453,83.251c0,0-16.994-12.463-34.62,8.139c-12.02,14.05,8.711,7.026,15.375,13.41     S86.453,83.251,86.453,83.251z"/>
		</g>
		<g>
			<path style="fill:#D95B42;" d="M119.43,116.452c0,0,10.395,18.332-12.122,33.434c-15.356,10.299-5.962-9.471-11.525-16.834     C90.22,125.689,119.43,116.452,119.43,116.452z"/>
		</g>
		<g>
			<g>
				<path style="fill:#FFFFFF;" d="M62.432,106.848c0,0,26.39,29.451,32.228,32.138c5.837,2.687,43.533-40.196,31.335-58.894      C109.394,54.647,61.086,103.12,62.432,106.848z"/>
			</g>
			<g>
				<path style="fill:#241726;" d="M95.271,140.245L95.271,140.245c-0.398,0-0.764-0.077-1.089-0.226      c-5.983-2.754-31.513-31.203-32.597-32.413c-0.098-0.109-0.173-0.234-0.224-0.372c-0.298-0.824,0.091-1.886,1.337-3.664      c6.602-9.299,47.173-48.454,64.248-24.1c5.701,8.738,0.998,21.463-3.952,30.599C115.203,124.453,100.695,140.245,95.271,140.245      z M63.601,106.448c7.545,8.399,26.987,29.412,31.533,31.505l0.138,0.017c3.386,0.001,17.129-13.12,25.723-28.985      c6.581-12.145,8.018-22.185,4.046-28.271C108.938,57.429,65.4,101.076,63.601,106.448z"/>
			</g>
		</g>
		<g>
			<path style="fill:#D95B42;" d="M124.617,108.227c0,0-30.02-28.482-30.632-31.385c-0.612-2.903,26.428-12.992,34.512-3.902     C139.013,84.763,126.053,105.965,124.617,108.227z"/>
		</g>
		<g>
			<g>
				<path style="fill:#FFFFFF;" d="M104.167,115.901c-13.349,11.28-30.366-7.858-17.607-19.797      C99.909,84.825,116.926,103.963,104.167,115.901z"/>
			</g>
			<g>
				<path style="fill:#241726;" d="M95.367,120.388c-4.106,0-8.025-1.758-10.753-4.824c-5.27-5.928-4.737-15.039,1.191-20.309      c5.673-5.255,15.285-4.68,20.309,1.189c5.268,5.926,4.734,15.037-1.191,20.308C102.285,119.096,98.893,120.388,95.367,120.388z       M95.358,93.894c-2.968,0-5.823,1.088-8.043,3.06c-11.663,10.937,3.913,28.398,16.096,18.097c4.988-4.438,5.437-12.107,1-17.096      C102.117,95.375,98.815,93.894,95.358,93.894z"/>
			</g>
		</g>
		<g>
			<path style="fill:#D95B42;" d="M73.146,136.945c0,0,7.794,4.887,1.38,16.501c-6.414,11.614-35.993,13.792-37.094,10.34     c-1.101-3.453-6.058-25.636,6.163-34.043S61.103,124.511,73.146,136.945z"/>
		</g>
		<g>
			<path style="fill:#E7BB00;" d="M68.376,136.859c0,0,4.009,2.514,0.71,8.488s-18.515,7.095-19.081,5.319     s-3.116-13.187,3.17-17.512C59.461,128.829,62.181,130.463,68.376,136.859z"/>
		</g>
		<g>
			<g>
				<path style="fill:#FFFFFF;" d="M100.515,101.276c0,0,6.021,4.001,1.256,9.717"/>
			</g>
			<g>
				<path style="fill:#241726;" d="M101.77,112.13c-0.258,0-0.515-0.087-0.729-0.264c-0.482-0.402-0.547-1.119-0.144-1.602      c1.213-1.455,1.729-2.885,1.529-4.25c-0.329-2.264-2.517-3.776-2.539-3.79c-0.524-0.348-0.667-1.054-0.318-1.577      c0.347-0.524,1.055-0.664,1.575-0.318c0.124,0.083,3.053,2.063,3.533,5.358c0.298,2.032-0.387,4.062-2.033,6.035      C102.419,111.991,102.094,112.13,101.77,112.13z"/>
			</g>
		</g>
		<g>
			<path style="fill:#241726;" d="M123.585,95.683c-0.218,0-0.438-0.062-0.631-0.191c-0.522-0.349-0.664-1.055-0.315-1.579     c4.492-6.726,1.635-15.23,1.606-15.315c-0.204-0.594,0.111-1.241,0.704-1.446c0.595-0.207,1.242,0.111,1.446,0.704     c0.136,0.391,3.246,9.666-1.864,17.322C124.312,95.506,123.952,95.683,123.585,95.683z"/>
		</g>
	</g>
	<g>
		<g>
			<path style="fill:#E1B600;" d="M22.718,365.861c0,0,457.638-19.139,461.172-1.912c3.534,17.227,2.942,72.226,2.942,72.226     s-461.357,19.099-461.246,8.787C25.696,434.65,22.718,365.861,22.718,365.861z"/>
		</g>
		<g>
			<g>
				<path style="fill:#1A1F36;" d="M280.131,144.243c0,0,21.242,2.127,33.179,20.072c15.312,23.018,11.771,73.02-14.254,77.445      C273.031,246.185,280.131,144.243,280.131,144.243z"/>
			</g>
			<g>
				<path style="fill:#52AFA6;" d="M213.021,278.239c0,0-17.881,4.497-28.018,10.614s-19.697,34.734-19.697,34.734      s30.141,12.676,41.034,8.893C217.232,328.696,213.021,278.239,213.021,278.239z"/>
			</g>
			<g>
				<path style="fill:#52AFA6;" d="M324.929,279.22c0,0,17.799,4.81,27.828,11.104c10.029,6.294,19.085,35.074,19.085,35.074      s-30.359,12.145-41.184,8.171C319.833,329.596,324.929,279.22,324.929,279.22z"/>
			</g>
			<g>
				<path style="fill:#E47947;" d="M254.765,253.359c0,0,0.089,34.78-3.302,34.872c-90.008,4.177-48.357,49.559,4.736,84.032      c48.296,29.239,74.361-76.62,64.085-80.161c-10.276-3.541-23.845-3.387-29.951-1.738c-1.942,0.524,4.604-57.388-3.146-61.633      C279.437,224.486,254.765,253.359,254.765,253.359z"/>
			</g>
			<g>
				<path style="fill:#52AFA6;" d="M248.313,278.548c0,0,21.442,9.497,36.103-3.756s31.858,15.987,49.871,18.473      c18.013,2.485,16.789,75.779,16.768,78.105s-154.231,6.792-154.741-1.358s-3.541-60.536,4.685-69.772      C209.224,291.004,243.659,278.507,248.313,278.548z"/>
			</g>
			<g>
				<path style="fill:#1A1F36;" d="M255.045,155.745c0,0-16.105-30.955-44.999-1.332s-20.832,76.913,5.79,88.921      S289.754,184.502,255.045,155.745z"/>
			</g>
			<g>
				<path style="fill:#E47947;" d="M294.762,213.985c0,0,7.014-21.597,16.077-11.71s9.033,28.131-2.796,31.8      S294.762,213.985,294.762,213.985z"/>
			</g>
			<g>
				<path style="fill:#241726;" d="M303.827,225.01c-0.042,0-0.084-0.002-0.129-0.007c-0.624-0.07-1.073-0.632-1.004-1.256      c0.518-4.652,1.78-12.563,4.432-13.274c3.048-0.821,5.574,4.558,6.287,6.222c0.247,0.578-0.022,1.245-0.598,1.493      c-0.573,0.242-1.244-0.019-1.495-0.598c-1.222-2.848-3.05-5.082-3.604-4.92c-0.833,0.545-2.153,5.85-2.762,11.327      C304.891,224.58,304.398,225.01,303.827,225.01z"/>
			</g>
			<g>
				<path style="fill:#E47947;" d="M217.703,223.514c0,0-8.168-21.188-16.684-10.827c-8.516,10.361-7.504,28.577,4.505,31.603      C217.533,247.317,217.703,223.514,217.703,223.514z"/>
			</g>
			<g>
				<path style="fill:#241726;" d="M209.184,235.012c-0.547,0-1.026-0.394-1.12-0.951c-0.904-5.438-2.506-10.663-3.428-11.184      c-0.622-0.13-2.211,2.223-3.273,5.129c-0.215,0.592-0.873,0.896-1.46,0.677c-0.589-0.216-0.893-0.869-0.678-1.459      c0.622-1.701,2.902-7.201,5.943-6.552c2.686,0.57,4.372,8.399,5.139,13.016c0.102,0.62-0.315,1.206-0.935,1.309      C209.308,235.008,209.246,235.012,209.184,235.012z"/>
			</g>
			<g>
				<path style="fill:#E47947;" d="M282.996,168.745c0,0-49.949-8.205-66.443,16.857c-7.041,10.698-3.147,64.574,10.896,80.833      c5.408,6.261,31.928,8.377,37.947,8.233c43.738-1.052,36.164-40.524,36.164-40.524S307.036,170.175,282.996,168.745z"/>
			</g>
			<g>
				<path style="fill:#241726;" d="M282.161,228.769c-0.355,0-0.689-0.114-0.973-0.335c-2.008-1.574-2.324-11.415-2.335-17.141      c-0.002-0.629,0.507-1.139,1.135-1.14h0.002c0.627,0,1.135,0.508,1.138,1.135c0.011,5.989,0.487,12.936,1.255,14.934      c1.58-1.547,5.121-8.132,7.796-13.984c0.262-0.573,0.942-0.82,1.509-0.561c0.571,0.261,0.822,0.936,0.562,1.507      c-2.533,5.538-7.158,14.92-9.68,15.533C282.432,228.752,282.294,228.769,282.161,228.769z"/>
			</g>
			<g>
				<path style="fill:#241726;" d="M243.305,231.766c-0.251,0-0.504-0.063-0.744-0.19c-2.431-1.287-6.639-10.782-7.872-13.661      c-0.247-0.578,0.022-1.246,0.6-1.493c0.575-0.247,1.246,0.022,1.493,0.598c2.006,4.687,4.666,9.963,6.154,11.864      c0.335-2.491-0.009-9.052-0.62-14.709c-0.067-0.624,0.384-1.185,1.009-1.253c0.627-0.06,1.186,0.383,1.253,1.009      c1.737,16.101,0.096,17.214-0.444,17.579C243.883,231.68,243.596,231.766,243.305,231.766z"/>
			</g>
			<g>
				<path style="fill:#241726;" d="M262.263,262.365c-0.024,0-0.049-0.001-0.073-0.001c-6.858-0.107-11.213-15.743-11.686-17.526      c-0.16-0.607,0.2-1.23,0.806-1.391c0.618-0.166,1.233,0.2,1.393,0.806c1.622,6.091,5.639,15.776,9.522,15.835      c1.757,0.006,5.125-1.991,9.134-15.327c0.178-0.599,0.809-0.939,1.415-0.763c0.602,0.18,0.944,0.814,0.762,1.416      C270.123,256.818,266.435,262.365,262.263,262.365z"/>
			</g>
			<g>
				<path style="fill:#1A1F36;" d="M310.839,202.275c0,0-58.889,15.412-68.167-33.471      C235.37,130.333,326.745,131.433,310.839,202.275z"/>
			</g>
			<g>
				<path style="fill:#FBFCFF;" d="M204.542,203.207c-0.56,0-1.049-0.415-1.124-0.986c-2.368-17.649,0.431-30.858,8.32-39.257      c9.64-10.264,23.206-9.429,23.777-9.388c0.627,0.043,1.098,0.587,1.053,1.213c-0.042,0.628-0.595,1.076-1.213,1.056      c-0.12-0.011-13.099-0.778-21.977,8.696c-7.383,7.878-9.976,20.453-7.707,37.377c0.084,0.622-0.353,1.195-0.975,1.279      C204.645,203.204,204.594,203.207,204.542,203.207z"/>
			</g>
			<g>
				<path style="fill:#FBFCFF;" d="M289.557,190.727c-13.433,0-23.617-3.377-30.271-10.04c-7.678-7.686-7.718-16.862-7.716-17.248      c0.004-0.628,0.514-1.133,1.142-1.131c0.627,0.002,1.133,0.513,1.133,1.141c0.722,15.176,15.347,25.529,35.712,25.003      c0.111,0,0.193-0.018,0.335-0.001c1.473-0.022,1.477,2.291,0.004,2.275C289.783,190.725,289.67,190.727,289.557,190.727z"/>
			</g>
			<g>
				<path style="fill:#FBFCFF;" d="M309.905,181.915c-0.527,0-0.998-0.368-1.111-0.904c-5.574-26.571-53.206-24.156-53.686-24.13      c-0.667,0.056-1.164-0.444-1.2-1.07c-0.036-0.628,0.442-1.165,1.071-1.201c0.12-0.008,12.559-0.678,25.545,2.1      c17.463,3.737,28.009,11.978,30.495,23.835c0.129,0.614-0.264,1.218-0.88,1.346      C310.063,181.907,309.983,181.915,309.905,181.915z"/>
			</g>
			<g>
				<path style="fill:#FBFCFF;" d="M301.205,189.467c-0.36,0-0.713-0.171-0.933-0.489c-0.124-0.177-12.599-17.808-33.655-22.473      c-0.613-0.137-1-0.743-0.864-1.357c0.136-0.611,0.729-0.993,1.357-0.864c21.946,4.863,34.506,22.643,35.03,23.397      c0.358,0.515,0.229,1.224-0.287,1.583C301.656,189.4,301.43,189.467,301.205,189.467z"/>
			</g>
			<g>
				<path style="fill:#FBFCFF;" d="M236.697,238.947c-10.931,0-19.724-8.564-20.018-19.496c-0.144-5.349,1.804-10.434,5.483-14.319      c3.681-3.885,8.654-6.103,14.004-6.249l0.549-0.007c10.931,0,19.724,8.563,20.02,19.495c0.144,5.35-1.804,10.435-5.485,14.32      c-3.681,3.886-8.654,6.104-14.004,6.249L236.697,238.947z M236.715,201.152l-0.487,0.007c-4.743,0.128-9.151,2.095-12.413,5.539      c-3.264,3.443-4.99,7.95-4.861,12.693c0.26,9.69,8.054,17.282,17.743,17.282l0.487-0.007      c9.549-0.059,17.733-8.694,17.276-18.231C254.198,208.743,246.404,201.152,236.715,201.152z"/>
			</g>
			<g>
				<path style="fill:#FBFCFF;" d="M281.696,238.178c-10.931,0-19.724-8.564-20.02-19.495c-0.144-5.35,1.804-10.435,5.485-14.32      c3.681-3.886,8.654-6.104,14.004-6.249l0.549-0.007c10.931,0,19.724,8.564,20.018,19.496c0.144,5.349-1.804,10.434-5.483,14.319      c-3.681,3.886-8.654,6.104-14.004,6.249L281.696,238.178z M281.714,200.383l-0.487,0.007      c-9.549,0.059-17.733,8.694-17.276,18.231c0.262,9.69,8.056,17.282,17.745,17.282l0.487-0.007      c4.743-0.128,9.151-2.094,12.413-5.538c3.264-3.444,4.99-7.952,4.861-12.694C299.197,207.974,291.403,200.383,281.714,200.383z"/>
			</g>
			<g>
				<path style="fill:#241726;" d="M265.84,245.999c-0.084,0-0.171-0.007-0.258-0.019c-3.579-0.498-8.225-2.652-8.42-2.743      c-0.571-0.265-0.815-0.942-0.551-1.512c0.267-0.571,0.946-0.813,1.511-0.55c0.044,0.02,4.124,1.91,7.309,2.477      c0.264-2.408-2.762-12.259-5.941-20.609c-0.222-0.587,0.073-1.244,0.66-1.467c0.584-0.224,1.244,0.07,1.469,0.659      c2.893,7.604,7.461,20.721,5.545,23.126C266.835,245.773,266.364,245.999,265.84,245.999z"/>
			</g>
			<g>
				<path style="fill:#E47947;" d="M201.324,279.26c0,0,12.587-22.12,22.958-20.107c10.371,2.013,6.997,4.397,6.997,4.397      c3.15-2.129,16.353,3.54,11.786,9.882c0,0,6.727-3.503,10.891,2.116c4.164,5.619-18.872,22.862-25.916,37.955      c-3.427,7.342,3.324,84.354-46.344,87.021c-11.241,0.604-17.28-12.365-19.214-20.337      C160.547,372.216,191.462,296.148,201.324,279.26z"/>
			</g>
			<g>
				<path style="fill:#E47947;" d="M325.968,275.901c0,0-13.76-21.41-24.008-18.841c-10.248,2.569-6.75,4.767-6.75,4.767      s-3.483-1.626-9.102,2.538c-5.62,4.164-4.412,6.424-4.412,6.424s-4.628-1.595-8.483,4.241      c-3.855,5.836,20.076,21.813,27.923,36.504c3.818,7.147,10.221,61.681,51.29,80.405c12.491,5.695,28.061-1.76,29.563-9.825      C383.491,374.049,336.725,292.233,325.968,275.901z"/>
			</g>
			<g>
				<path style="fill:#241726;" d="M225.867,318.273c-0.111,0-0.227-0.017-0.34-0.052c-0.6-0.187-0.933-0.825-0.746-1.425      c3.599-11.505,12.242-20.414,19.185-27.574c5.359-5.523,9.987-10.293,8.92-13.293c-0.744-2.088-1.84-3.344-3.253-3.73      c-3.088-0.841-7.003,2.372-7.043,2.403c-0.464,0.39-1.155,0.342-1.564-0.101c-0.411-0.445-0.4-1.134,0.022-1.567      c0.058-0.058,5.623-5.814,2.653-8.838c-2.604-2.647-10.064,0.684-12.473,2.057c-0.535,0.307-1.229,0.129-1.544-0.41      c-0.315-0.535-0.142-1.226,0.389-1.55c0,0,0.893-0.575,0.918-1.394c0.024-0.75-0.695-1.691-2.024-2.651      c-7.356-5.305-16.19,6.741-16.276,6.864c-0.369,0.51-1.078,0.622-1.589,0.255c-0.509-0.369-0.624-1.08-0.256-1.589      c0.415-0.577,10.289-13.994,19.453-7.375c1.913,1.382,2.908,2.834,2.966,4.321c3.55-1.509,9.114-3.123,12.057-0.126      c2.315,2.357,1.649,5.367,0.404,7.787c1.404-0.47,2.973-0.697,4.497-0.284c2.18,0.592,3.795,2.329,4.803,5.164      c1.542,4.33-3.059,9.074-9.429,15.639c-6.776,6.986-15.21,15.681-18.645,26.67C226.8,317.962,226.351,318.273,225.867,318.273z"/>
			</g>
			<g>
				<path style="fill:#241726;" d="M301.91,315.063c-0.493,0-0.946-0.321-1.091-0.818c-2.999-10.217-11.475-17.028-18.287-22.503      c-7.025-5.648-13.095-10.524-8.954-16.65c2.18-3.225,5.97-3.434,8.416-3.173c-2.958-7.822,3.187-13.35,11.222-9.536      c-0.435-1.212-0.604-2.565-0.024-3.78c0.94-1.98,3.41-2.893,7.565-2.79c11.029,0.272,13.179,8.106,13.266,8.439      c0.156,0.608-0.209,1.229-0.818,1.385c-0.611,0.16-1.224-0.207-1.384-0.81l0,0c-0.071-0.267-1.868-6.512-11.122-6.74      c-3.028-0.071-4.957,0.454-5.454,1.492c-0.689,1.443,1.113,4.072,1.8,4.88c0.367,0.431,0.36,1.066-0.016,1.49      c-0.373,0.424-1.004,0.509-1.475,0.199c-2.053-1.345-7.954-4.271-10.578-1.692c-3.188,3.133-0.087,8.346-0.053,8.398      c0.244,0.402,0.213,0.913-0.076,1.285c-0.287,0.373-0.78,0.529-1.226,0.393c-0.058-0.014-5.781-1.684-8.158,1.832      c-2.835,4.196,0.964,7.549,8.496,13.604c7.058,5.673,15.843,12.734,19.042,23.636c0.178,0.602-0.169,1.234-0.771,1.412      C302.123,315.049,302.014,315.063,301.91,315.063z"/>
			</g>
			<g>
				<path style="fill:#E47947;" d="M177.055,398.933c-2.313-1.572-35.489-22.031-11.75-75.346c0,0,36.469-1.231,38.769,1.892      C206.373,328.601,177.055,398.933,177.055,398.933z"/>
			</g>
			<g>
				<path style="fill:#E47947;" d="M366.056,393.61c2.341-1.531,43.06-8.931,2.523-74.446c0,0-25.894-2.554-28.248,0.528      C337.976,322.774,366.056,393.61,366.056,393.61z"/>
			</g>
			<g>
				<path style="fill:#241726;" d="M165.713,366.616c-0.12,0-0.242-0.019-0.362-0.059c-0.595-0.2-0.915-0.845-0.715-1.441      c0.489-1.457,12.044-35.789,16.776-43.525c0.329-0.539,1.033-0.705,1.564-0.377c0.535,0.328,0.704,1.028,0.378,1.563      c-4.601,7.519-16.443,42.708-16.563,43.063C166.631,366.316,166.189,366.616,165.713,366.616z"/>
			</g>
			<g>
				<path style="fill:#FBFCFF;" d="M217.444,217.358c-0.18,0-0.362-0.042-0.531-0.132l-11.197-5.915      c-0.555-0.293-0.769-0.981-0.475-1.536c0.295-0.557,0.986-0.766,1.537-0.474l11.197,5.915c0.555,0.293,0.769,0.981,0.475,1.536      C218.246,217.138,217.851,217.358,217.444,217.358z"/>
			</g>
			<g>
				<path style="fill:#FBFCFF;" d="M255.598,219.54c-0.609,0-1.113-0.482-1.138-1.095c-0.022-0.628,0.467-1.155,1.095-1.179      l6.432-0.239c0.62-0.061,1.155,0.468,1.18,1.094c0.022,0.628-0.467,1.155-1.095,1.179l-6.432,0.239      C255.627,219.54,255.611,219.54,255.598,219.54z"/>
			</g>
			<g>
				<path style="fill:#FBFCFF;" d="M299.352,209.157c-0.34,0-0.675-0.152-0.9-0.442c-0.384-0.498-0.293-1.212,0.204-1.596      l5.468-4.219c0.491-0.382,1.206-0.296,1.595,0.206c0.384,0.498,0.293,1.212-0.204,1.596l-5.468,4.219      C299.841,209.079,299.597,209.157,299.352,209.157z"/>
			</g>
			<g>
				<path style="fill:#FBFCFF;" d="M219.348,177.039c-0.198,0-0.398-0.051-0.578-0.158c-0.542-0.32-0.722-1.018-0.402-1.559      c9.08-15.368,21.197-10.031,21.32-9.978c0.569,0.262,0.818,0.933,0.558,1.504c-0.258,0.568-0.931,0.828-1.504,0.565      c-0.422-0.19-10.411-4.487-18.414,9.066C220.115,176.839,219.737,177.039,219.348,177.039z"/>
			</g>
			<g>
				<g>
					<path style="fill:#1A1F36;" d="M330.358,361.976c0,0-122.326-1.752-128.502,2.126c-6.176,3.878-7.563,56.809-7.455,62.778       c0.108,5.969,143.801,6.524,148.091-0.075C346.781,420.205,347.741,363.223,330.358,361.976z"/>
				</g>
				<g>
					<path style="fill:#FDFFFF;" d="M267.052,424.267c0,0,40.504-12.251,61.944-1.405c12.673,6.411,11.594-53.612,9.078-60.731       c-2.517-7.119-39.855-12.645-54.406-4.574c-14.551,8.07-14.551,8.07-14.551,8.07c-65.514-31.597-72.435,0.024-67.809,56.148       C201.308,421.775,234.792,407.948,267.052,424.267z"/>
				</g>
				<g>
					<path style="fill:#241726;" d="M267.291,419.917c-0.016,0-0.029,0-0.044-0.001c-0.629-0.024-1.118-0.554-1.093-1.182       c0.302-7.561,1.931-45.448,4.479-48.851c0.38-0.501,1.095-0.6,1.593-0.229c0.502,0.377,0.604,1.09,0.229,1.593       c-1.471,2.098-3.173,26.08-4.026,47.578C268.404,419.437,267.899,419.917,267.291,419.917z"/>
				</g>
				<g>
					<path style="fill:#241726;" d="M261.365,415.476c-0.373,0-0.738-0.182-0.955-0.515c-0.169-0.259-4.197-6.306-10.731-4.852       c-8.334,1.86-14.452,0.453-18.702-4.291c-2.002-2.229-2.833-1.854-5.583-0.603c-1.806,0.819-4.277,1.941-7.887,2.458       c-3.039,0.431-5.488-0.064-7.294-1.481c-2.377-1.866-2.671-4.639-2.684-4.756c-0.06-0.625,0.398-1.181,1.022-1.242       c0.604-0.064,1.178,0.392,1.242,1.015c0.007,0.051,0.247,1.971,1.848,3.211c1.293,1.002,3.159,1.339,5.541,0.999       c3.29-0.471,5.497-1.473,7.272-2.277c2.853-1.295,5.103-2.316,8.216,1.158c3.653,4.077,9.051,5.252,16.516,3.588       c8.078-1.793,12.933,5.522,13.133,5.833c0.34,0.527,0.191,1.229-0.335,1.571C261.792,415.416,261.576,415.476,261.365,415.476z       "/>
				</g>
				<g>
					<path style="fill:#241726;" d="M251.821,397.914c-0.831,0-1.744-0.026-2.746-0.081c-4.774-0.262-6.261-1.585-7.834-2.987       c-1.48-1.316-3.01-2.679-8.216-3.558c-2.802-0.474-4.246,0.013-5.774,0.527c-2.417,0.812-4.921,1.651-11.58-1.082       c-3.215-1.318-5.745-1.465-7.521-0.431c-2.215,1.29-2.597,4.104-2.602,4.131c-0.078,0.619-0.618,1.056-1.266,0.988       c-0.622-0.077-1.066-0.639-0.991-1.261c0.018-0.16,0.502-3.936,3.688-5.81c2.415-1.423,5.632-1.33,9.553,0.279       c5.883,2.411,7.783,1.77,9.993,1.03c1.649-0.555,3.526-1.181,6.876-0.614c5.852,0.989,7.792,2.716,9.351,4.104       c1.377,1.226,2.464,2.195,6.445,2.415c7.616,0.414,9.116-1.001,9.127-1.015c0.329-0.534,0.984-0.647,1.526-0.318       c0.533,0.33,0.66,1.085,0.331,1.621C259.861,396.373,258.35,397.914,251.821,397.914z"/>
				</g>
				<g>
					<path style="fill:#241726;" d="M258.757,384.996c-0.315,0-0.631-0.131-0.855-0.389c-3.004-3.43-7.765-2.885-12.804-2.307       c-1.802,0.207-3.664,0.42-5.457,0.443c-4.139,0.064-5.401-1.436-6.51-3.389c-0.58-1.021-1.078-1.903-2.655-2.474       c-2.051-0.743-3.824,0.168-6.063,1.314c-2.028,1.039-4.343,2.269-7.181,2.175c-6.414-0.092-7.432-4.201-7.472-4.377       c-0.14-0.612,0.242-1.222,0.853-1.363c0.618-0.14,1.213,0.236,1.36,0.836c0.038,0.138,0.778,2.564,5.29,2.628       c2.373,0.037,4.232-0.962,6.112-1.925c2.411-1.232,4.899-2.507,7.874-1.429c2.368,0.858,3.195,2.318,3.861,3.491       c0.778,1.371,1.38,2.283,4.501,2.236c1.677-0.021,3.481-0.228,5.225-0.428c5.399-0.62,10.984-1.262,14.774,3.069       c0.415,0.472,0.367,1.191-0.107,1.605C259.29,384.904,259.024,384.996,258.757,384.996z"/>
				</g>
				<g>
					<path style="fill:#241726;" d="M289.688,382.882c-6.207,0-8.805-3.988-8.929-4.186c-0.335-0.531-0.176-1.233,0.355-1.569       c0.524-0.334,1.224-0.181,1.564,0.349l0,0c0.116,0.177,2.888,4.301,10,2.8c3.17-0.668,5.392-2.076,7.354-3.32       c2.81-1.783,5.465-3.464,9.351-1.479c2.431,1.244,5.819,0.831,9.094,0.431c3.864-0.471,7.865-0.961,10.744,1.183       c0.504,0.375,0.611,1.088,0.236,1.592c-0.378,0.505-1.093,0.608-1.591,0.234c-2.155-1.601-5.534-1.189-9.114-0.751       c-3.613,0.442-7.349,0.896-10.404-0.663c-2.726-1.394-4.375-0.352-7.098,1.374c-2.017,1.28-4.53,2.873-8.105,3.625       C291.887,382.769,290.734,382.882,289.688,382.882z"/>
				</g>
				<g>
					<path style="fill:#241726;" d="M291.874,368.964c-4.148,0-7.229-1.517-7.414-1.612c-0.562-0.282-0.786-0.964-0.504-1.524       c0.28-0.563,0.966-0.79,1.524-0.508c0.058,0.028,5.854,2.855,11.824,0.26c6.798-2.955,8.138-3.253,13.668-1.311       c2.448,0.862,5.497,0.191,8.44-0.459c2.839-0.625,5.774-1.273,8.371-0.604c0.607,0.157,0.973,0.778,0.818,1.385       c-0.158,0.608-0.771,0.974-1.386,0.819c-2.06-0.537-4.615,0.027-7.314,0.622c-3.255,0.719-6.619,1.461-9.685,0.383       c-4.903-1.722-5.634-1.516-12.006,1.251C295.989,368.632,293.814,368.964,291.874,368.964z"/>
				</g>
				<g>
					<path style="fill:#241726;" d="M258.835,372.25c-0.262,0-0.527-0.09-0.74-0.273c-1.111-0.954-3.69-0.906-6.183-0.855       c-3.213,0.053-6.53,0.126-8.425-1.771c-1.975-1.975-3.108-1.997-7.327-2.08c-1.304-0.026-2.857-0.056-4.761-0.156       c-8.287-0.437-13.93-3.429-14.168-3.556c-0.551-0.298-0.758-0.986-0.462-1.54c0.298-0.55,0.982-0.766,1.54-0.464       c0.053,0.029,5.461,2.879,13.21,3.287c1.873,0.099,3.404,0.129,4.686,0.153c4.303,0.084,6.267,0.123,8.891,2.746       c1.211,1.211,4.037,1.153,6.772,1.104c3.048-0.058,5.936-0.116,7.707,1.402c0.478,0.409,0.533,1.128,0.124,1.604       C259.475,372.116,259.155,372.25,258.835,372.25z"/>
				</g>
				<g>
					<path style="fill:#241726;" d="M278.51,409.465c-0.46,0-0.893-0.281-1.064-0.739c-0.222-0.588,0.076-1.243,0.664-1.464       c0.435-0.162,10.664-3.956,16.074-2.605c4.917,1.226,5.612,1.253,12.415,0.402c1.729-0.217,3.515-0.643,5.241-1.056       c5.17-1.238,10.513-2.518,15.679,1.267c0.507,0.372,0.615,1.083,0.244,1.59c-0.369,0.508-1.084,0.618-1.591,0.246       c-4.312-3.163-8.92-2.057-13.801-0.891c-1.788,0.428-3.635,0.871-5.49,1.102c-7.052,0.882-8.045,0.849-13.248-0.453       c-4.732-1.176-14.626,2.492-14.723,2.529C278.779,409.442,278.644,409.465,278.51,409.465z"/>
				</g>
				<g>
					<path style="fill:#241726;" d="M278.513,394.493c-0.427,0-0.835-0.24-1.029-0.65c-0.271-0.567-0.029-1.245,0.538-1.515       c0.389-0.184,9.596-4.495,15.179-1.239c2.473,1.444,5.836-0.127,9.393-1.788c5.219-2.867,10.712-3.775,15.365-0.258       c2.371,1.423,4.623,2.757,8.767,2.326c0.644-0.064,1.186,0.387,1.251,1.012c0.067,0.624-0.387,1.184-1.011,1.25       c-4.934,0.518-7.712-1.159-10.175-2.636c-4.137-3.169-8.608-2.109-13.235,0.368c-3.932,1.835-8.005,3.737-11.502,1.692       c-4.552-2.649-12.973,1.287-13.055,1.329C278.841,394.457,278.675,394.493,278.513,394.493z"/>
				</g>
			</g>
			<g>
				<path style="fill:#241726;" d="M369.437,364.92c-0.018,0-0.038,0-0.058-0.001c-0.627-0.032-1.109-0.565-1.078-1.193      c0.567-11.34-19.133-45.089-19.333-45.429c-0.318-0.542-0.136-1.239,0.407-1.556c0.538-0.32,1.238-0.138,1.557,0.405      c0.826,1.411,20.242,34.682,19.64,46.693C370.543,364.448,370.039,364.92,369.437,364.92z"/>
			</g>
			<g>
				<path style="fill:#241726;" d="M263.86,288.325c-5.419,0-10.862-1.459-11.209-1.553c-1.426-0.372-0.822-2.595,0.6-2.195      c0.12,0.034,12.115,3.246,17.316,0.122c0.533-0.319,1.237-0.149,1.56,0.39c0.324,0.539,0.149,1.237-0.391,1.561      C269.637,287.909,266.753,288.325,263.86,288.325z"/>
			</g>
			<g>
				<path style="fill:#241726;" d="M256.795,352.968c-13.17,0-24.677-4.017-25.268-4.227c-0.593-0.21-0.902-0.86-0.693-1.452      c0.213-0.592,0.873-0.898,1.453-0.692c0.173,0.061,17.558,6.117,33.552,3.364c16.301-2.81,35.065-6.221,35.252-6.254      c0.609-0.12,1.211,0.294,1.324,0.915c0.111,0.618-0.298,1.21-0.915,1.322c-0.189,0.034-18.965,3.447-35.274,6.259      C263.072,352.747,259.888,352.968,256.795,352.968z"/>
			</g>
			<g>
				<g>
					<path style="fill:#241726;" d="M338.663,310.912c-0.573,0-1.066-0.433-1.129-1.018c-0.427-4.019-2.795-5.066-2.895-5.109       c-0.573-0.242-0.853-0.903-0.618-1.48c0.235-0.574,0.88-0.861,1.462-0.632c0.151,0.059,3.732,1.523,4.312,6.981       c0.067,0.624-0.387,1.185-1.011,1.251C338.746,310.91,338.703,310.912,338.663,310.912z"/>
				</g>
				<g>
					<path style="fill:#241726;" d="M335.762,319.13c-0.573,0-1.066-0.433-1.129-1.018c-0.427-4.02-2.793-5.067-2.893-5.11       c-0.573-0.242-0.853-0.903-0.618-1.48c0.236-0.573,0.878-0.859,1.462-0.632c0.151,0.059,3.73,1.523,4.31,6.982       c0.067,0.624-0.387,1.185-1.011,1.251C335.844,319.128,335.802,319.13,335.762,319.13z"/>
				</g>
				<g>
					<path style="fill:#241726;" d="M343.496,322.514c-0.573,0-1.066-0.433-1.129-1.018c-0.427-4.02-2.793-5.066-2.893-5.109       c-0.573-0.242-0.853-0.903-0.618-1.48c0.233-0.574,0.878-0.862,1.462-0.632c0.151,0.059,3.73,1.522,4.31,6.981       c0.067,0.624-0.387,1.185-1.011,1.251C343.578,322.511,343.536,322.514,343.496,322.514z"/>
				</g>
				<g>
					<path style="fill:#241726;" d="M341.081,332.665c-0.573,0-1.066-0.433-1.129-1.016c-0.429-4.02-2.795-5.067-2.895-5.11       c-0.573-0.242-0.853-0.903-0.618-1.48c0.236-0.574,0.878-0.86,1.462-0.632c0.151,0.059,3.73,1.523,4.312,6.98       c0.067,0.625-0.387,1.185-1.011,1.252C341.163,332.662,341.123,332.665,341.081,332.665z"/>
				</g>
				<g>
					<path style="fill:#241726;" d="M347.364,334.114c-0.573,0-1.066-0.433-1.129-1.018c-0.427-4.019-2.793-5.066-2.893-5.109       c-0.573-0.242-0.853-0.903-0.618-1.48c0.236-0.573,0.88-0.863,1.462-0.632c0.151,0.059,3.73,1.523,4.31,6.981       c0.067,0.624-0.387,1.185-1.011,1.251C347.446,334.112,347.404,334.114,347.364,334.114z"/>
				</g>
			</g>
			<g>
				<g>
					<path style="fill:#241726;" d="M194.369,315.25c-0.62,0-1.126-0.498-1.138-1.12c-0.087-5.487,3.288-7.375,3.433-7.453       c0.547-0.299,1.242-0.094,1.54,0.46c0.298,0.549,0.096,1.233-0.447,1.535c-0.118,0.068-2.315,1.401-2.251,5.422       c0.009,0.628-0.491,1.145-1.12,1.155C194.38,315.25,194.376,315.25,194.369,315.25z"/>
				</g>
				<g>
					<path style="fill:#241726;" d="M198.246,323.054c-0.62,0-1.126-0.498-1.138-1.12c-0.087-5.487,3.288-7.375,3.433-7.453       c0.547-0.297,1.242-0.096,1.54,0.46c0.298,0.549,0.096,1.234-0.449,1.535c-0.12,0.071-2.313,1.406-2.248,5.422       c0.009,0.628-0.491,1.145-1.12,1.155C198.257,323.054,198.253,323.054,198.246,323.054z"/>
				</g>
				<g>
					<path style="fill:#241726;" d="M190.981,327.353c-0.62,0-1.126-0.498-1.138-1.12c-0.087-5.489,3.288-7.375,3.433-7.453       c0.547-0.298,1.24-0.096,1.542,0.46c0.295,0.55,0.093,1.234-0.451,1.535c-0.118,0.069-2.313,1.402-2.248,5.422       c0.009,0.628-0.491,1.145-1.12,1.155C190.992,327.353,190.988,327.353,190.981,327.353z"/>
				</g>
				<g>
					<path style="fill:#241726;" d="M194.614,337.135c-0.62,0-1.126-0.498-1.138-1.12c-0.087-5.487,3.288-7.375,3.433-7.453       c0.547-0.298,1.242-0.096,1.54,0.46c0.298,0.549,0.096,1.233-0.447,1.535c-0.118,0.068-2.315,1.401-2.251,5.422       c0.009,0.628-0.491,1.145-1.12,1.155C194.625,337.135,194.62,337.135,194.614,337.135z"/>
				</g>
				<g>
					<path style="fill:#241726;" d="M188.553,339.338c-0.62,0-1.126-0.498-1.138-1.12c-0.087-5.487,3.288-7.375,3.433-7.453       c0.547-0.298,1.242-0.096,1.54,0.46c0.298,0.549,0.096,1.233-0.447,1.535c-0.118,0.068-2.315,1.401-2.251,5.422       c0.009,0.628-0.491,1.145-1.12,1.155C188.564,339.338,188.559,339.338,188.553,339.338z"/>
				</g>
			</g>
		</g>
		<g>
			<path style="fill:#E1B600;" d="M50.908,322.874c0,0,97.329-4.964,97.977-0.432c0.458,3.205-0.647,42.083-0.647,42.083     s-102.299,1.315-112.004-0.647c-17.604-3.56-16.841-22.038-9.927-30.645C34.478,323.059,50.908,322.874,50.908,322.874z"/>
		</g>
		<g>
			<g>
				<path style="fill:#FFFFFF;" d="M148.885,357.835c0,0-101.43,4.748-111.357-3.453c-9.927-8.201-7.337-20.718,13.38-22.876      s97.114-2.59,97.545-0.863S148.885,357.835,148.885,357.835z"/>
			</g>
			<g>
				<path style="fill:#241726;" d="M91.077,360.34c-48.125,0-52.753-3.824-54.274-5.08c-4.886-4.037-6.972-9.197-5.581-13.802      c1.793-5.934,8.925-9.973,19.569-11.082c12.195-1.271,42.933-1.935,66.994-1.935c31.291,0,31.504,0.851,31.773,1.927      c0.442,1.772,0.464,23.191,0.464,27.467c0,0.608-0.478,1.108-1.084,1.136C148.644,358.984,119.377,360.34,91.077,360.34z       M117.784,330.715c-23.415,0-54.77,0.674-66.758,1.922c-9.687,1.01-16.112,4.465-17.627,9.478      c-1.118,3.699,0.698,7.957,4.852,11.391c2.062,1.702,11.666,4.559,52.826,4.559c25.17,0,51.113-1.074,56.67-1.317      c-0.007-8.971-0.102-22.209-0.335-25.275C145.065,331.081,135.407,330.715,117.784,330.715z"/>
			</g>
		</g>
		<g>
			<path style="fill:#241726;" d="M34.938,338.687c-0.622,0-1.131-0.501-1.138-1.124c-0.007-0.629,0.495-1.144,1.124-1.151     l114.379-1.295c0.627-0.007,1.145,0.496,1.151,1.124c0.007,0.629-0.495,1.144-1.124,1.151l-114.379,1.295     C34.947,338.687,34.943,338.687,34.938,338.687z"/>
		</g>
		<g>
			<path style="fill:#241726;" d="M148.022,346.024c-0.004,0-0.009,0-0.013,0L32.334,344.73c-0.627-0.007-1.131-0.522-1.124-1.15     c0.006-0.629,0.524-1.133,1.151-1.125l115.674,1.294c0.627,0.007,1.131,0.522,1.124,1.15     C149.153,345.523,148.644,346.024,148.022,346.024z"/>
		</g>
		<g>
			<path style="fill:#241726;" d="M149.317,354.656c-0.009,0-0.02,0-0.031,0l-113.517-3.022c-0.627-0.017-1.122-0.54-1.106-1.168     c0.017-0.629,0.542-1.124,1.169-1.108l113.517,3.022c0.627,0.017,1.122,0.54,1.106,1.168     C150.437,354.167,149.932,354.656,149.317,354.656z"/>
		</g>
		<g>
			<g>
				<path style="fill:#E17B8D;" d="M36.176,290.605c0,0,110.234-2.886,110.758,0.381c0.37,2.31-0.719,30.366-0.719,30.366      s-98.667,1.894-106.971,1.936C33.272,323.317,36.176,290.605,36.176,290.605z"/>
			</g>
			<g>
				<path style="fill:#241726;" d="M133.778,316.674c-0.011,0-0.024,0-0.038-0.001l-80.282-2.589      c-0.573-0.018-1.044-0.463-1.095-1.036l-1.293-14.674c-0.029-0.319,0.08-0.635,0.295-0.871c0.218-0.234,0.58-0.321,0.844-0.367      l80.28,0.431c0.591,0.003,1.082,0.46,1.126,1.05l1.273,16.519c0.282,0.722-0.284,1.556-1.066,1.54      C133.814,316.675,133.796,316.676,133.778,316.674z M54.541,311.843l78.007,2.516l-1.118-14.523l-77.985-0.419L54.541,311.843z"/>
			</g>
			<g>
				<path style="fill:#241726;" d="M45.296,322.285c-0.607,0-1.111-0.478-1.138-1.09l-1.293-30.644      c-0.024-0.628,0.462-1.158,1.089-1.184c0.711-0.061,1.158,0.46,1.186,1.089l1.293,30.644c0.024,0.628-0.462,1.158-1.089,1.184      C45.327,322.285,45.312,322.285,45.296,322.285z"/>
			</g>
			<g>
				<path style="fill:#241726;" d="M141.114,321.422c-0.613,0-1.118-0.487-1.138-1.103l-0.862-28.486      c-0.018-0.628,0.475-1.152,1.104-1.172c0.649-0.017,1.151,0.475,1.171,1.103l0.862,28.486c0.018,0.628-0.475,1.152-1.104,1.172      C141.137,321.422,141.126,321.422,141.114,321.422z"/>
			</g>
			<g>
				<path style="fill:#241726;" d="M105.598,310.209c-0.609,0-1.257-0.039-1.951-0.122c-5.548-0.673-6.83-2.136-8.069-3.551      c-0.802-0.916-1.495-1.707-3.695-2.407c-2.671-0.851-4.188,0.372-6.456,2.431c-1.622,1.471-3.299,2.993-5.705,3.26      c-3.553,0.39-5.037-1.173-6.603-2.835c-0.893-0.945-1.904-2.016-3.508-2.959c-0.78-0.461-1.549-0.57-2.319-0.342      c-1.973,0.58-3.664,3.208-4.148,4.171c-0.284,0.563-0.973,0.779-1.529,0.507c-0.56-0.282-0.786-0.964-0.507-1.525      c0.089-0.178,2.208-4.349,5.532-5.333c1.4-0.413,2.788-0.224,4.126,0.561c1.882,1.109,3.062,2.357,4.008,3.36      c1.462,1.55,2.268,2.408,4.695,2.134c4.869-1.016,6.739-7.723,13.104-5.598c2.804,0.892,3.819,2.053,4.717,3.076      c1.046,1.193,1.948,2.224,6.634,2.792c4.577,0.567,6.754-1.17,8.856-2.839c1.669-1.323,3.386-2.695,5.974-2.259      c5.452,0.909,7.012,5.409,7.076,5.6c0.198,0.597-0.124,1.241-0.72,1.439c-0.593,0.199-1.24-0.121-1.44-0.719      c-0.044-0.132-1.224-3.398-5.29-4.076c-1.515-0.253-2.526,0.481-4.186,1.798C112.234,308.323,109.857,310.209,105.598,310.209z"/>
			</g>
		</g>
		<g>
			<g>
				<path style="fill:#52AFA6;" d="M35.039,361.606c0,0,110.234-4.05,110.758,0.534c0.37,3.242-0.719,42.607-0.719,42.607      s-98.667,2.658-106.971,2.716C32.134,407.505,35.039,361.606,35.039,361.606z"/>
			</g>
			<g>
				<path style="fill:#241726;" d="M131.89,394.295h-0.002l-79.531-0.202c-0.6-0.001-1.095-0.468-1.133-1.066l-1.293-20.592      c-0.02-0.314,0.091-0.623,0.309-0.853c0.217-0.229,0.519-0.358,0.835-0.355l80.28,0.607c0.613,0.004,1.111,0.494,1.129,1.106      l0.535,19.87C133.265,393.542,132.666,394.338,131.89,394.295z M53.427,391.82l77.294,0.197l-0.482-17.917l-77.962-0.59      L53.427,391.82z"/>
			</g>
			<g>
				<path style="fill:#241726;" d="M44.158,405.599c-0.613,0-1.118-0.487-1.138-1.103l-1.293-42.999      c-0.018-0.628,0.475-1.153,1.104-1.172c0.644-0.009,1.151,0.475,1.171,1.103l1.293,42.999c0.018,0.628-0.475,1.153-1.104,1.172      C44.181,405.599,44.17,405.599,44.158,405.599z"/>
			</g>
			<g>
				<path style="fill:#241726;" d="M139.977,404.389c-0.618,0-1.124-0.493-1.138-1.113l-0.862-39.971      c-0.013-0.628,0.484-1.149,1.113-1.162c0.684,0.029,1.149,0.484,1.162,1.113l0.862,39.971c0.013,0.628-0.484,1.149-1.113,1.162      C139.993,404.389,139.986,404.389,139.977,404.389z"/>
			</g>
			<g>
				<path style="fill:#241726;" d="M106.753,387.375c-0.442,0-0.902-0.057-1.375-0.182c-3.197-0.841-3.806-2.229-4.27-3.957      c-0.28-1.042-0.544-2.026-2.066-3.243c-1.697-1.357-4.881,1.192-7.692,3.437c-2.362,1.885-4.59,3.666-6.572,3.798      c-2.879,0.176-3.857-1.776-4.623-3.36c-0.627-1.299-1.277-2.641-2.948-3.477c-2.837-1.412-7.423,3.298-8.809,5.061      c-0.389,0.497-1.104,0.58-1.597,0.191c-0.495-0.388-0.58-1.103-0.193-1.597c0.664-0.844,6.634-8.181,11.617-5.69      c2.364,1.183,3.259,3.034,3.979,4.521c0.798,1.65,1.115,2.166,2.424,2.081c1.271-0.084,3.319-1.722,5.301-3.305      c3.481-2.78,7.421-5.925,10.535-3.437c2.104,1.683,2.531,3.27,2.842,4.43c0.329,1.219,0.478,1.775,2.651,2.347      c2.246,0.592,4.33-1.625,6.165-3.577c1.737-1.844,3.39-3.581,5.254-2.83c0.584,0.234,0.866,0.896,0.633,1.48      c-0.233,0.584-0.904,0.863-1.477,0.633c-0.46-0.194-1.944,1.419-2.753,2.277C111.905,384.964,109.637,387.375,106.753,387.375z"/>
			</g>
		</g>
		<g>
			<path style="fill:#241726;" d="M88.053,227.926c-0.482,0-0.929-0.308-1.084-0.791c-0.111-0.35-2.688-8.636,1.737-15.158     c2.926-4.312,8.16-6.756,15.559-7.267c18.965-1.307,29.778-4.138,33.057-8.651c0.998-1.371,1.266-2.9,0.822-4.676     c-0.72-2.879-5.836-6.019-10.784-9.056c-6.752-4.145-13.732-8.429-13.992-14.039c-0.144-3.097,1.753-6.08,5.805-9.118     c19.116-14.342,39.991,2.967,40.202,3.144c0.478,0.405,0.538,1.123,0.133,1.603c-0.404,0.482-1.122,0.539-1.602,0.134     c-0.798-0.671-19.704-16.307-37.369-3.062c-3.355,2.517-5.003,4.937-4.899,7.192c0.207,4.407,6.956,8.55,12.913,12.206     c5.583,3.427,10.855,6.663,11.802,10.443c0.607,2.435,0.207,4.643-1.189,6.565c-3.752,5.162-14.792,8.207-34.743,9.585     c-6.656,0.459-11.306,2.565-13.824,6.261c-3.806,5.595-1.484,13.126-1.46,13.201c0.189,0.599-0.142,1.239-0.74,1.429     C88.284,227.908,88.166,227.926,88.053,227.926z"/>
		</g>
		<g>
			<path style="fill:#241726;" d="M99.688,228.701c-0.511,0-0.975-0.344-1.104-0.862c-0.04-0.161-0.955-3.991,1.897-7.523     c3.221-3.987,9.769-5.862,19.411-5.524c14.721,0.47,28.945-5.704,32.382-14.104c2.128-5.201,0.04-10.906-6.041-16.501     c-0.462-0.425-0.491-1.145-0.067-1.607c0.427-0.463,1.146-0.49,1.609-0.068c8.645,7.954,8.363,14.743,6.605,19.038     c-3.837,9.375-18.722,16.063-34.563,15.514c-11.086-0.35-15.676,2.343-17.565,4.681c-2.148,2.659-1.469,5.513-1.46,5.542     c0.151,0.609-0.218,1.226-0.829,1.379C99.873,228.69,99.779,228.701,99.688,228.701z"/>
		</g>
		<g>
			<g>
				<path style="fill:#FFFFFF;" d="M412.285,274.105c0,0-3.103-56.624,0.776-57.4c3.878-0.776,21.719-0.776,24.046,0      c2.327,0.776,2.327,55.849,0,56.624S412.285,274.105,412.285,274.105z"/>
			</g>
			<g>
				<path style="fill:#241726;" d="M412.285,275.242c-0.604,0-1.102-0.472-1.135-1.075c-0.009-0.142-0.78-14.339-1.069-28.448      c-0.6-29.458,1.34-29.846,2.757-30.129c5.313-0.709,18.407-1.021,24.628,0.037c0.82,0.272,2.524,0.84,2.524,29.39      c0,28.551-1.704,29.119-2.524,29.392C435.084,275.202,416.073,275.242,412.285,275.242z M413.511,217.779      c-1.797,2.953-1.497,29.958-0.149,55.187c8.234-0.014,20.518-0.194,23.055-0.64c1.722-4.826,1.722-49.804,0-54.619      C433.929,217.091,416.085,217.159,413.511,217.779z"/>
			</g>
		</g>
		<g>
			<path style="fill:#E1B600;" d="M387.463,254.713c0,0,77.568,0,76.016,3.103c-1.551,3.103-13.962,18.616-13.962,18.616     s-44.213-0.776-47.316-1.551C399.098,274.105,385.912,257.04,387.463,254.713z"/>
		</g>
		<g>
			<path style="fill:#D45A41;" d="M421.593,181.024c0,0-22.767,30.153,0,31.803C448.354,214.766,428.574,183.351,421.593,181.024z"/>
		</g>
		<g>
			<path style="fill:#E1B600;" d="M423.677,194.598c0,0-11.607,14.409,0,16.41C433.932,212.776,427.28,195.799,423.677,194.598z"/>
		</g>
		<g>
			<g>
				<g>
					<path style="fill:#B1739A;" d="M369.67,274.621c0,0,80.082,2.249,84.889,2.586c22.107,1.551,22.083,20.372,18.694,32.932       c-3.568,13.22-46.618,12.057-46.618,12.057s-45.903,0.377-53.514,0.275C367.646,322.399,369.67,274.621,369.67,274.621z"/>
				</g>
				<g>
					<g>
						<path style="fill:#FFFFFF;" d="M370.922,285.048c0,0,57.197-0.746,60.367-0.86c32.578-1.164,32.564,6.056,33.742,8.532        c11.247,23.658-37.232,21.331-37.232,21.331s-47.503,2.403-54.218,2.398C368.751,316.446,370.922,285.048,370.922,285.048z"/>
					</g>
					<g>
						<path style="fill:#241726;" d="M373.598,317.588h-0.018c-0.455,0-1.131-0.143-1.762-0.819        c-3.748-4.021-2.348-27.195-2.031-31.801c0.042-0.59,0.529-1.051,1.12-1.059c0.573-0.008,57.22-0.747,60.342-0.858        c30.984-1.101,33.315,5.299,34.577,8.609c0.08,0.211,0.153,0.404,0.231,0.571c2.344,4.929,2.404,9.212,0.182,12.73        c-7.024,10.213-28.743,10.389-38.496,10.225C425.919,315.286,380.339,317.588,373.598,317.588z M371.987,286.172        c-0.978,15.174-0.26,28.405,1.613,29.145l-0.002-0.003c6.685,0,53.67-2.373,54.143-2.397        c8.018,0.054,29.652,0.372,36.574-9.168c1.804-2.855,1.702-6.302-0.311-10.538c-0.104-0.217-0.2-0.464-0.304-0.738        c-0.98-2.571-3.215-8.174-32.371-7.147C428.383,285.431,380.023,286.066,371.987,286.172z"/>
					</g>
				</g>
				<g>
					<path style="fill:#241726;" d="M463.091,294.634c-0.007,0-0.016,0-0.024,0l-92.693-1.94c-0.627-0.013-1.126-0.533-1.113-1.161       c0.013-0.63,0.536-1.127,1.162-1.114l92.693,1.94c0.627,0.013,1.126,0.533,1.113,1.161       C464.215,294.141,463.709,294.634,463.091,294.634z"/>
				</g>
				<g>
					<path style="fill:#241726;" d="M371.949,302.779c-0.607,0-1.111-0.479-1.138-1.091c-0.024-0.628,0.462-1.158,1.091-1.183       l93.857-3.879c0.633-0.078,1.158,0.462,1.184,1.09c0.024,0.628-0.462,1.158-1.091,1.183l-93.857,3.879       C371.98,302.779,371.965,302.779,371.949,302.779z"/>
				</g>
			</g>
			<g>
				<path style="fill:#241726;" d="M371.174,310.535c-0.598,0-1.098-0.464-1.135-1.068c-0.04-0.627,0.438-1.166,1.064-1.205      l93.857-5.818c0.62-0.036,1.166,0.437,1.206,1.065c0.04,0.627-0.438,1.166-1.064,1.205l-93.857,5.818      C371.221,310.534,371.196,310.535,371.174,310.535z"/>
			</g>
		</g>
		<g>
			<g>
				<g>
					<path style="fill:#52AFA6;" d="M484.096,404.14c0,0-80.102-1.379-84.912-1.664c-22.122-1.311-22.303-20.131-19.05-32.727       c3.424-13.258,46.484-12.562,46.484-12.562s45.897-0.875,53.508-0.856C485.601,356.344,484.096,404.14,484.096,404.14z"/>
				</g>
				<g>
					<g>
						<path style="fill:#FFFFFF;" d="M482.731,393.728c0,0-57.186,1.367-60.354,1.515c-32.564,1.517-32.628-5.702-33.832-8.166        c-11.503-23.535,36.999-21.734,36.999-21.734s47.474-2.919,54.189-2.987C484.561,362.308,482.731,393.728,482.731,393.728z"/>
					</g>
					<g>
						<path style="fill:#241726;" d="M414.058,396.588c-22.973,0-25.137-5.492-26.299-8.443c-0.082-0.211-0.156-0.403-0.238-0.569        c-10.399-21.837,25.757-23.804,38.065-23.37c1.828-0.118,47.467-2.919,54.135-2.987l0,0c0.475,0,1.149,0.141,1.78,0.811        c3.781,4.007,2.635,27.163,2.366,31.764c-0.033,0.591-0.515,1.056-1.109,1.071c-0.571,0.013-57.209,1.369-60.329,1.514        C419.456,396.518,416.642,396.588,414.058,396.588z M423.236,366.448c-6.594,0-28.536,0.69-34.072,9.556        c-1.797,2.882-1.666,6.34,0.402,10.573c0.104,0.216,0.204,0.462,0.311,0.734c1.006,5.821,15.525,7.807,32.446,6.795        c2.946-0.138,51.297-1.299,59.331-1.491c0.813-15.184-0.049-28.406-1.928-29.125c-6.59,0.07-53.637,2.958-54.112,2.987        C425.461,366.478,424.639,366.448,423.236,366.448z"/>
					</g>
				</g>
				<g>
					<path style="fill:#241726;" d="M483.184,388.351c-0.004,0-0.007,0-0.011,0l-92.71-0.933c-0.629-0.007-1.133-0.521-1.126-1.149       c0.006-0.628,0.523-1.133,1.149-1.126l92.71,0.933c0.629,0.007,1.133,0.521,1.126,1.149       C484.315,387.849,483.806,388.351,483.184,388.351z"/>
				</g>
				<g>
					<path style="fill:#241726;" d="M387.715,383.181c-0.602,0-1.104-0.471-1.135-1.079c-0.033-0.627,0.449-1.162,1.075-1.195       l93.808-4.897c0.62-0.034,1.164,0.45,1.195,1.078c0.033,0.627-0.449,1.162-1.075,1.195l-93.808,4.897       C387.755,383.181,387.735,383.181,387.715,383.181z"/>
				</g>
			</g>
			<g>
				<path style="fill:#241726;" d="M388.423,377.356c-0.589,0-1.089-0.457-1.133-1.055c-0.044-0.627,0.427-1.171,1.053-1.216      l93.788-6.836c0.571-0.059,1.171,0.423,1.217,1.052c0.044,0.627-0.427,1.171-1.053,1.216l-93.788,6.836      C388.481,377.355,388.452,377.356,388.423,377.356z"/>
			</g>
		</g>
		<g>
			<g>
				<path style="fill:#FFFFFF;" d="M411.509,227.952c0,0,0.388,6.205,5.042,6.981c4.654,0.776,4.266-9.696,7.369-8.532      c3.103,1.164,1.939,8.92,7.369,9.308s6.593-8.92,6.593-8.92"/>
			</g>
			<g>
				<path style="fill:#241726;" d="M431.636,236.858c-0.14,0-0.282-0.004-0.427-0.016c-3.921-0.28-5.079-3.699-5.923-6.195      c-0.502-1.484-0.978-2.886-1.766-3.182c-0.444,0.157-1.053,1.84-1.415,2.845c-0.964,2.667-2.277,6.314-5.741,5.744      c-5.481-0.913-5.972-7.743-5.99-8.033c-0.04-0.627,0.435-1.164,1.062-1.205c0.611-0.031,1.166,0.434,1.209,1.061      c0.004,0.053,0.398,5.318,4.092,5.933c1.517,0.248,2.268-1.616,3.228-4.273c0.691-1.915,1.289-3.57,2.568-4.16      c0.558-0.258,1.175-0.271,1.786-0.042c1.8,0.674,2.471,2.662,3.122,4.582c0.944,2.79,1.68,4.496,3.928,4.657      c4.162,0.361,5.399-7.84,5.383-7.927c0.076-0.625,0.673-1.062,1.269-0.988c0.624,0.078,1.066,0.647,0.989,1.27      C438.959,227.344,437.699,236.858,431.636,236.858z"/>
			</g>
		</g>
		<g>
			<g>
				<path style="fill:#FFFFFF;" d="M392.117,262.47c0,0,62.054-0.388,65.932-0.388"/>
			</g>
			<g>
				<path style="fill:#241726;" d="M392.118,263.607c-1.47,0.022-1.48-2.288-0.007-2.275c0.62-0.003,62.099-0.388,65.939-0.388      c0.629,0,1.138,0.509,1.138,1.138c0,0.629-0.509,1.138-1.138,1.138c-3.83,0-65.305,0.383-65.925,0.388      C392.123,263.607,392.12,263.607,392.118,263.607z"/>
			</g>
		</g>
		<g>
			<g>
				<path style="fill:#E17B8D;" d="M379.078,320.577c0,0,106.291-2.542,106.823,1.359c0.376,2.758-0.446,36.211-0.446,36.211      s-95.143,1.454-103.151,1.435C376.544,359.568,379.078,320.577,379.078,320.577z"/>
			</g>
			<g>
				<path style="fill:#241726;" d="M393.669,358.239c-0.629,0-1.138-0.509-1.138-1.138v-33.354c-0.022-1.476,2.297-1.476,2.275,0      v33.354C394.806,357.73,394.298,358.239,393.669,358.239z"/>
			</g>
			<g>
				<path style="fill:#241726;" d="M472.011,356.688c-0.618,0-1.124-0.492-1.138-1.112l-0.775-34.13      c-0.013-0.628,0.484-1.149,1.111-1.163c0.624-0.01,1.153,0.484,1.164,1.112l0.775,34.13c0.013,0.628-0.484,1.149-1.111,1.163      C472.029,356.688,472.02,356.688,472.011,356.688z"/>
			</g>
			<g>
				<path style="fill:#241726;" d="M464.3,348.931c-0.009,0.001-0.027,0.002-0.044,0h-58.176c-0.609,0-1.109-0.479-1.135-1.086      l-0.775-17.064c-0.016-0.302,0.093-0.598,0.298-0.821c0.204-0.222,0.489-0.354,0.793-0.367l58.176-2.327      c0.269-0.008,0.595,0.097,0.815,0.301c0.222,0.204,0.353,0.489,0.367,0.79l0.762,19.073      C465.63,348.148,465.066,348.945,464.3,348.931z M407.166,346.656h55.905l-0.682-17.072l-55.896,2.236L407.166,346.656z"/>
			</g>
			<g>
				<path style="fill:#241726;" d="M447.072,343.062c-2.455,0-4.21-2.314-5.794-4.403c-0.513-0.675-1.038-1.367-1.595-2.007      c-0.293-0.332-0.431-0.302-0.498-0.298c-0.755,0-2.18,1.379-3.326,2.488c-1.682,1.63-3.588,3.477-5.734,3.867      c-3.441,0.621-4.341-1.801-5.079-3.746c-0.46-1.21-0.933-2.459-1.942-3.341c-1.526-1.34-6.083,1.897-8.685,4.498      c-1.027,1.058-2.668-0.58-1.608-1.609c1.329-1.329,8.14-7.797,11.791-4.601c1.437,1.255,2.066,2.914,2.571,4.246      c0.811,2.14,1.129,2.575,2.544,2.315c1.469-0.267,3.11-1.858,4.561-3.263c1.697-1.644,3.226-3.167,5.028-3.127      c0.791,0.033,1.495,0.394,2.088,1.073c0.595,0.679,1.153,1.413,1.697,2.13c2.153,2.84,3.275,4.01,4.948,3.267      c2.488-1.106,5.643-6.561,6.647-8.569c0.282-0.562,0.964-0.784,1.526-0.509c0.562,0.281,0.789,0.964,0.509,1.526      c-0.407,0.813-4.079,7.995-7.758,9.631C448.288,342.93,447.661,343.062,447.072,343.062z"/>
			</g>
		</g>
		<g>
			<g>
				<path style="fill:#241726;" d="M78.775,426.114c-0.418,0-0.82-0.231-1.02-0.631c-0.278-0.563-0.049-1.245,0.513-1.525      c0.244-0.122,6.056-2.96,9.518-0.251c0.493,0.388,0.58,1.102,0.193,1.596c-0.389,0.495-1.104,0.581-1.597,0.194      c-1.937-1.52-5.785-0.154-7.101,0.498C79.12,426.076,78.946,426.114,78.775,426.114z"/>
			</g>
			<g>
				<path style="fill:#241726;" d="M71.708,433.233c-0.42,0-0.822-0.232-1.022-0.633c-0.278-0.562-0.049-1.244,0.513-1.523      c0.244-0.123,6.063-2.958,9.516-0.25c0.493,0.388,0.58,1.103,0.193,1.597c-0.391,0.493-1.104,0.579-1.597,0.193      c-1.935-1.519-5.781-0.153-7.101,0.498C72.048,433.195,71.877,433.233,71.708,433.233z"/>
			</g>
			<g>
				<path style="fill:#241726;" d="M63.443,426.287c-0.418,0-0.82-0.231-1.02-0.631c-0.278-0.563-0.049-1.245,0.513-1.525      c0.247-0.122,6.056-2.957,9.516-0.251c0.493,0.387,0.58,1.102,0.193,1.596c-0.389,0.495-1.104,0.579-1.597,0.194      c-1.937-1.521-5.783-0.158-7.098,0.498C63.787,426.249,63.614,426.287,63.443,426.287z"/>
			</g>
			<g>
				<path style="fill:#241726;" d="M86.074,433.137c-0.42,0-0.822-0.232-1.022-0.633c-0.278-0.562-0.049-1.244,0.513-1.523      c0.244-0.123,6.056-2.959,9.518-0.251c0.493,0.387,0.58,1.102,0.193,1.596c-0.389,0.495-1.104,0.581-1.597,0.194      c-1.931-1.511-5.781-0.152-7.103,0.499C86.413,433.099,86.242,433.137,86.074,433.137z"/>
			</g>
			<g>
				<path style="fill:#241726;" d="M107.713,433.371c-0.282,0-0.567-0.104-0.786-0.317c-2.14-2.052-7.003-0.269-7.054-0.253      c-0.582,0.225-1.244-0.068-1.469-0.655c-0.224-0.587,0.069-1.244,0.655-1.469c0.253-0.096,6.234-2.341,9.44,0.735      c0.453,0.434,0.469,1.154,0.036,1.609C108.311,433.253,108.013,433.371,107.713,433.371z"/>
			</g>
			<g>
				<path style="fill:#241726;" d="M101.883,426.678c-0.329,0-0.655-0.142-0.88-0.418c-2-2.443-6.87-1.352-6.921-1.34      c-0.607,0.134-1.222-0.236-1.364-0.85c-0.142-0.611,0.236-1.222,0.846-1.365c0.255-0.061,6.301-1.429,9.198,2.115      c0.398,0.487,0.327,1.203-0.16,1.601C102.392,426.594,102.137,426.678,101.883,426.678z"/>
			</g>
			<g>
				<path style="fill:#241726;" d="M115.598,429.356c-0.329,0-0.655-0.142-0.88-0.418c-2.002-2.442-6.867-1.351-6.921-1.34      c-0.607,0.136-1.222-0.236-1.364-0.85c-0.142-0.611,0.236-1.222,0.846-1.365c0.255-0.06,6.303-1.429,9.198,2.115      c0.398,0.487,0.327,1.203-0.16,1.601C116.107,429.272,115.851,429.356,115.598,429.356z"/>
			</g>
		</g>
		<g>
			<g>
				<path style="fill:#241726;" d="M423.607,421.802c-0.42,0-0.822-0.232-1.022-0.633c-0.278-0.562-0.049-1.244,0.513-1.523      c0.244-0.123,6.054-2.967,9.516-0.251c0.493,0.388,0.58,1.103,0.193,1.597c-0.391,0.492-1.104,0.58-1.597,0.193      c-1.922-1.514-5.781-0.152-7.101,0.499C423.947,421.765,423.775,421.802,423.607,421.802z"/>
			</g>
			<g>
				<path style="fill:#241726;" d="M416.535,428.923c-0.418,0-0.82-0.231-1.018-0.631c-0.28-0.563-0.051-1.245,0.511-1.525      c0.244-0.123,6.056-2.96,9.516-0.251c0.493,0.388,0.58,1.102,0.193,1.596c-0.391,0.497-1.104,0.58-1.597,0.194      c-1.937-1.52-5.783-0.157-7.098,0.498C416.879,428.885,416.706,428.923,416.535,428.923z"/>
			</g>
			<g>
				<path style="fill:#241726;" d="M408.27,421.977c-0.418,0-0.82-0.231-1.02-0.631c-0.278-0.563-0.049-1.245,0.513-1.525      c0.247-0.122,6.054-2.962,9.518-0.251c0.493,0.388,0.58,1.102,0.193,1.596c-0.389,0.495-1.104,0.581-1.597,0.194      c-1.937-1.519-5.785-0.156-7.101,0.498C408.614,421.939,408.441,421.977,408.27,421.977z"/>
			</g>
			<g>
				<path style="fill:#241726;" d="M430.901,428.826c-0.418,0-0.82-0.231-1.02-0.631c-0.278-0.563-0.049-1.245,0.513-1.525      c0.244-0.121,6.056-2.963,9.518-0.251c0.493,0.388,0.58,1.102,0.193,1.596c-0.389,0.494-1.104,0.58-1.597,0.194      c-1.94-1.521-5.785-0.154-7.101,0.498C431.245,428.789,431.072,428.826,430.901,428.826z"/>
			</g>
			<g>
				<path style="fill:#241726;" d="M452.542,429.06c-0.282,0-0.567-0.104-0.786-0.317c-2.144-2.052-7.005-0.271-7.054-0.253      c-0.582,0.224-1.244-0.068-1.469-0.655c-0.224-0.587,0.069-1.244,0.655-1.469c0.253-0.097,6.232-2.338,9.44,0.735      c0.453,0.434,0.469,1.154,0.036,1.609C453.14,428.942,452.842,429.06,452.542,429.06z"/>
			</g>
			<g>
				<path style="fill:#241726;" d="M446.713,422.368c-0.329,0-0.655-0.142-0.88-0.418c-1.982-2.418-6.872-1.351-6.918-1.34      c-0.613,0.147-1.224-0.238-1.366-0.848c-0.144-0.611,0.236-1.224,0.846-1.367c0.258-0.061,6.305-1.43,9.198,2.115      c0.398,0.487,0.327,1.203-0.16,1.601C447.221,422.283,446.966,422.368,446.713,422.368z"/>
			</g>
			<g>
				<path style="fill:#241726;" d="M460.427,425.045c-0.329,0-0.655-0.142-0.88-0.418c-1.98-2.419-6.87-1.352-6.918-1.34      c-0.613,0.148-1.224-0.238-1.366-0.848c-0.144-0.612,0.236-1.224,0.846-1.367c0.255-0.059,6.299-1.433,9.198,2.115      c0.398,0.485,0.327,1.202-0.16,1.601C460.936,424.961,460.681,425.045,460.427,425.045z"/>
			</g>
		</g>
		<g>
			<g>
				<path style="fill:#D45A41;" d="M74.771,238.44c0,0,52.248-0.854,54.882,1.78s1.317,50.028-1.317,50.907      c-2.634,0.878-53.565,0-56.2-0.878S70.38,238.44,74.771,238.44z"/>
			</g>
			<g>
				<path style="fill:#D45A41;" d="M75.295,246.066c0,0-18.545-2.956-25.112,9.937c-4.816,9.455-2.634,30.734,24.587,28.978      c17.722-1.143,4.018-8.276,4.018-8.276s-20.695,1.075-20.964-10.482c-0.385-16.553,15.982-5.948,17.739-12.094      C77.32,247.982,75.295,246.066,75.295,246.066z"/>
			</g>
			<g>
				<path style="fill:#1A1F36;" d="M82.821,244.453c0,0,41.39-1.344,41.39,0.806c0,2.15-5.375,11.826-18.007,14.782      S76.639,245.797,82.821,244.453z"/>
			</g>
			<g>
				<path style="fill:#FBFCFF;" d="M101.879,249.962c-5.221,0-8.771-1.405-9.005-1.499c-0.58-0.237-0.86-0.899-0.624-1.48      c0.233-0.581,0.889-0.866,1.48-0.629c0.08,0.033,8.329,3.26,17.969-0.541c0.587-0.23,1.246,0.053,1.475,0.64      c0.231,0.584-0.056,1.245-0.64,1.475C108.628,249.471,104.963,249.962,101.879,249.962z"/>
			</g>
			<g>
				<path style="fill:#FBFCFF;" d="M103.219,256.17c-4.712,0-8.478-1.426-8.714-1.517c-0.584-0.227-0.875-0.884-0.649-1.47      c0.224-0.585,0.884-0.881,1.469-0.652c0.08,0.029,7.996,3.009,14.717,0.021c0.573-0.254,1.246,0.002,1.502,0.578      c0.256,0.574-0.004,1.246-0.578,1.502C108.368,255.785,105.667,256.17,103.219,256.17z"/>
			</g>
			<g>
				<path style="fill:#241726;" d="M126.093,286.712c-0.038,0-0.078-0.002-0.116-0.006c-7.905-0.791-48.645-0.269-49.053-0.263      c-0.627,0.009-1.145-0.494-1.153-1.123c-0.009-0.628,0.495-1.144,1.122-1.152c1.686-0.022,41.277-0.529,49.311,0.274      c0.624,0.062,1.082,0.62,1.018,1.245C127.164,286.274,126.669,286.712,126.093,286.712z"/>
			</g>
		</g>
	</g>
	<g>
		<path style="fill:#241726;" d="M259.292,50.764c-0.418,0-0.82-0.231-1.018-0.63c-0.28-0.562-0.053-1.245,0.509-1.525    c0.935-0.467,1.833-1.018,2.671-1.639c0.507-0.371,1.217-0.269,1.591,0.237c0.375,0.505,0.269,1.218-0.236,1.592    c-0.944,0.7-1.957,1.321-3.008,1.845C259.637,50.726,259.463,50.764,259.292,50.764z M265.431,45.906    c-0.258,0-0.518-0.088-0.731-0.267c-0.482-0.403-0.544-1.121-0.14-1.602c0.904-1.078,1.704-2.281,2.377-3.574    c0.289-0.559,0.98-0.773,1.533-0.485c0.558,0.29,0.775,0.976,0.484,1.534c-0.749,1.442-1.642,2.783-2.653,3.987    C266.078,45.768,265.755,45.906,265.431,45.906z M216.906,42.891h-0.002c-0.209,0-0.429-0.016-0.66-0.046    c-0.622-0.081-1.06-0.653-0.98-1.275c0.082-0.627,0.662-1.061,1.277-0.98c0.131,0.018,0.262,0.024,0.38,0.026    c0.42,0,1.175-0.021,1.411-1.62c0.093-0.622,0.662-1.06,1.293-0.96c0.62,0.091,1.051,0.67,0.96,1.291    C220.25,41.592,218.91,42.891,216.906,42.891z M212.801,40.386c-0.418,0-0.82-0.231-1.018-0.63    c-0.509-1.022-0.766-2.249-0.764-3.65c0-0.46,0.029-0.94,0.084-1.437c0.071-0.625,0.673-1.069,1.258-1.003    c0.624,0.071,1.073,0.634,1.004,1.259c-0.047,0.409-0.071,0.804-0.071,1.184c-0.002,1.045,0.176,1.931,0.524,2.633    c0.28,0.562,0.053,1.245-0.509,1.525C213.145,40.348,212.972,40.386,212.801,40.386z M160.343,40.285    c-0.453,0-0.882-0.273-1.06-0.722c-0.229-0.584,0.06-1.244,0.644-1.474c0.906-0.357,1.393-1.254,1.446-2.671    c0.024-0.627,0.553-1.143,1.18-1.093c0.629,0.023,1.118,0.552,1.095,1.18c-0.089,2.335-1.115,4.005-2.89,4.701    C160.623,40.259,160.481,40.285,160.343,40.285z M155.987,39.776c-0.231,0-0.464-0.07-0.664-0.214    c-1.324-0.952-2.188-2.573-2.502-4.686c-0.091-0.622,0.338-1.2,0.96-1.292c0.635-0.081,1.2,0.339,1.293,0.959    c0.153,1.04,0.551,2.434,1.577,3.173c0.511,0.367,0.627,1.078,0.26,1.587C156.689,39.612,156.34,39.776,155.987,39.776z     M269.621,37.902c-0.102,0-0.207-0.013-0.311-0.043c-0.604-0.172-0.955-0.801-0.782-1.405c0.391-1.379,0.655-2.812,0.784-4.258    c0.056-0.628,0.6-1.096,1.235-1.032c0.624,0.056,1.086,0.609,1.031,1.234c-0.142,1.589-0.433,3.163-0.864,4.678    C270.572,37.575,270.117,37.902,269.621,37.902z M219.077,35.787c-0.518,0-0.984-0.353-1.109-0.879    c-0.298-1.275-0.749-2.679-1.34-4.175c-0.231-0.584,0.056-1.245,0.64-1.476c0.582-0.229,1.244,0.054,1.475,0.639    c0.633,1.599,1.118,3.11,1.442,4.495c0.142,0.611-0.238,1.223-0.849,1.366C219.248,35.777,219.161,35.787,219.077,35.787z     M161.732,32.138c-0.475,0-0.918-0.299-1.078-0.773c-0.431-1.272-1.031-2.604-1.782-3.96c-0.304-0.549-0.107-1.242,0.444-1.546    c0.544-0.304,1.24-0.107,1.546,0.444c0.818,1.474,1.471,2.932,1.946,4.332c0.202,0.595-0.118,1.241-0.713,1.443    C161.976,32.119,161.852,32.138,161.732,32.138z M213.358,31.536c-0.136,0-0.271-0.023-0.404-0.074    c-0.587-0.223-0.882-0.88-0.66-1.467c0.527-1.385,1.204-2.8,2.013-4.207c-0.538-0.996-1.115-1.993-1.726-2.973    c-0.331-0.533-0.169-1.234,0.364-1.566c0.538-0.331,1.238-0.171,1.569,0.364c0.826,1.33,1.6,2.689,2.293,4.041    c0.289,0.559,0.067,1.244-0.491,1.532c-0.078,0.04-0.158,0.07-0.238,0.09c-0.66,1.184-1.215,2.368-1.655,3.527    C214.249,31.257,213.816,31.536,213.358,31.536z M104.589,31.426c-0.109,0-0.222-0.017-0.331-0.05    c-0.602-0.183-0.94-0.818-0.758-1.419c0.022-0.074,0.567-1.845,1.764-4.391c0.267-0.571,0.942-0.812,1.513-0.547    c0.569,0.268,0.813,0.945,0.544,1.513c-1.12,2.386-1.64,4.071-1.644,4.088C105.527,31.11,105.076,31.426,104.589,31.426z     M154.043,31.312c-0.058,0-0.116-0.004-0.173-0.013c-0.62-0.093-1.049-0.673-0.953-1.294c0.22-1.461,0.598-3.009,1.12-4.605    c0.196-0.597,0.849-0.923,1.435-0.727c0.598,0.196,0.924,0.839,0.729,1.435c-0.484,1.475-0.833,2.9-1.035,4.236    C155.08,30.909,154.596,31.312,154.043,31.312z M270.43,28.892c-0.578,0-1.073-0.441-1.131-1.029    c-0.138-1.454-0.411-2.885-0.811-4.256c-0.176-0.603,0.171-1.234,0.775-1.41c0.607-0.181,1.233,0.171,1.411,0.774    c0.438,1.506,0.738,3.079,0.891,4.673c0.06,0.625-0.4,1.181-1.024,1.241C270.503,28.891,270.468,28.892,270.43,28.892z     M157.395,24.175c-0.347,0-0.689-0.159-0.913-0.459c-0.86-1.158-1.817-2.294-2.844-3.377c-0.431-0.455-0.411-1.175,0.044-1.607    c0.455-0.434,1.175-0.413,1.609,0.043c0.358,0.378,0.709,0.763,1.051,1.152c0.518-1.01,1.086-2.011,1.695-2.986    c0.333-0.535,1.04-0.692,1.566-0.363c0.533,0.332,0.695,1.034,0.362,1.567c-0.751,1.206-1.437,2.453-2.042,3.707    c0.131,0.168,0.258,0.337,0.384,0.507c0.375,0.504,0.269,1.216-0.233,1.592C157.871,24.102,157.633,24.175,157.395,24.175z     M217.851,23.65c-0.242,0-0.484-0.076-0.689-0.233c-0.5-0.38-0.598-1.094-0.215-1.594c0.94-1.234,1.966-2.429,3.048-3.553    c0.44-0.45,1.158-0.464,1.609-0.029c0.453,0.435,0.467,1.156,0.031,1.609c-1.022,1.06-1.991,2.187-2.879,3.353    C218.53,23.495,218.193,23.65,217.851,23.65z M108.44,23.169c-0.202,0-0.404-0.053-0.589-0.164    c-0.538-0.324-0.709-1.024-0.384-1.562c0.829-1.372,1.722-2.673,2.653-3.866c0.387-0.498,1.106-0.583,1.597-0.197    c0.495,0.387,0.584,1.102,0.198,1.596c-0.878,1.122-1.717,2.348-2.502,3.644C109.199,22.973,108.824,23.169,108.44,23.169z     M267.888,20.213c-0.409,0-0.802-0.221-1.006-0.608c-0.678-1.286-1.482-2.489-2.391-3.575c-0.402-0.481-0.338-1.199,0.142-1.602    c0.48-0.405,1.198-0.341,1.604,0.142c1.011,1.209,1.906,2.546,2.657,3.975c0.293,0.557,0.08,1.244-0.478,1.536    C268.248,20.17,268.068,20.213,267.888,20.213z M210.994,19.579c-0.349,0-0.693-0.16-0.915-0.463    c-0.889-1.209-1.826-2.381-2.786-3.486c-0.411-0.474-0.36-1.192,0.113-1.604c0.475-0.411,1.191-0.364,1.606,0.113    c0.998,1.15,1.973,2.371,2.897,3.628c0.373,0.507,0.264,1.219-0.242,1.591C211.465,19.507,211.23,19.579,210.994,19.579z     M151.148,17.577c-0.258,0-0.518-0.088-0.731-0.267c-1.129-0.945-2.319-1.831-3.541-2.631c-1.248-0.79,0.024-2.728,1.244-1.904    c1.297,0.849,2.564,1.788,3.759,2.793c0.482,0.403,0.544,1.121,0.14,1.602C151.794,17.439,151.472,17.577,151.148,17.577z     M224.151,17.107c-0.327,0-0.653-0.141-0.878-0.413c-0.4-0.484-0.331-1.202,0.153-1.602c1.209-0.998,2.479-1.928,3.775-2.765    c0.527-0.338,1.231-0.19,1.573,0.338c0.34,0.528,0.189,1.232-0.338,1.573c-1.222,0.79-2.419,1.667-3.561,2.609    C224.662,17.021,224.407,17.107,224.151,17.107z M114.052,16.026c-0.298,0-0.595-0.117-0.82-0.348    c-0.435-0.453-0.422-1.173,0.031-1.609c1.164-1.124,2.399-2.131,3.67-2.994c0.515-0.354,1.226-0.219,1.582,0.302    c0.351,0.52,0.218,1.226-0.302,1.58c-1.164,0.791-2.299,1.715-3.373,2.749C114.62,15.92,114.336,16.026,114.052,16.026z     M161.623,14.96c-0.249,0-0.498-0.081-0.707-0.247c-0.493-0.391-0.575-1.106-0.184-1.599c0.98-1.233,2.031-2.406,3.124-3.487    c0.449-0.443,1.169-0.439,1.609,0.009c0.442,0.447,0.438,1.168-0.009,1.609c-1.029,1.018-2.017,2.122-2.942,3.285    C162.29,14.813,161.956,14.96,161.623,14.96z M262.087,13.299c-0.242,0-0.484-0.076-0.689-0.233    c-1.133-0.862-2.371-1.61-3.679-2.221c-0.569-0.267-0.815-0.943-0.549-1.512c0.267-0.572,0.946-0.81,1.513-0.55    c1.455,0.68,2.833,1.513,4.092,2.474c0.5,0.38,0.598,1.094,0.216,1.594C262.767,13.144,262.429,13.299,262.087,13.299z     M205.022,12.717c-0.284,0-0.569-0.106-0.791-0.319c-1.084-1.048-2.206-2.03-3.339-2.92c-0.493-0.389-0.578-1.104-0.189-1.599    c0.391-0.492,1.106-0.574,1.597-0.19c1.191,0.939,2.373,1.972,3.513,3.072c0.451,0.437,0.464,1.156,0.027,1.609    C205.618,12.6,205.32,12.717,205.022,12.717z M143.549,12.614c-0.169,0-0.338-0.037-0.5-0.116    c-1.324-0.647-2.693-1.209-4.068-1.669c-0.595-0.2-0.915-0.844-0.718-1.44c0.2-0.595,0.851-0.911,1.442-0.718    c1.469,0.492,2.928,1.091,4.343,1.782c0.564,0.275,0.798,0.956,0.522,1.521C144.374,12.38,143.969,12.614,143.549,12.614z     M231.781,12.186c-0.422,0-0.826-0.236-1.024-0.64c-0.273-0.565-0.038-1.246,0.527-1.521c1.409-0.684,2.868-1.283,4.339-1.78    c0.595-0.202,1.242,0.12,1.442,0.713c0.202,0.595-0.118,1.241-0.713,1.442c-1.38,0.467-2.75,1.029-4.072,1.671    C232.118,12.149,231.947,12.186,231.781,12.186z M121.561,10.981c-0.444,0-0.866-0.261-1.049-0.697    c-0.244-0.58,0.029-1.246,0.609-1.49c1.469-0.618,3.006-1.081,4.568-1.379c0.624-0.112,1.213,0.288,1.331,0.905    c0.118,0.617-0.289,1.212-0.904,1.33c-1.409,0.268-2.793,0.685-4.115,1.241C121.859,10.952,121.708,10.981,121.561,10.981z     M134.945,9.745c-0.071,0-0.142-0.007-0.213-0.02c-1.464-0.275-2.919-0.423-4.323-0.441c-0.629-0.008-1.131-0.523-1.124-1.152    c0.007-0.628,0.451-1.138,1.151-1.123c1.535,0.019,3.124,0.181,4.719,0.481c0.618,0.116,1.022,0.71,0.906,1.327    C135.958,9.364,135.48,9.745,134.945,9.745z M253.916,9.448c-0.089,0-0.182-0.011-0.273-0.033c-1.36-0.338-2.806-0.565-4.297-0.68    c-0.627-0.048-1.095-0.594-1.049-1.221c0.049-0.628,0.644-1.08,1.222-1.048c1.617,0.123,3.188,0.372,4.67,0.74    c0.611,0.151,0.982,0.769,0.831,1.379C254.891,9.103,254.427,9.448,253.916,9.448z M240.379,9.293    c-0.531,0-1.006-0.375-1.113-0.919c-0.122-0.617,0.28-1.214,0.895-1.335c1.529-0.3,3.097-0.501,4.657-0.598    c0.678-0.022,1.166,0.44,1.206,1.065c0.038,0.627-0.438,1.166-1.064,1.205c-1.462,0.09-2.928,0.279-4.359,0.56    C240.525,9.286,240.452,9.293,240.379,9.293z M168.095,8.601c-0.344,0-0.687-0.157-0.909-0.453    c-0.378-0.502-0.278-1.215,0.224-1.593c1.275-0.96,2.611-1.817,3.966-2.547c0.551-0.3,1.242-0.092,1.542,0.461    c0.298,0.553,0.091,1.243-0.462,1.541c-1.255,0.678-2.493,1.472-3.677,2.363C168.575,8.526,168.335,8.601,168.095,8.601z     M197.871,7.122c-0.202,0-0.407-0.053-0.591-0.166c-1.284-0.782-2.595-1.459-3.892-2.012c-0.58-0.246-0.849-0.913-0.602-1.492    c0.247-0.577,0.92-0.849,1.491-0.601c1.4,0.594,2.808,1.322,4.186,2.161c0.538,0.327,0.707,1.026,0.38,1.564    C198.628,6.928,198.253,7.122,197.871,7.122z M176.078,4.329c-0.475,0-0.918-0.299-1.078-0.773    c-0.202-0.595,0.118-1.241,0.713-1.442c1.509-0.51,3.059-0.885,4.61-1.114c0.635-0.078,1.2,0.338,1.293,0.959    c0.091,0.622-0.338,1.2-0.96,1.292c-1.417,0.209-2.835,0.552-4.215,1.019C176.322,4.311,176.198,4.329,176.078,4.329z     M189.517,3.613c-0.084,0-0.173-0.01-0.26-0.03c-1.422-0.334-2.859-0.53-4.277-0.582c-1.433-0.019-1.471-2.394,0.084-2.273    c1.562,0.057,3.148,0.272,4.712,0.64c0.613,0.144,0.991,0.756,0.846,1.367C190.501,3.26,190.035,3.613,189.517,3.613z"/>
	</g>
	<g>
		<path style="fill:#241726;" d="M248.564,502.764l-0.096-2.275c1.482-0.001,2.888-0.152,4.275-0.448    c0.604-0.132,1.218,0.259,1.351,0.874c0.131,0.614-0.26,1.219-0.875,1.35C251.676,502.595,250.11,502.763,248.564,502.764z     M243.958,502.246c-0.08,0-0.162-0.009-0.244-0.027c-1.562-0.344-3.082-0.818-4.521-1.405c-0.58-0.238-0.86-0.902-0.622-1.483    c0.238-0.583,0.898-0.862,1.484-0.623c1.317,0.539,2.715,0.973,4.148,1.29c0.615,0.136,1.002,0.743,0.866,1.356    C244.951,501.884,244.48,502.246,243.958,502.246z M257.302,500.91c-0.442,0-0.862-0.259-1.046-0.69    c-0.247-0.578,0.022-1.246,0.6-1.493c1.3-0.557,2.595-1.245,3.852-2.046c0.529-0.334,1.231-0.184,1.571,0.347    c0.338,0.53,0.182,1.233-0.349,1.571c-1.36,0.868-2.766,1.615-4.181,2.219C257.604,500.881,257.451,500.91,257.302,500.91z     M200.501,499.721c-1.495,0-3.013-0.172-4.512-0.511c-0.613-0.139-0.998-0.748-0.858-1.361c0.136-0.613,0.742-0.996,1.36-0.859    c1.335,0.302,2.684,0.455,4.01,0.455l0.231-0.001c0.627-0.009,1.145,0.493,1.153,1.122c0.009,0.629-0.493,1.144-1.122,1.153    L200.501,499.721z M205.247,499.108c-0.507,0-0.966-0.339-1.1-0.85c-0.16-0.608,0.204-1.23,0.813-1.389l0.549-0.152    c1.26-0.37,2.486-0.786,3.644-1.236c1.366-0.555,2.21,1.604,0.826,2.12c-1.217,0.474-2.506,0.912-3.83,1.3l-0.615,0.171    C205.438,499.096,205.342,499.108,205.247,499.108z M235.587,498.815c-0.209,0-0.42-0.057-0.609-0.177    c-1.322-0.839-2.591-1.806-3.768-2.877c-0.464-0.422-0.498-1.142-0.076-1.606c0.422-0.464,1.142-0.497,1.609-0.076    c1.08,0.982,2.242,1.87,3.453,2.637c0.531,0.337,0.689,1.039,0.351,1.57C236.331,498.629,235.962,498.815,235.587,498.815z     M191.943,497.762c-0.16,0-0.324-0.033-0.478-0.106c-1.402-0.65-2.782-1.454-4.106-2.391c-0.513-0.363-0.633-1.073-0.271-1.586    c0.367-0.515,1.078-0.631,1.586-0.271c1.211,0.858,2.471,1.593,3.746,2.184c0.571,0.264,0.818,0.941,0.555,1.511    C192.783,497.518,192.372,497.762,191.943,497.762z M264.976,496.066c-0.322,0-0.64-0.136-0.866-0.4    c-0.407-0.478-0.349-1.195,0.129-1.603c1.098-0.936,2.168-1.967,3.177-3.065c0.427-0.461,1.149-0.489,1.609-0.066    c0.462,0.425,0.491,1.145,0.067,1.607c-1.073,1.164-2.208,2.258-3.377,3.254C265.5,495.977,265.238,496.066,264.976,496.066z     M213.703,495.79c-0.407,0-0.8-0.219-1.004-0.602c-0.295-0.555-0.084-1.244,0.469-1.54c1.335-0.711,2.584-1.493,3.71-2.323    c0.507-0.372,1.22-0.267,1.591,0.241c0.373,0.505,0.264,1.217-0.24,1.59c-1.215,0.895-2.557,1.736-3.99,2.501    C214.067,495.747,213.885,495.79,213.703,495.79z M293.151,495.737l-0.144-1.139l0.027-1.138c0.989,0.054,1.689-0.062,2.482-0.188    c0.615-0.097,1.217-0.198,1.806-0.302c0.604-0.118,1.209,0.301,1.317,0.921c0.109,0.619-0.302,1.21-0.922,1.319    c-0.602,0.107-1.217,0.21-1.846,0.31C294.962,495.665,294.047,495.737,293.151,495.737z M288.537,495.028    c-0.113,0-0.227-0.017-0.34-0.052c-1.493-0.468-2.962-1.16-4.37-2.058c-0.531-0.338-0.687-1.041-0.349-1.57    c0.342-0.532,1.049-0.681,1.571-0.348c1.24,0.79,2.528,1.397,3.828,1.805c0.6,0.188,0.933,0.826,0.747,1.425    C289.47,494.717,289.021,495.028,288.537,495.028z M301.974,494.318c-0.518,0-0.986-0.354-1.109-0.879    c-0.142-0.612,0.238-1.224,0.851-1.366c1.555-0.363,2.993-0.75,4.321-1.153c1.411-0.453,2.077,1.771,0.662,2.177    c-1.373,0.417-2.859,0.816-4.468,1.191C302.145,494.308,302.058,494.318,301.974,494.318z M228.868,492.742    c-0.333,0-0.664-0.147-0.889-0.428c-0.962-1.205-1.857-2.513-2.662-3.887c-0.318-0.542-0.136-1.239,0.407-1.556    c0.544-0.317,1.24-0.137,1.557,0.408c0.749,1.28,1.582,2.496,2.475,3.616c0.393,0.491,0.311,1.207-0.18,1.599    C229.368,492.661,229.117,492.742,228.868,492.742z M184.54,492.549c-0.289,0-0.578-0.11-0.8-0.329    c-1.118-1.105-2.155-2.308-3.088-3.577c-0.373-0.507-0.264-1.219,0.242-1.591c0.502-0.371,1.217-0.266,1.589,0.242    c0.864,1.173,1.826,2.286,2.857,3.308c0.447,0.442,0.451,1.162,0.009,1.609C185.127,492.437,184.834,492.549,184.54,492.549z     M310.665,491.657c-0.453,0-0.88-0.272-1.058-0.719c-0.231-0.583,0.053-1.245,0.638-1.476c1.446-0.572,2.797-1.191,4.021-1.837    c0.551-0.294,1.244-0.083,1.537,0.473c0.293,0.555,0.08,1.244-0.475,1.537c-1.295,0.685-2.724,1.339-4.243,1.942    C310.947,491.631,310.805,491.657,310.665,491.657z M220.963,490.379c-0.28,0-0.56-0.103-0.78-0.31    c-0.458-0.431-0.478-1.151-0.047-1.609c1.022-1.083,1.891-2.232,2.584-3.414c0.16-0.271,0.413-0.452,0.695-0.525    c-0.078-0.09-0.142-0.193-0.191-0.309c-0.613-1.48-1.118-2.982-1.5-4.466c-0.156-0.609,0.211-1.229,0.82-1.385    c0.602-0.158,1.226,0.211,1.384,0.819c0.142,0.553,0.302,1.11,0.48,1.666c0.282-1.27,0.36-2.521,0.193-3.77    c-0.084-0.622,0.351-1.195,0.973-1.281c0.613-0.088,1.195,0.351,1.28,0.974c0.222,1.642,0.098,3.284-0.311,4.941    c-0.151,0.609-0.764,0.976-1.38,0.829c-0.062-0.017-0.124-0.037-0.182-0.062c0.111,0.289,0.224,0.577,0.344,0.864    c0.24,0.58-0.036,1.245-0.615,1.486c-0.049,0.02-0.098,0.037-0.149,0.05c0.311,0.359,0.375,0.889,0.122,1.32    c-0.78,1.33-1.753,2.616-2.895,3.825C221.568,490.259,221.265,490.379,220.963,490.379z M280.896,490.255    c-0.287,0-0.575-0.108-0.795-0.325c-1.078-1.056-2.117-2.26-3.093-3.577c-0.373-0.505-0.267-1.217,0.24-1.592    c0.502-0.372,1.215-0.267,1.591,0.239c0.902,1.222,1.862,2.334,2.853,3.306c0.449,0.44,0.458,1.16,0.018,1.609    C281.485,490.14,281.192,490.255,280.896,490.255z M271.148,489.395c-0.236,0-0.471-0.072-0.675-0.221    c-0.504-0.373-0.613-1.085-0.24-1.591c0.88-1.195,1.7-2.441,2.435-3.7c0.315-0.544,1.013-0.724,1.555-0.408    c0.542,0.317,0.727,1.013,0.409,1.556c-0.775,1.329-1.64,2.641-2.568,3.9C271.841,489.235,271.496,489.395,271.148,489.395z     M318.646,487.352c-0.344,0-0.684-0.157-0.909-0.453c-0.378-0.502-0.278-1.215,0.224-1.593c2.171-1.635,2.904-2.845,2.913-2.857    c0.32-0.533,1.011-0.715,1.553-0.405c0.538,0.314,0.727,1.001,0.418,1.543c-0.091,0.16-0.966,1.617-3.515,3.537    C319.126,487.278,318.886,487.352,318.646,487.352z M179.195,485.228c-0.418,0-0.82-0.231-1.018-0.631    c-0.753-1.511-1.317-3.02-1.68-4.488c-0.151-0.61,0.222-1.226,0.831-1.376c0.613-0.159,1.224,0.222,1.377,0.832    c0.322,1.304,0.829,2.656,1.506,4.019c0.28,0.562,0.051,1.245-0.511,1.525C179.539,485.19,179.366,485.228,179.195,485.228z     M275.475,482.978c-0.4,0-0.786-0.211-0.995-0.587c-0.742-1.341-1.426-2.76-2.028-4.22c-0.24-0.581,0.036-1.245,0.615-1.485    c0.582-0.241,1.249,0.036,1.486,0.617c0.2,0.485,0.411,0.965,0.629,1.44c0.391-0.99,0.724-1.97,0.993-2.924    c0.171-0.607,0.802-0.963,1.404-0.785c0.604,0.17,0.958,0.799,0.786,1.403c-0.409,1.441-0.946,2.93-1.602,4.426    c-0.071,0.163-0.178,0.301-0.304,0.409c0.004,0.007,0.007,0.012,0.011,0.019c0.304,0.549,0.107,1.241-0.444,1.546    C275.853,482.932,275.662,482.978,275.475,482.978z M177.202,476.464c-0.038,0-0.076-0.002-0.113-0.006    c-0.624-0.061-1.082-0.618-1.022-1.243c0.184-1.862,0.798-3.471,1.826-4.786c0.389-0.497,1.102-0.582,1.597-0.194    c0.493,0.387,0.58,1.102,0.193,1.596c-0.758,0.969-1.213,2.182-1.351,3.606C178.275,476.025,177.78,476.464,177.202,476.464z     M222.112,476.109c-0.613,0-1.12-0.488-1.138-1.104l-0.009-0.43c0.023-4.17,2.318-4.469,3.937-2.519    c0.393,0.49,0.315,1.206-0.173,1.6c-0.431,0.341-1.033,0.325-1.437-0.01c-0.029,0.229-0.051,0.523-0.051,0.892l0.009,0.401    c0.018,0.628-0.475,1.152-1.104,1.171C222.134,476.109,222.123,476.109,222.112,476.109z M272.016,474.572    c-0.498,0-0.955-0.329-1.095-0.832c-0.455-1.634-0.766-3.196-0.926-4.643c-0.069-0.624,0.382-1.186,1.006-1.255    c0.613-0.069,1.186,0.381,1.255,1.006c0.144,1.325,0.433,2.766,0.855,4.281c0.169,0.605-0.184,1.233-0.791,1.401    C272.221,474.558,272.116,474.572,272.016,474.572z M278.097,472.794c-0.029,0-0.056-0.001-0.082-0.003    c-0.627-0.044-1.1-0.589-1.055-1.215c0.027-0.378,0.042-0.748,0.042-1.108c0.002-1.114-0.133-2.116-0.4-2.979    c-0.187-0.6,0.149-1.238,0.749-1.423c0.611-0.187,1.24,0.151,1.424,0.75c0.335,1.083,0.504,2.313,0.502,3.655    c0,0.411-0.016,0.834-0.047,1.267C279.188,472.337,278.688,472.794,278.097,472.794z M271.383,465.598    c-0.127,0-0.253-0.021-0.38-0.066c-0.591-0.209-0.902-0.859-0.693-1.451c1.294-3.022,3.292-2.63,5.339-1.475    c0.533,0.332,0.695,1.034,0.362,1.567c-0.333,0.534-1.035,0.695-1.566,0.363c-0.675-0.421-1.078-0.484-1.257-0.484    c-0.136,0-0.453,0-0.731,0.786C272.289,465.307,271.852,465.598,271.383,465.598z"/>
	</g>
</g>















</svg>
