<?xml version="1.0" encoding="UTF-8"?>
<!-- Generator: Adobe Illustrator 27.0.0, SVG Export Plug-In . SVG Version: 6.00 Build 0)  -->
<svg xmlns="http://www.w3.org/2000/svg" xmlns:xlink="http://www.w3.org/1999/xlink" version="1.1" id="Capa_1" x="0px" y="0px" viewBox="0 0 512 512" style="enable-background:new 0 0 512 512;" xml:space="preserve" width="512" height="512">
<g>
	<g>
		<path style="fill:#DD7A39;" d="M507.05,106.689l-2.749,33.547c0,0-11.369-0.198-21.513,7.699l-8.536,292.583l-99.094,42.462    L41.543,447.682L32.38,153.348c-6.004-5.786-14.033-10.604-24.68-12.562l-2.75-35.747h71.493L257.376,0l172.133,110.538    L507.05,106.689z"/>
		<path style="fill:#FFCA93;" d="M336.568,446.191l2.199,34.646l-153.436-2.522c0,0,0.551-32.675,1.238-33.225    c0.595-0.477-114.386,1.939-145.027,2.591l1.419,45.62h429.749l1.541-52.784L336.568,446.191z"/>
		<path style="fill:#FFCA93;" d="M398.171,168.354l0.364-7.871c0.5-10.847-1.222-17.607-4.848-19.033    c-6.603-2.6-20.638,10.108-27.943,18.724l-3.417,4.031l-0.451-5.265c-1.058-12.333-4.147-19.569-8.935-20.93    c-8.957-2.54-23.64,13.996-28.535,20.586l-3.299,4.435l-0.652-5.487c-1.522-12.806-4.811-20.143-9.511-21.215    c-8.546-1.952-21.702,15.317-26.046,22.137l-3.583,5.623l-0.468-6.651c-0.775-11.029-3.318-17.463-7.355-18.609    c-6.948-1.994-19.454,11.057-25.694,19.739l-2.832,3.941l-1.098-4.728c-2.987-12.883-7.248-20.05-12.321-20.727    c-8.539-1.175-19.164,14.971-22.555,21.273l-2.062,3.833l-1.862-3.936c-6.871-14.516-13.797-22.003-19.739-21.535    c-8.21,0.575-14.628,15.533-16.409,21.247l-1.528,4.91l-2.496-4.495c-7.777-14.016-15.358-21.034-21.905-20.314    c-9.214,1.018-15.894,17.069-17.69,23.168l-1.372,4.657l-2.598-4.102c-11.346-17.916-17.756-19.532-20.538-18.903    c-5.396,1.211-7.947,12.354-8.416,16.162l-0.734,5.961l-3.291-5.024c-13.158-20.097-19.266-20.854-21.273-20.233    c-4.865,1.482-6.29,14.677-6.217,20.834l0.071,6.055l-3.941-4.597c-18.007-21.008-28.788-24.399-33.613-24.551    c-3.655-0.087-5.199,1.451-5.264,1.517l-3.262-2.953c0.273-0.309,2.788-2.986,8.281-2.968c9.083,0.072,20.354,7.453,33.543,21.95    c0.554-6.825,2.489-17.473,9.115-19.494c6.116-1.857,13.552,3.753,23.256,17.614c1.397-5.441,4.463-13.141,10.774-14.563    c6.473-1.476,13.952,4.133,22.763,17.083c2.789-7.175,9.432-20.826,19.922-21.985c7.797-0.861,15.826,5.348,23.864,18.479    c2.822-6.86,9.179-19.176,18.643-19.843c7.624-0.541,14.885,6.124,22.2,20.332c4.357-7.083,14.504-21.334,24.916-19.939    c6.507,0.869,11.397,7.312,14.889,19.658c5.584-6.942,17.986-20.518,27.674-17.756c5.17,1.467,8.43,6.906,9.898,16.566    c5.728-7.803,17.349-21.393,27.331-19.122c6.06,1.383,10.059,7.907,12.161,19.895c6.141-7.321,19.444-21.173,30.059-18.156    c6.081,1.727,9.882,8.245,11.559,19.868c6.451-6.843,20.377-19.927,29.596-16.289c4.693,1.846,7.221,7.259,7.656,16.477    c5.515-6.997,15.406-17.626,23.191-15.406c4.723,1.34,7.566,6.691,8.636,16.298c5.587-6.773,15.015-16.497,21.314-14.015    c2.869,1.133,4.455,4.252,4.825,9.616c5.817-8.932,17.655-20.117,38.953-14.978l-1.031,4.277    c-29.521-7.126-38.093,20.411-38.44,21.586l-4.293-0.884c1.586-13.537-1.079-15.309-1.63-15.525    c-3.293-1.31-12.845,7.79-19.714,17.089l-3.734,5.057l-0.233-6.283c-0.532-14.372-3.896-17.45-5.854-18.005    c-6.057-1.732-17.695,12.157-22.381,19.149L398.171,168.354z"/>
		<g>
			<polygon style="fill:#FFCA93;" points="128.705,111.456 381.299,111.456 260.31,21.631    "/>
			<g>
				<path style="fill:#594343;" d="M207.256,100.215c-0.96,0.056-1.925,0.139-2.898,0.249c-0.974,0.113-1.925,0.258-2.857,0.438      c-0.93,0.182-1.772,0.397-2.522,0.646c0.167-1.25,0.36-2.641,0.584-4.169c0.223-1.528,0.479-3.113,0.772-4.754      c0.292-1.64,0.583-3.294,0.875-4.961c0.291-1.669,0.59-3.267,0.896-4.796c0.695-3.642,1.433-7.354,2.211-11.134l7.297-0.958      c-0.752,3.226-1.474,6.367-2.169,9.424c-0.306,1.307-0.612,2.662-0.917,4.065c-0.306,1.405-0.598,2.773-0.875,4.108      c-0.278,1.334-0.527,2.626-0.751,3.877c-0.223,1.251-0.403,2.363-0.542,3.336c0.694-0.055,1.439-0.089,2.231-0.104      c0.793-0.013,1.493-0.021,2.105-0.021c0.028,0.529,0.069,1.051,0.125,1.565c0.056,0.514,0.117,0.98,0.189,1.396      c0.067,0.416,0.124,0.785,0.167,1.105c0.041,0.319,0.076,0.535,0.104,0.646c-0.223,0-0.438-0.007-0.646-0.021      c-0.21-0.013-0.425-0.02-0.648-0.02C209.125,100.132,208.214,100.159,207.256,100.215z"/>
				<path style="fill:#594343;" d="M216.679,100.736c-0.737,0.071-1.496,0.153-2.272,0.251c-0.778,0.098-1.48,0.187-2.107,0.271      c-0.624,0.083-0.965,0.139-1.021,0.167c0.277-1.195,0.563-2.523,0.854-3.983c0.292-1.459,0.592-2.987,0.897-4.587      c0.306-1.598,0.598-3.218,0.876-4.857c0.278-1.641,0.542-3.226,0.792-4.754c0.585-3.558,1.168-7.213,1.751-10.966l6.506-1.042      c-0.641,3.725-1.266,7.38-1.878,10.966c-0.249,1.529-0.507,3.113-0.771,4.754c-0.265,1.641-0.529,3.267-0.792,4.878      c-0.264,1.613-0.507,3.176-0.73,4.691c-0.223,1.516-0.431,2.884-0.624,4.106C217.908,100.631,217.414,100.668,216.679,100.736z"/>
				<path style="fill:#594343;" d="M237.632,94.169c-0.474,0.974-1.112,1.856-1.918,2.647c-0.806,0.793-1.745,1.489-2.814,2.085      c-1.071,0.598-2.198,1.099-3.378,1.502c-1.183,0.403-2.391,0.709-3.629,0.918c-1.236,0.208-2.426,0.312-3.564,0.312      c-1.029,0-1.988-0.084-2.877-0.249c1.334-4.865,2.398-9.765,3.189-14.699c0.793-4.935,1.55-9.903,2.272-14.907      c1.445-0.306,2.946-0.577,4.504-0.813c1.557-0.236,3.168-0.355,4.836-0.355c0.694,0,1.432,0.084,2.21,0.251      c0.778,0.167,1.487,0.473,2.126,0.917c0.64,0.445,1.173,1.028,1.605,1.752c0.431,0.723,0.648,1.64,0.648,2.751      c0,1.056-0.175,2.043-0.523,2.961c-0.347,0.917-0.791,1.75-1.333,2.502c-0.542,0.75-1.162,1.396-1.856,1.938      c-0.696,0.542-1.405,0.952-2.127,1.229c0.36,0.195,0.735,0.474,1.125,0.834c0.39,0.362,0.75,0.785,1.084,1.272      c0.334,0.486,0.605,1.062,0.813,1.73c0.208,0.668,0.314,1.418,0.314,2.251C238.341,92.139,238.102,93.195,237.632,94.169z       M228.478,88.436c-0.097,0.514-0.188,1.006-0.27,1.479c-0.085,0.474-0.174,0.967-0.272,1.481      c-0.097,0.516-0.201,1.119-0.312,1.814c0.527-0.057,1.126-0.152,1.793-0.293c0.666-0.139,1.305-0.354,1.917-0.646      c0.612-0.293,1.127-0.681,1.544-1.169c0.416-0.485,0.624-1.076,0.624-1.771c0-0.5-0.132-0.917-0.395-1.251      c-0.265-0.333-0.598-0.611-1.001-0.834c-0.403-0.222-0.841-0.382-1.314-0.479c-0.473-0.098-0.917-0.146-1.333-0.146      c-0.141,0-0.258,0-0.356,0c-0.098,0-0.202,0.015-0.312,0.042C228.681,87.331,228.576,87.92,228.478,88.436z M230.48,77.657      c-0.069,0.416-0.146,0.854-0.23,1.314c-0.082,0.457-0.173,0.911-0.271,1.355c-0.098,0.444-0.174,0.833-0.23,1.167      c0.612-0.111,1.225-0.265,1.836-0.458c0.612-0.195,1.16-0.41,1.646-0.648c0.487-0.234,0.876-0.492,1.168-0.77      c0.293-0.277,0.439-0.585,0.439-0.919c0-0.416-0.126-0.757-0.376-1.021c-0.251-0.263-0.577-0.479-0.98-0.646      c-0.403-0.167-0.821-0.284-1.251-0.354c-0.431-0.069-0.812-0.104-1.146-0.104h-0.417      C230.612,76.878,230.549,77.239,230.48,77.657z"/>
				<path style="fill:#594343;" d="M237.506,101.507c0.751-3.697,1.472-7.311,2.168-10.84c0.249-1.502,0.527-3.065,0.835-4.691      c0.306-1.626,0.59-3.239,0.854-4.837c0.265-1.6,0.514-3.141,0.75-4.628c0.236-1.487,0.425-2.842,0.564-4.067      c1.585-0.499,3.294-0.868,5.13-1.104c1.834-0.236,3.653-0.355,5.461-0.355c1.084,0,1.981,0.126,2.69,0.375      c0.709,0.251,1.265,0.605,1.667,1.064c0.403,0.458,0.688,0.995,0.854,1.604c0.167,0.613,0.251,1.294,0.251,2.045      c0,1.112-0.194,2.203-0.583,3.273c-0.39,1.069-0.912,2.084-1.564,3.044c-0.653,0.958-1.403,1.834-2.251,2.626      c-0.85,0.793-1.758,1.439-2.731,1.94c0.501,1.112,1.034,2.328,1.605,3.648c0.57,1.32,1.105,2.578,1.606,3.773      c0.555,1.391,1.125,2.781,1.708,4.171l-6.463,2.25c-0.555-1.778-1.056-3.445-1.5-5.004c-0.195-0.639-0.39-1.299-0.583-1.979      c-0.195-0.681-0.377-1.327-0.543-1.94c-0.166-0.611-0.307-1.16-0.418-1.646c-0.11-0.487-0.18-0.882-0.208-1.189l-0.542,0.167      c-0.167,0.891-0.368,1.934-0.604,3.128c-0.236,1.194-0.453,2.35-0.646,3.46c-0.249,1.308-0.501,2.628-0.75,3.961      L237.506,101.507z M247.306,83.411c0.527-0.056,1.173-0.277,1.938-0.667c0.765-0.388,1.494-0.854,2.19-1.396      c0.693-0.542,1.292-1.105,1.793-1.689c0.5-0.584,0.75-1.097,0.75-1.544c0-0.306-0.098-0.549-0.291-0.729      c-0.194-0.182-0.466-0.321-0.814-0.418c-0.347-0.096-0.729-0.159-1.145-0.186c-0.419-0.028-0.85-0.042-1.295-0.042      c-0.305,0-0.617,0.007-0.936,0.02c-0.32,0.015-0.604,0.021-0.856,0.021L247.306,83.411z"/>
				<path style="fill:#594343;" d="M268.903,101.006c-0.834,0.141-1.585,0.267-2.252,0.377c0.112-0.919,0.223-1.821,0.334-2.712      c0.084-0.776,0.16-1.557,0.229-2.335c0.069-0.776,0.132-1.444,0.189-2.001h-3.629l-1.667,6.005      c-0.611,0.083-1.334,0.173-2.168,0.271c-0.835,0.097-1.613,0.187-2.336,0.271c-0.891,0.111-1.765,0.223-2.627,0.334      c1.112-3.698,2.209-7.34,3.295-10.926c0.443-1.501,0.909-3.07,1.397-4.711c0.485-1.639,0.973-3.274,1.459-4.9      c0.486-1.626,0.952-3.189,1.396-4.691c0.444-1.5,0.834-2.877,1.168-4.128c1.891-0.139,3.816-0.306,5.775-0.501      c1.96-0.193,3.87-0.457,5.732-0.791c-0.082,0.891-0.173,1.995-0.271,3.315c-0.098,1.32-0.186,2.759-0.271,4.316      c-0.082,1.557-0.167,3.183-0.249,4.878c-0.084,1.695-0.167,3.365-0.25,5.003c-0.141,3.837-0.292,7.909-0.459,12.217      c-0.835,0.14-1.668,0.251-2.502,0.333C270.502,100.744,269.738,100.868,268.903,101.006z M264.775,90.166      c0.111,0,0.312-0.007,0.605-0.021c0.291-0.014,0.596-0.026,0.917-0.041c0.318-0.013,0.618-0.028,0.897-0.042      c0.275-0.015,0.471-0.035,0.583-0.062c0-0.167,0.02-0.451,0.062-0.856c0.042-0.402,0.083-0.861,0.124-1.375      c0.043-0.514,0.091-1.078,0.147-1.689c0.054-0.611,0.11-1.209,0.167-1.793c0.11-1.418,0.249-2.946,0.416-4.587l0.25-3.627      l-0.625,0.041l-0.96,3.586L264.775,90.166z"/>
				<path style="fill:#594343;" d="M274.074,101.507c0.75-3.697,1.473-7.311,2.168-10.84c0.25-1.502,0.527-3.065,0.835-4.691      c0.306-1.626,0.59-3.239,0.854-4.837c0.264-1.6,0.514-3.141,0.75-4.628c0.236-1.487,0.424-2.842,0.564-4.067      c1.585-0.499,3.293-0.868,5.129-1.104c1.835-0.236,3.653-0.355,5.462-0.355c1.084,0,1.98,0.126,2.69,0.375      c0.709,0.251,1.265,0.605,1.668,1.064c0.403,0.458,0.688,0.995,0.854,1.604c0.167,0.613,0.251,1.294,0.251,2.045      c0,1.112-0.195,2.203-0.584,3.273c-0.39,1.069-0.912,2.084-1.564,3.044c-0.652,0.958-1.402,1.834-2.25,2.626      c-0.85,0.793-1.759,1.439-2.732,1.94c0.501,1.112,1.035,2.328,1.605,3.648c0.569,1.32,1.105,2.578,1.605,3.773      c0.556,1.391,1.125,2.781,1.709,4.171l-6.463,2.25c-0.556-1.778-1.057-3.445-1.5-5.004c-0.195-0.639-0.391-1.299-0.584-1.979      c-0.195-0.681-0.377-1.327-0.542-1.94c-0.167-0.611-0.308-1.16-0.418-1.646c-0.11-0.487-0.181-0.882-0.208-1.189l-0.542,0.167      c-0.167,0.891-0.369,1.934-0.604,3.128c-0.236,1.194-0.453,2.35-0.647,3.46c-0.25,1.308-0.501,2.628-0.75,3.961L274.074,101.507      z M283.873,83.411c0.527-0.056,1.174-0.277,1.938-0.667c0.766-0.388,1.494-0.854,2.191-1.396      c0.693-0.542,1.292-1.105,1.793-1.689c0.5-0.584,0.75-1.097,0.75-1.544c0-0.306-0.098-0.549-0.291-0.729      c-0.195-0.182-0.466-0.321-0.814-0.418c-0.348-0.096-0.729-0.159-1.146-0.186c-0.418-0.028-0.85-0.042-1.294-0.042      c-0.306,0-0.618,0.007-0.938,0.02c-0.32,0.015-0.604,0.021-0.855,0.021L283.873,83.411z"/>
				<path style="fill:#594343;" d="M295.633,100.84l1.918-8.38c0-1.196-0.021-2.495-0.062-3.9c-0.041-1.403-0.103-2.814-0.189-4.232      c-0.083-1.418-0.167-2.786-0.249-4.106c-0.085-1.32-0.154-2.489-0.209-3.503c-0.056-1.015-0.141-2.133-0.251-3.356l6.797-2.586      v5.088c0,0.694,0,1.403,0,2.127c0,0.722-0.007,1.431-0.02,2.125c-0.015,0.696-0.022,1.35-0.022,1.96c0,0.613,0,1.127,0,1.543      c0.361-0.945,0.8-2.112,1.314-3.503c0.514-1.39,0.993-2.736,1.439-4.043c0.527-1.529,1.069-3.141,1.626-4.837l6.463,1.459      c-1.196,2.391-2.363,4.767-3.503,7.13c-0.473,1.028-0.974,2.092-1.501,3.189c-0.528,1.099-1.058,2.196-1.585,3.295      c-0.528,1.097-1.043,2.161-1.543,3.189c-0.499,1.03-0.959,1.988-1.375,2.877c-0.141,0.724-0.314,1.516-0.522,2.376      c-0.208,0.863-0.409,1.682-0.604,2.46c-0.25,0.917-0.514,1.834-0.791,2.753L295.633,100.84z"/>
			</g>
		</g>
	</g>
	<g>
		<path style="fill:#7BB4D0;" d="M390.666,417.689c0,0-26.084-110.123,16.42-111.09c42.506-0.967,18.354,108.676,18.354,108.676    L390.666,417.689z"/>
		
			<rect x="343.714" y="358.978" transform="matrix(0.011 -0.9999 0.9999 0.011 41.2019 764.0115)" style="fill:#DD7A39;" width="126.22" height="4.4"/>
		
			<rect x="409.986" y="343.161" transform="matrix(0.0178 -0.9998 0.9998 0.0178 30.9311 779.4149)" style="fill:#DD7A39;" width="4.4" height="61.605"/>
		<path style="fill:#594343;" d="M384.87,424.319l-0.399-1.742c-0.804-3.495-19.397-85.934,3.086-114.165    c5.029-6.314,11.743-9.515,19.953-9.515c8.256,0,15.016,3.216,20.096,9.56c22.535,28.15,4.553,109.821,3.775,113.283l-0.378,1.686    L384.87,424.319z M407.51,303.296c-6.899,0-12.3,2.569-16.511,7.857c-19.464,24.439-5.203,96.545-2.62,108.697l39.067-0.757    c2.469-11.92,16.251-83.499-3.276-107.887C419.908,305.884,414.458,303.296,407.51,303.296z"/>
	</g>
	<g>
		<path style="fill:#7BB4D0;" d="M93.101,418.653c0,0-26.081-110.124,16.421-111.09c42.505-0.967,18.354,108.676,18.354,108.676    L93.101,418.653z"/>
		
			<rect x="47.661" y="361.454" transform="matrix(0.0112 -0.9999 0.9999 0.0112 -255.5991 468.8224)" style="fill:#DD7A39;" width="123.196" height="4.399"/>
		
			<rect x="112.422" y="344.126" transform="matrix(0.0179 -0.9998 0.9998 0.0179 -262.2942 482.8329)" style="fill:#DD7A39;" width="4.4" height="61.603"/>
		<path style="fill:#594343;" d="M87.305,425.282l-0.4-1.742c-0.803-3.495-19.397-85.934,3.087-114.165    c5.028-6.314,11.742-9.515,19.952-9.515c8.256,0,15.016,3.216,20.096,9.559c22.535,28.15,4.553,109.823,3.776,113.285    l-0.379,1.686L87.305,425.282z M109.944,304.259c-6.899,0-12.3,2.569-16.51,7.857c-19.465,24.439-5.204,96.545-2.621,108.697    l39.068-0.757c2.469-11.918,16.25-83.499-3.277-107.888C122.343,306.847,116.893,304.259,109.944,304.259z"/>
	</g>
	<g>
		<polygon style="fill:#7BB4D0;" points="384.6,250.775 377.633,177.082 437.393,180.015 430.06,250.775   "/>
		
			<rect x="407.648" y="171.153" transform="matrix(0.9985 -0.0549 0.0549 0.9985 -11.1189 22.8281)" style="fill:#DD7A39;" width="4.399" height="85.185"/>
		
			<rect x="404.807" y="181.582" transform="matrix(0.0458 -0.999 0.999 0.0458 171.0009 614.2117)" style="fill:#DD7A39;" width="4.401" height="72.029"/>
	</g>
	<polygon style="fill:#FFCA93;" points="375.064,246.65 436.676,244.91 437.393,256.274 375.432,254.443  "/>
	<g>
		<polygon style="fill:#7BB4D0;" points="229.513,250.775 226.58,174.516 294.039,174.516 287.897,250.775   "/>
		
			<rect x="257.721" y="171.172" transform="matrix(0.999 -0.0458 0.0458 0.999 -9.5555 12.1228)" style="fill:#DD7A39;" width="4.4" height="87.063"/>
		
			<rect x="218.593" y="212.738" transform="matrix(0.9997 -0.0241 0.0241 0.9997 -5.1023 6.3299)" style="fill:#DD7A39;" width="83.156" height="4.4"/>
		<polygon style="fill:#FFCA93;" points="223.647,246.65 295.506,246.65 292.572,254.443 226.58,254.443   "/>
	</g>
	<g>
		<polygon style="fill:#7BB4D0;" points="82.86,177.082 142.622,177.082 139.144,250.775 86.16,248.575   "/>
		
			<rect x="114.939" y="172.74" transform="matrix(0.0764 -0.9971 0.9971 0.0764 -107.1215 316.2533)" style="fill:#DD7A39;" width="4.399" height="86.411"/>
		
			<rect x="107.545" y="171.216" transform="matrix(1 -0.0094 0.0094 1 -1.9892 1.0376)" style="fill:#DD7A39;" width="4.399" height="83.229"/>
		<polygon style="fill:#FFCA93;" points="79.193,244.91 145.418,244.91 144.086,254.443 79.193,254.443   "/>
	</g>
	<g>
		<g>
			<polygon style="fill:#FFCA93;" points="483.406,285.973 486.705,260.125 25.848,263.424 28.597,287.622 160.333,287.145      178.047,303.296 176.809,455.906 206.506,455.906 199.081,302.195 213.965,286.949 312.799,286.591 326.394,303.02      316.495,458.656 346.742,457.281 344.543,304.671 360.241,286.419    "/>
			<rect x="183.316" y="309.803" style="fill:#DD7A39;" width="2.201" height="135.227"/>
			<rect x="189.181" y="309.803" style="fill:#DD7A39;" width="2.201" height="135.227"/>
			
				<rect x="194.534" y="309.429" transform="matrix(0.9999 -0.0151 0.0151 0.9999 -5.6457 3.0067)" style="fill:#DD7A39;" width="2.201" height="129.436"/>
			
				<rect x="258.273" y="376.199" transform="matrix(0.0404 -0.9992 0.9992 0.0404 -62.9796 689.0233)" style="fill:#DD7A39;" width="137.894" height="2.2"/>
			
				<rect x="264.116" y="377.241" transform="matrix(0.0226 -0.9997 0.9997 0.0226 -50.9094 704.6047)" style="fill:#DD7A39;" width="141.607" height="2.199"/>
			<rect x="340.83" y="308.407" style="fill:#DD7A39;" width="2.201" height="142.917"/>
			
				<rect x="334.368" y="294.733" transform="matrix(0.0906 -0.9959 0.9959 0.0906 2.4899 610.4172)" style="fill:#DD7A39;" width="2.2" height="18.224"/>
			
				<rect x="187.525" y="293.383" transform="matrix(0.0649 -0.9979 0.9979 0.0649 -126.953 472.4943)" style="fill:#DD7A39;" width="2.199" height="21.2"/>
			
				<rect x="186.392" y="278.669" transform="matrix(0.0056 -1 1 0.0056 -109.6679 481.9249)" style="fill:#DD7A39;" width="2.201" height="34.875"/>
			
				<rect x="334.244" y="278.177" transform="matrix(0.0686 -0.9976 0.9976 0.0686 18.1786 609.1991)" style="fill:#DD7A39;" width="2.2" height="33.374"/>
			<g>
				
					<rect x="36.131" y="271.669" transform="matrix(1 -0.0044 0.0044 1 -1.2136 0.1677)" style="fill:#DD7A39;" width="2.199" height="4.399"/>
				<path style="fill:#DD7A39;" d="M42.741,276.044l-0.019-4.398l4.4-0.019l0.02,4.399L42.741,276.044z M51.545,276.008l-0.02-4.399      l4.4-0.018l0.021,4.399L51.545,276.008z M60.348,275.972l-0.02-4.399l4.401-0.018l0.02,4.399L60.348,275.972z M69.149,275.934      l-0.019-4.399l4.402-0.018l0.019,4.398L69.149,275.934z M77.95,275.897l-0.017-4.399l4.402-0.018l0.019,4.399L77.95,275.897z       M86.753,275.861l-0.016-4.399l4.402-0.018l0.017,4.399L86.753,275.861z M95.556,275.825l-0.017-4.399l4.401-0.018l0.016,4.399      L95.556,275.825z M104.359,275.789l-0.017-4.399l4.401-0.018l0.017,4.399L104.359,275.789z M113.162,275.752l-0.017-4.399      l4.399-0.018l0.019,4.399L113.162,275.752z M121.963,275.714l-0.019-4.399l4.402-0.018l0.019,4.399L121.963,275.714z       M130.768,275.678l-0.021-4.399l4.402-0.018l0.02,4.399L130.768,275.678z M139.57,275.642l-0.02-4.399l4.4-0.019l0.02,4.399      L139.57,275.642z M148.373,275.605l-0.02-4.399l4.402-0.018l0.019,4.399L148.373,275.605z M157.176,275.569l-0.019-4.399      l4.401-0.018l0.018,4.398L157.176,275.569z M165.977,275.532l-0.02-4.399l4.402-0.02l0.02,4.399L165.977,275.532z       M174.778,275.495l-0.016-4.399l4.402-0.018l0.017,4.399L174.778,275.495z M183.581,275.458l-0.017-4.399l4.402-0.018      l0.016,4.399L183.581,275.458z M192.384,275.422l-0.017-4.399l4.398-0.018l0.019,4.399L192.384,275.422z M201.186,275.385      l-0.018-4.399l4.401-0.018l0.02,4.399L201.186,275.385z M209.989,275.349l-0.019-4.399l4.401-0.018l0.02,4.398L209.989,275.349z       M218.792,275.312l-0.02-4.399l4.402-0.02l0.02,4.399L218.792,275.312z M227.595,275.274l-0.018-4.399l4.4-0.018l0.02,4.399      L227.595,275.274z M236.397,275.238l-0.018-4.399l4.401-0.018l0.016,4.399L236.397,275.238z M245.2,275.202l-0.018-4.398      l4.4-0.018l0.017,4.399L245.2,275.202z M254.002,275.165l-0.018-4.399l4.401-0.018l0.017,4.399L254.002,275.165z       M262.805,275.129l-0.017-4.399l4.4-0.019l0.017,4.399L262.805,275.129z M271.605,275.091l-0.017-4.399l4.402-0.018l0.017,4.399      L271.605,275.091z M280.408,275.055l-0.018-4.399l4.401-0.018l0.018,4.399L280.408,275.055z M289.213,275.019l-0.02-4.399      l4.4-0.018l0.02,4.399L289.213,275.019z M298.016,274.982l-0.02-4.399l4.4-0.018l0.02,4.399L298.016,274.982z M306.818,274.946      l-0.02-4.399l4.4-0.018l0.02,4.399L306.818,274.946z M315.619,274.91l-0.017-4.399l4.402-0.018l0.018,4.399L315.619,274.91z       M324.421,274.872l-0.017-4.399l4.402-0.019l0.018,4.399L324.421,274.872z M333.224,274.835l-0.017-4.399l4.4-0.018l0.017,4.399      L333.224,274.835z M342.026,274.799l-0.017-4.399l4.4-0.019l0.017,4.4L342.026,274.799z M350.829,274.762l-0.017-4.399      l4.4-0.018l0.017,4.399L350.829,274.762z M359.63,274.726l-0.019-4.399l4.402-0.018l0.019,4.398L359.63,274.726z       M368.435,274.69l-0.02-4.399l4.401-0.02l0.021,4.399L368.435,274.69z M377.237,274.652l-0.02-4.399l4.401-0.018l0.021,4.399      L377.237,274.652z M386.04,274.615l-0.02-4.399l4.4-0.018l0.019,4.399L386.04,274.615z M394.843,274.579l-0.02-4.399      l4.402-0.019l0.018,4.399L394.843,274.579z M403.645,274.543l-0.018-4.399l4.4-0.018l0.017,4.399L403.645,274.543z       M412.445,274.506l-0.017-4.399l4.402-0.018l0.017,4.398L412.445,274.506z M421.25,274.47l-0.02-4.399l4.401-0.02l0.021,4.399      L421.25,274.47z M430.051,274.432l-0.017-4.399l4.4-0.018l0.017,4.399L430.051,274.432z M438.853,274.396l-0.017-4.399      l4.399-0.018l0.018,4.399L438.853,274.396z M447.656,274.359l-0.018-4.398l4.4-0.018l0.02,4.399L447.656,274.359z       M456.457,274.323l-0.02-4.399l4.402-0.018l0.02,4.399L456.457,274.323z M465.262,274.287l-0.02-4.399l4.402-0.019l0.02,4.399      L465.262,274.287z"/>
				
					<rect x="474.057" y="269.846" transform="matrix(1 -0.0044 0.0044 1 -1.2013 2.109)" style="fill:#DD7A39;" width="2.198" height="4.399"/>
			</g>
		</g>
		<g>
			<polygon style="fill:#594343;" points="215.58,455.906 207.056,329.969 316.769,326.668 306.597,460.305    "/>
			<path style="opacity:0.2;fill:#FFFFFF;" d="M257.376,386.336h-43.941l-1.21-48.395h45.151V386.336z M217.725,381.938h35.252     v-39.597h-36.24L217.725,381.938z"/>
			<path style="opacity:0.2;fill:#FFFFFF;" d="M260.002,443.324l-43.596-1.227v-39.44l40.827-1.841L260.002,443.324z      M220.805,437.82l34.494,0.97l-2.177-33.384l-32.317,1.457V437.82z"/>
			<path style="opacity:0.2;fill:#FFFFFF;" d="M307.266,386.431l-40.75-1.837l-1.509-46.491l45.885-3.364L307.266,386.431z      M270.782,380.383l32.395,1.46l2.971-42.347l-36.607,2.684L270.782,380.383z"/>
			<path style="opacity:0.2;fill:#FFFFFF;" d="M304.567,443.256h-37.753l-1.834-43.994h41.724L304.567,443.256z M271.035,438.857     h29.342l1.71-35.196h-32.518L271.035,438.857z"/>
			<path style="fill:#594343;" d="M207.056,323.094l109.714-1.1C316.769,321.994,251.326,257.649,207.056,323.094z"/>
			<path style="fill:#FFB200;" d="M255.177,392.834c0,1.633-2.439,2.956-5.448,2.956c-3.01,0-5.449-1.324-5.449-2.956     c0-1.632,2.439-2.956,5.449-2.956C252.737,389.878,255.177,391.202,255.177,392.834z"/>
			<path style="fill:#FFB200;" d="M278.445,391.82c0,1.964-2.7,3.558-6.031,3.558c-3.332,0-6.032-1.593-6.032-3.558     c0-1.965,2.7-3.558,6.032-3.558C275.745,388.262,278.445,389.855,278.445,391.82z"/>
		</g>
		<g>
			<g>
				<polygon style="fill:#FFCA93;" points="186.57,451.324 331.804,451.324 333.271,512 184.417,512     "/>
				
					<rect x="184.403" y="461.223" transform="matrix(0.9998 -0.0188 0.0188 0.9998 -8.6455 4.9877)" style="fill:#594343;" width="154.382" height="4.4"/>
				
					<rect x="184.416" y="479.05" transform="matrix(1 -0.0053 0.0053 1 -2.5563 1.3983)" style="fill:#594343;" width="154.353" height="4.399"/>
				
					<rect x="259.393" y="422.169" transform="matrix(0.0143 -0.9999 0.9999 0.0143 -241.439 753.7969)" style="fill:#594343;" width="4.399" height="154.366"/>
			</g>
			<g>
				<polygon style="fill:#594343;" points="194.682,429.793 191.537,512 173.851,512 161.421,433.623     "/>
				<path style="fill:#594343;" d="M190.281,418.372c0,4.936-7.199,8.936-16.085,8.936c-8.886,0-16.085-4.001-16.085-8.936      c0-4.934,7.2-8.937,16.085-8.937C183.082,409.435,190.281,413.438,190.281,418.372z"/>
			</g>
			<g>
				<polygon style="fill:#594343;" points="359.402,435.007 341.803,512 324.471,512 324.471,435.007     "/>
				<path style="fill:#594343;" d="M359.391,421.672c0,5.544-7.816,10.037-17.46,10.037c-9.645,0-17.46-4.493-17.46-10.037      c0-5.544,7.815-10.038,17.46-10.038C351.574,411.634,359.391,416.127,359.391,421.672z"/>
			</g>
		</g>
	</g>
</g>















</svg>
