<?xml version="1.0" encoding="UTF-8"?>
<!-- Generator: Adobe Illustrator 25.3.1, SVG Export Plug-In . SVG Version: 6.00 Build 0)  -->
<svg xmlns="http://www.w3.org/2000/svg" xmlns:xlink="http://www.w3.org/1999/xlink" version="1.1" id="Capa_1" x="0px" y="0px" viewBox="0 0 512.03 512.03" style="enable-background:new 0 0 512.03 512.03;" xml:space="preserve" width="512" height="512">
<g>
	<g>
		<path style="fill:#FFFFFF;" d="M256.002,512.03c-45.332-0.024-90.524-12.283-129.673-35.31    C48.437,430.907,0.027,346.325,0.027,256.002c0-37.564,8.34-74.916,24.204-108.746c-0.219-0.47-0.412-0.955-0.58-1.451    c-1.264-3.739-0.929-7.835,0.929-11.316c0,0,52.993-99.32,53.015-99.362c3.499-6.558,12.285-9.389,18.958-6.091l22.113,10.911    C159.714,13.784,207.01,0,256.002,0c54.301,0,105.7,16.581,149.357,48.062c1.763-0.747,3.663-1.134,5.581-1.134    c6.577,0,12.443,4.68,13.931,11.062l1.646,7.071c54.391,48.598,85.485,117.915,85.485,190.94c0,27.412-4.324,54.373-12.862,80.23    l9.474,24.874c2.624,6.894-0.424,14.655-7.039,17.922l-29.771,14.692c-15.931,24.921-35.874,46.729-59.322,64.865    C368.054,493.053,312.225,512.06,256.002,512.03z"/>
	</g>
	<g>
		<g>
			<path style="fill:#A2B7FF;" d="M500.183,256.001c0,43.867-12.038,87.358-34.753,124.898     c-17.427,28.799-40.422,53.955-68.296,72.926c-0.024,0.024-10.366-2.008-10.366-2.008c-8.78,6.175-18.293,19.437-18.293,19.437     c-12.867,6.518-26.332,12.025-40.152,16.166c-11.778,3.552-23.938,6.223-36.432,7.939c-4.482,0.644-8.989,1.145-13.543,1.478     c-3.243,0.286-6.509,0.5-9.799,0.62c-3.314,0.167-6.676,0.239-10.062,0.239c-0.477,0-0.953,0-1.431-0.024     c-15.021-0.072-29.732-1.55-43.966-4.22c-4.435-0.858-8.822-1.836-13.161-2.909c-22.378-5.619-43.966-14.374-63.827-26.132     C64.718,422.423,16.818,344.815,16.818,256.001c0-133.472,108.199-241.695,241.671-241.695     C391.985,14.306,500.183,122.528,500.183,256.001z"/>
		</g>
		<g>
			<g>
				<polygon style="fill:#58304D;" points="459.1,345.578 423.635,402.766 418.861,405.132 375.173,301.33 380.91,298.702       446.657,303.465     "/>
			</g>
			<g>
				<polygon style="fill:#7B50B6;" points="497.731,366.199 423.635,402.766 380.91,298.702 458.476,263.099     "/>
			</g>
			<g>
				<polygon style="fill:#FFE7E1;" points="404.015,308.594 412.977,329.847 460.349,309.106 450.363,287.596     "/>
			</g>
		</g>
		<g>
			<g>
				<polygon style="fill:#58304D;" points="113.399,153.51 44.536,143.437 39.689,141.224 92.703,41.861 98.36,44.656       142.314,84.424     "/>
			</g>
			<g>
				<polygon style="fill:#FFA71D;" points="119.64,177.885 44.536,143.437 98.36,44.656 174.905,82.405     "/>
			</g>
			<g>
				<polygon style="fill:#FFE7E1;" points="105.253,68.826 94.409,89.184 140.379,112.871 150.775,91.556     "/>
			</g>
		</g>
		<g>
			<g>
				<path style="fill:#7B50B6;" d="M333.102,485.93c-1.55,0.596-3.204,0.941-4.778,1.49c-11.778,3.552-23.938,6.223-36.432,7.939      c-4.482,0.644-8.989,1.145-13.543,1.478l-2.217-9.68l-14.663,0.93l-4.411,9.585c-15.021-0.072-29.732-1.55-43.966-4.22      c-4.435-0.858-8.822-1.836-13.161-2.909l7.82-44.276l1.311-7.439l61.085-2.074l58.677-2.003l0.763,9.156L333.102,485.93z"/>
			</g>
			<g>
				<g>
					<g>
						<g>
							<g>
								<rect x="257.68" y="286.05" style="fill:#FFACA9;" width="22.626" height="40.228"/>
							</g>
							<g>
								<path style="fill:#58304D;" d="M280.306,286.05v20.213c-1.526,1.182-3.152,2.191-4.949,2.832          c-6.894,2.511-12.975,0.837-17.677-3.028V286.05H280.306z"/>
							</g>
						</g>
						<g>
							<g>
								<g>
									<path style="fill:#FFACA9;" d="M133.47,249.523c-1.325,1.752-2.988,3.213-4.853,4.404           c-1.056,0.674-2.179,1.281-3.325,1.775c-10.784,4.696-24.174,1.685-32.667-6.448c-8.493-8.155-12.065-20.782-10.133-32.397           c0.899-5.347,2.988-10.649,6.897-14.424c4.538-4.359,11.211-6.156,17.479-5.482c4.763,0.494,9.256,2.292,13.143,5.01           c0.584,0.405,1.146,0.831,1.708,1.281c2.853,2.269,5.28,5.055,7.122,8.178c0.561,0.944,1.078,1.932,1.528,2.943           C135.043,224.809,141.401,238.963,133.47,249.523z"/>
								</g>
								<g>
									<path style="fill:#58304D;" d="M127.431,248.647c-0.496,0-0.964-0.303-1.151-0.796           c-4.926-12.988-13.179-24.541-23.868-33.413c-2.688-2.231-5.94-4.636-9.686-5.567c-0.66-0.163-1.062-0.831-0.898-1.49           c0.163-0.664,0.831-1.071,1.491-0.899c4.227,1.05,7.763,3.653,10.664,6.061c11.017,9.144,19.522,21.051,24.6,34.437           c0.241,0.636-0.079,1.346-0.715,1.586C127.724,248.621,127.576,248.647,127.431,248.647z"/>
								</g>
							</g>
							<g>
								<g>
									<path style="fill:#FFACA9;" d="M442.168,241.277c-8.493,8.155-21.883,11.144-32.667,6.448           c-0.494-0.202-0.966-0.449-1.438-0.674c-2.629-1.348-4.988-3.145-6.763-5.482c-7.931-10.56-1.573-24.714,3.1-35.183           c0.494-1.078,1.034-2.157,1.685-3.168c2.269-3.774,5.414-7.055,9.122-9.526c0.314-0.225,0.629-0.427,0.966-0.607           c3.55-2.202,7.549-3.64,11.728-4.089c6.291-0.674,12.941,1.101,17.502,5.482c3.909,3.752,5.976,9.077,6.875,14.424           C454.21,220.518,450.638,233.144,442.168,241.277z"/>
								</g>
								<g>
									<path style="fill:#58304D;" d="M406.559,241.035c-0.115,0-0.233-0.016-0.349-0.051c-0.652-0.193-1.025-0.878-0.831-1.53           c2.942-9.94,6.779-18.047,11.732-24.781c5.898-8.019,13.351-13.901,21.555-17.004c0.629-0.247,1.346,0.077,1.587,0.715           c0.241,0.636-0.08,1.346-0.716,1.586c-7.758,2.938-14.827,8.527-20.442,16.161c-4.781,6.501-8.495,14.359-11.354,24.022           C407.582,240.688,407.091,241.035,406.559,241.035z"/>
								</g>
							</g>
							<g>
								<path style="fill:#FFACA9;" d="M415.506,188.982c-1.022,19.256-2.888,39.306-7.452,58.073          c-0.22,0.904-0.464,1.783-0.733,2.687c-0.242,0.859-0.605,1.991-0.865,2.761c-1.251,3.715-2.88,7.459-4.901,10.823          c-11.018,18.275-34.937,25.213-54.579,28.463c-2.736,0.44-5.472,0.83-8.233,1.173c-19.35,2.419-38.943,2.321-58.44,3.103          c-0.195,0-0.415,0.024-0.611,0.024c-7.769,0.318-15.074,0.611-22.012,0.831c-19.643,0.611-36.476,0.66-53.26-0.782          c-2.314-0.2-4.629-0.41-6.938-0.66c-5.544-0.599-11.126-1.428-16.626-2.351c-3.737-0.627-7.465-1.305-11.176-2.071          c-4.496-0.928-8.649-2.345-12.46-4.178c-1.866-0.871-3.743-1.897-5.448-3.054c-2.729-1.852-5.381-3.878-7.769-6.157          c-4.996-4.768-8.919-10.55-12.167-16.613c-1.197-2.321-2.272-4.691-3.225-7.134c-9.362-24.002-8.176-51.455-4.398-76.494          c1.442-9.553,8.039-17.065,10.287-26.3c6.279-25.726,34.584-29.756,57.647-41.629          c46.519-23.931,89.958-40.951,140.303-29.242c0.875,0.203,0.98,1.33,1.853,1.54c19.93,4.791,39.968,8.805,54.872,23.404          c15.538,15.221,16.917,38.479,18.799,59.661C408.731,173.607,415.506,188.982,415.506,188.982z"/>
							</g>
							<g style="opacity:0.53;">
								<g>
									<path style="fill:#FF676C;" d="M210.534,274.725c0,7.854-2.24,15.215-6.106,21.419c-11.3-0.96-22.601-2.56-34.738-5.072           c-18.046-3.742-30.282-15.264-37.865-30.011c5.613-15.658,20.582-26.86,38.16-26.86           C192.389,234.201,210.534,252.346,210.534,274.725z"/>
								</g>
								<g>
									<path style="fill:#FF676C;" d="M407.343,249.737c-1.452,4.874-3.299,9.478-5.785,13.59           c-11.03,18.268-34.935,25.211-54.582,28.46c-2.733,0.443-5.466,0.837-8.223,1.182c-4.358-6.45-6.893-14.255-6.893-22.626           c0-22.404,18.145-40.549,40.549-40.549C387.279,229.794,400.278,237.796,407.343,249.737z"/>
								</g>
							</g>
							<g>
								<circle style="fill:#58304D;" cx="196.083" cy="220.466" r="14.248"/>
							</g>
							<g>
								<circle style="fill:#58304D;" cx="344.429" cy="220.466" r="14.248"/>
							</g>
						</g>
						<g>
							<g>
								<path style="fill:#58304D;" d="M273.715,246.197c-0.625,0-1.253-0.016-1.884-0.051c-9.038-0.508-20.467-5.164-25.623-14.429          c-0.328-0.589-0.116-1.332,0.474-1.66c0.587-0.326,1.333-0.119,1.661,0.473c4.679,8.406,15.526,12.722,23.625,13.176          c10.657,0.58,20.765-4.305,27.713-13.444c0.406-0.538,1.174-0.643,1.711-0.235c0.537,0.41,0.641,1.176,0.233,1.711          C294.589,241,284.501,246.197,273.715,246.197z"/>
							</g>
							<g>
								<g>
									<path style="fill:#58304D;" d="M181.142,174.981c-4.203,2.09-8.495,5.705-8.278,10.394           c0.158,3.422,2.831,6.333,5.962,7.723c3.131,1.39,6.659,1.529,10.085,1.495c5.65-0.056,11.57-0.613,16.299-3.706           c4.729-3.093,7.758-9.437,5.427-14.584c-1.478-3.263-4.822-5.43-8.335-6.129C195.667,168.855,187,172.067,181.142,174.981z           "/>
								</g>
								<g>
									<path style="fill:#58304D;" d="M357.017,174.981c4.203,2.09,8.495,5.705,8.278,10.394           c-0.158,3.422-2.831,6.333-5.962,7.723c-3.131,1.39-6.659,1.529-10.084,1.495c-5.65-0.056-11.57-0.613-16.299-3.706           c-4.729-3.093-7.758-9.437-5.427-14.584c1.478-3.263,4.822-5.43,8.335-6.129           C342.491,168.855,351.158,172.067,357.017,174.981z"/>
								</g>
							</g>
						</g>
					</g>
					<g>
						<g>
							<path style="fill:#58304D;" d="M346.048,96.07c-1.051,8.258-3.396,16.589-8.453,23.234c-0.122,0.171-0.244,0.318-0.366,0.489         c-7.207,9.088-19.325,13.73-30.881,12.704c-11.532-1.026-22.33-7.403-29.586-16.442         c-0.782,13.242-3.591,27.876-14.243,35.767c-7.378,5.448-17.517,6.474-26.239,3.616c-8.697-2.883-15.978-9.308-20.84-17.077         c-1.417,12.68-10.505,24.211-22.525,28.56c-12.02,4.349-26.361,1.295-35.572-7.574c0.953,8.746,1.906,17.639,0.146,26.264         c-1.735,8.6-6.694,17.029-14.634,20.767c-6.987,3.249-16.681,1.683-21.445-4.083c0.342-8.355,1.558-16.61,2.804-24.868         c2.76-18.288,6.242-37.439,16.777-53c9.516-14.057,23.122-25.142,38.145-32.876C228.236,66.291,286.286,65.46,339,78.274         c2.132,0.518,4.251,1.056,6.364,1.647C346.903,85.101,346.708,90.671,346.048,96.07z"/>
						</g>
						<g>
							<path style="fill:#58304D;" d="M415.506,188.982c-0.635,2.003-1.295,3.958-1.979,5.912v0.024         c-0.293,0.806-0.562,1.588-0.855,2.394c-0.977,2.688-2.468,5.79-5.302,6.157c-0.489,0.073-0.953,0.049-1.393-0.073         c-2.467-0.513-4.3-3.274-5.277-5.79c-3.909-10.188-3.225-22.037,1.857-31.687c-4.862,6.377-14.561,7.867-21.768,4.398         c-7.232-3.494-11.947-11.043-13.388-18.934c-1.442-7.891,0.049-16.076,2.663-23.649c-3.225,5.717-10.652,8.355-17.029,6.841         c-6.401-1.49-11.605-6.523-14.366-12.484c-0.415-0.904-0.782-1.833-1.075-2.785c-1.808-5.228-2.101-10.97-1.564-16.491         c0.782-8.087,3.274-16.369,7.476-23.405c0.611,0.171,1.246,0.342,1.857,0.513c16.76,4.862,33.129,12.044,45.686,24.358         c15.538,15.221,22.281,37.282,24.163,58.464C415.97,171.49,415.97,180.236,415.506,188.982z"/>
						</g>
					</g>
				</g>
				<g>
					<g>
						<path style="fill:#58304D;" d="M340.092,77.961c-2.514-4.152-4.3-8.744-5.25-13.504c-0.961-4.812-0.89-10.321,2.362-13.995        c1.081-1.221,2.623-2.209,4.245-2.034c2.097,0.227,3.51,2.251,4.306,4.204c1.625,3.987,1.88,8.386,1.957,12.691        c0.12,6.724,0.659,14.693-1.09,21.192C343.992,85.495,341.611,80.471,340.092,77.961z"/>
					</g>
					<g>
						<path style="fill:#58304D;" d="M351.493,77.571c3.345-3.517,7.306-6.447,11.649-8.616c4.39-2.192,9.724-3.572,14.124-1.4        c1.462,0.722,2.821,1.95,3.078,3.56c0.333,2.083-1.248,3.979-2.924,5.26c-3.42,2.616-7.597,4.019-11.73,5.225        c-6.456,1.884-14.004,4.498-20.734,4.52C345.248,83.316,349.47,79.698,351.493,77.571z"/>
					</g>
				</g>
			</g>
			<g>
				<g>
					<path style="fill:#FFACA9;" d="M397.135,453.824c-0.334,0.262-0.668,0.549-1.001,0.811c-0.024,0.024-0.048,0.047-0.048,0.047       c-2.17,1.526-4.339,2.98-6.557,4.411c-3.41,2.217-6.819,4.315-10.348,6.366c-3.529,2.003-7.081,3.958-10.705,5.794       l-39.961-80.16l31.186-8.297L397.135,453.824z"/>
				</g>
				<g>
					<path style="fill:#FFE7E1;" d="M257.093,315.314l12.476,8.733l10.916-10.916c0,0,46.159,9.357,47.719,12.475       c1.56,3.119,22.456,115.399,22.456,115.399s-103.547,17.154-168.108,0.624l30.877-109.161L257.093,315.314z"/>
				</g>
				<g>
					<polygon style="fill:#FFE7E1;" points="213.429,332.468 130.155,361.474 149.492,423.539 214.676,394.534      "/>
				</g>
				<g>
					<polygon style="fill:#FFE7E1;" points="328.203,325.607 394.324,392.662 334.441,417.926      "/>
				</g>
				<g>
					<g>
						<path style="fill:#7B50B6;" d="M285.164,352.726c-0.217,0-0.424-0.116-0.534-0.314l-15.096-27.17l-16.915,26.579        c-0.155,0.24-0.461,0.34-0.726,0.245c-0.269-0.098-0.433-0.373-0.395-0.657l4.991-36.179c0.047-0.333,0.349-0.584,0.689-0.522        c0.334,0.047,0.567,0.354,0.522,0.689l-4.609,33.406l15.964-25.084c0.116-0.182,0.303-0.298,0.534-0.282        c0.215,0.007,0.411,0.126,0.516,0.314l14.083,25.347l-4.309-35.895c-0.04-0.335,0.199-0.638,0.533-0.678        c0.349-0.072,0.639,0.2,0.68,0.533l4.679,38.984c0.035,0.289-0.141,0.563-0.418,0.654        C285.289,352.717,285.226,352.726,285.164,352.726z"/>
					</g>
					<g>
						<path style="fill:#7B50B6;" d="M270.192,448.789c-0.336,0-0.609-0.27-0.611-0.608l-0.623-124.132        c-0.001-0.338,0.271-0.612,0.608-0.612c0.001,0,0.002,0,0.003,0c0.336,0,0.609,0.27,0.611,0.608l0.623,124.132        c0.001,0.338-0.271,0.612-0.608,0.612C270.194,448.789,270.193,448.789,270.192,448.789z"/>
					</g>
					<g>
						<path style="fill:#7B50B6;" d="M303.736,398.645c-3.303,0-6.246-1.146-8.765-3.413c-9.797-8.82-10.099-31.54-10.108-32.504        c-0.002-0.335,0.265-0.61,0.601-0.615l36.804-0.624c0.003,0,0.007,0,0.01,0c0.321,0,0.589,0.249,0.61,0.57        c0.09,1.413,1.994,34.607-17.705,36.514C304.693,398.619,304.211,398.645,303.736,398.645z M286.1,363.323        c0.12,3.7,1.153,23.317,9.69,31c2.616,2.354,5.738,3.365,9.275,3.034c17.163-1.662,16.795-30.181,16.631-34.637L286.1,363.323        z"/>
					</g>
					<g>
						<path style="fill:#7B50B6;" d="M182.552,442.239c-0.05,0-0.101-0.005-0.153-0.019c-0.326-0.084-0.523-0.417-0.439-0.743        l22.767-88.577c0.084-0.328,0.414-0.529,0.744-0.44c0.326,0.084,0.523,0.417,0.439,0.743l-22.767,88.577        C183.072,442.058,182.825,442.239,182.552,442.239z"/>
					</g>
					<g>
						<path style="fill:#7B50B6;" d="M350.658,441.615c-0.283,0-0.537-0.198-0.597-0.487l-19.648-94.815        c-0.069-0.331,0.144-0.652,0.475-0.722c0.319-0.072,0.652,0.144,0.722,0.475l19.648,94.815        c0.069,0.331-0.144,0.652-0.475,0.722C350.742,441.613,350.7,441.615,350.658,441.615z"/>
					</g>
				</g>
				<g>
					<g>
						<path style="fill:#FFACA9;" d="M146.176,412.895l-39.066,16.76c-6.914,2.956-14.732-1.588-15.538-9.064l-8.233-74.442v-0.147        l-0.073-0.684l-0.073-0.709l-0.806-7.256l-0.44-3.909l1.1-0.122l2.272-0.244l0.196-0.025l3.689-0.415l0.196-0.025l3.689-0.415        l0.22-0.024l3.103-0.342l4.3-0.489l3.567-0.391l0.171,1.197l8.844,59.026l22.892-10.359L146.176,412.895z"/>
					</g>
					<g>
						<path style="fill:#FFACA9;" d="M81.939,333.438c0,0-15.984-38.643-15.338-41.193c0.646-2.549,20.406-22.979,20.406-22.979        l16.479,28.391l0.787,33.3L81.939,333.438z"/>
					</g>
					<g>
						<path style="fill:#FFACA9;" d="M104.219,333.047c0,0,8.782-33.589,8.083-34.58c-0.698-0.991-22.539-3.134-21.703-0.276        c0.836,2.857,8.229,9.818,8.229,9.818l-8.877,18.168L104.219,333.047z"/>
					</g>
					<g>
						<g>
							<g>
								<polygon style="fill:#7B50B6;" points="93.707,347.876 90.74,346.243 84.291,345.024 80.972,345.741 96.38,254.087           98.536,254.449 98.73,254.483 102.254,255.077 102.448,255.11 105.964,255.699 106.157,255.732 109.11,256.23         "/>
							</g>
							<g>
								<g>
									<g>
										
											<rect x="44.206" y="299.729" transform="matrix(0.1658 -0.9862 0.9862 0.1658 -219.7595 339.8565)" style="fill:#FFE7E1;" width="93.605" height="0.198"/>
									</g>
								</g>
								<g>
									<g>
										
											<rect x="47.919" y="300.353" transform="matrix(0.1658 -0.9862 0.9862 0.1658 -217.2776 344.0394)" style="fill:#FFE7E1;" width="93.605" height="0.198"/>
									</g>
								</g>
								<g>
									<g>
										
											<rect x="51.633" y="300.978" transform="matrix(0.1658 -0.9862 0.9862 0.1658 -214.7957 348.2223)" style="fill:#FFE7E1;" width="93.605" height="0.198"/>
									</g>
								</g>
							</g>
							<g>
								<polygon style="fill:#FFE7E1;" points="106.136,240.95 108.102,245.121 109.111,256.228 104.397,262.39 101.59,258.785           99.112,262.182 96.378,254.087 102.422,243.878         "/>
							</g>
							<g>
								<path style="fill:#FFE7E1;" d="M93.707,347.876l-2.967-0.495l-7.04-1.182l-2.728-0.458l1.339-0.724          c0.353-0.191,0.712-0.354,1.087-0.484c0.066-0.031,0.136-0.048,0.211-0.074c1.19-0.398,2.449-0.518,3.673-0.362          c0.068,0.005,0.136,0.011,0.199,0.025c1.199,0.177,2.36,0.616,3.396,1.3c0.061,0.037,0.125,0.087,0.186,0.124          c0.306,0.22,0.593,0.453,0.879,0.708L93.707,347.876z"/>
							</g>
							<g>
								<path style="fill:#58304D;" d="M107.245,235.731l0.857,9.39c-0.539,0.206-1.119,0.317-1.696,0.316          c-1.403,0.005-2.871-0.603-3.984-1.559L107.245,235.731z"/>
							</g>
						</g>
						<g>
							<path style="fill:#58304D;" d="M90.74,347.381l-7.04-1.182c0.29-0.264,1.313-1.036,3.357-0.742         c0.063,0.014,0.131,0.019,0.193,0.033c0.063,0.014,0.131,0.02,0.194,0.034c1.553,0.319,2.565,1.083,3.142,1.681         c0,0,0,0,0.004,0.014C90.648,347.278,90.699,347.332,90.74,347.381z"/>
						</g>
					</g>
					<g>
						<path style="fill:#FFACA9;" d="M86.879,271.778c0,0,18.286,23.202,16.021,24.307c-2.264,1.105-15.283-12.165-15.283-12.165        s15.736,16.197,13.841,18.056s-17.817-12.603-17.817-12.603s16.761,17.372,13.489,19.646        c-3.272,2.274-15.715-11.664-15.715-11.664s10.617,12.509,8.566,14.38c-2.051,1.871-20.494-17.097-20.494-17.097        L86.879,271.778z"/>
					</g>
					<g>
						<path style="fill:#FFACA9;" d="M112.302,298.467c0,0-21.647-3.043-21.296-0.411c0.35,2.632,12.023,10.372,12.023,10.372        L112.302,298.467z"/>
					</g>
				</g>
			</g>
		</g>
		<g>
			<polygon style="fill:#FFD27B;" points="228.992,47.936 219.451,23.164 236.624,41.704 255.383,27.914 243.069,48.001      257.786,65.129 240.962,56.987 240.355,82.415 231.729,56.895 206.965,60.716    "/>
		</g>
		<g>
			<polygon style="fill:#FFD27B;" points="442.603,164.492 433.061,139.72 450.235,158.261 468.994,144.47 456.68,164.558      471.397,181.686 454.573,173.544 453.965,198.971 445.339,173.452 420.576,177.273    "/>
		</g>
		<g>
			<polygon style="fill:#FFD27B;" points="187.525,330.937 177.983,306.165 195.157,324.705 213.916,310.915 201.602,331.002      216.319,348.13 199.495,339.988 198.887,365.416 190.261,339.896 165.498,343.717    "/>
		</g>
		<g>
			<polygon style="fill:#FFD27B;" points="397.897,379.445 388.355,354.673 405.529,373.214 424.288,359.423 411.974,379.51      426.691,396.638 409.867,388.497 409.259,413.924 400.633,388.404 375.87,392.226    "/>
		</g>
		<g>
			<polygon style="fill:#FFD27B;" points="53.834,257.994 55.081,231.477 63.329,255.365 86.055,250.301 66.691,263.725      73.26,285.331 61.143,271.101 50.342,294.129 52.728,267.296 28.524,260.817    "/>
		</g>
		<g>
			<g>
				<g>
					<g>
						<path style="fill:#FFACA9;" d="M428.212,124.863c-0.601-2.023-1.789-4.051-3.726-4.506c-2.381-0.564-5.049,0.418-6.525,2.377        c-0.155-3.66-2.618-7.124-6.041-8.456c-3.411-1.347-7.587-0.491-10.184,2.096c-0.368-4.233-2.776-8.37-6.56-10.252        c-3.799-1.896-8.884-1.176-11.619,2.06c-0.354-2.884-2.301-5.507-4.95-6.668c-2.649-1.161-6.352-1.713-8.703-0.014        l7.438-6.866l20.153-18.651l15.931-14.751l5.03,21.599l6.594,28.434L428.212,124.863z"/>
					</g>
				</g>
				<g>
					<g>
						<path style="fill:#FF676C;" d="M418.455,82.832c-2.43,1.09-5.118,1.513-7.722,1.086c-4.175-0.686-10.119-3.76-13.239-7.935        l15.931-14.751L418.455,82.832z"/>
					</g>
				</g>
				<g>
					<g>
						<path style="fill:#FF676C;" d="M428.212,124.863c-0.601-2.023-1.789-4.051-3.726-4.506c-2.381-0.564-5.049,0.418-6.525,2.377        c-0.155-3.66-2.618-7.124-6.041-8.456c-3.411-1.347-7.587-0.491-10.184,2.096c-0.368-4.233-2.776-8.37-6.56-10.252        c-3.799-1.896-8.884-1.176-11.619,2.06c-0.354-2.884-2.301-5.507-4.95-6.668c-2.649-1.161-6.352-1.713-8.703-0.014        l7.438-6.866c4.443,1.952,9.522,6.034,12.837,7.605c10.903,5.199,22.767,8.935,34.872,9.027L428.212,124.863z"/>
					</g>
				</g>
			</g>
		</g>
	</g>
</g>















</svg>
